<svg xmlns="http://www.w3.org/2000/svg" width="1800" height="1120" viewBox="0 0 1800 1120">
<rect width="100%" height="100%" fill="#fbfcfe"/>
<text x="900.0" y="34" text-anchor="middle" font-size="24" font-family="Segoe UI, Arial, sans-serif" fill="#1f2d3d">002555 三七互娱 日线 缠论结构图 截至2026-04-24</text>
<line x1="80" y1="822.00" x2="1770" y2="822.00" stroke="#d9e2ec" stroke-dasharray="4 6" stroke-width="1"/>
<text x="70" y="826.00" text-anchor="end" font-size="11" font-family="Consolas, monospace" fill="#52606d">20.30</text>
<line x1="80" y1="669.60" x2="1770" y2="669.60" stroke="#d9e2ec" stroke-dasharray="4 6" stroke-width="1"/>
<text x="70" y="673.60" text-anchor="end" font-size="11" font-family="Consolas, monospace" fill="#52606d">22.57</text>
<line x1="80" y1="517.20" x2="1770" y2="517.20" stroke="#d9e2ec" stroke-dasharray="4 6" stroke-width="1"/>
<text x="70" y="521.20" text-anchor="end" font-size="11" font-family="Consolas, monospace" fill="#52606d">24.83</text>
<line x1="80" y1="364.80" x2="1770" y2="364.80" stroke="#d9e2ec" stroke-dasharray="4 6" stroke-width="1"/>
<text x="70" y="368.80" text-anchor="end" font-size="11" font-family="Consolas, monospace" fill="#52606d">27.09</text>
<line x1="80" y1="212.40" x2="1770" y2="212.40" stroke="#d9e2ec" stroke-dasharray="4 6" stroke-width="1"/>
<text x="70" y="216.40" text-anchor="end" font-size="11" font-family="Consolas, monospace" fill="#52606d">29.35</text>
<line x1="80" y1="60.00" x2="1770" y2="60.00" stroke="#d9e2ec" stroke-dasharray="4 6" stroke-width="1"/>
<text x="70" y="64.00" text-anchor="end" font-size="11" font-family="Consolas, monospace" fill="#52606d">31.62</text>
<line x1="80" y1="850.00" x2="1770" y2="850.00" stroke="#cbd2d9" stroke-width="1"/>
<rect x="180.90" y="264.51" width="50.45" height="55.24" fill="#5dade2" fill-opacity="0.12" stroke="#1f618d" stroke-width="1.2" stroke-dasharray="6 4"/>
<rect x="382.69" y="368.92" width="50.45" height="51.20" fill="#5dade2" fill-opacity="0.12" stroke="#1f618d" stroke-width="1.2" stroke-dasharray="6 4"/>
<rect x="483.58" y="486.81" width="100.90" height="56.58" fill="#5dade2" fill-opacity="0.12" stroke="#1f618d" stroke-width="1.2" stroke-dasharray="6 4"/>
<rect x="609.70" y="393.85" width="50.45" height="51.87" fill="#5dade2" fill-opacity="0.12" stroke="#1f618d" stroke-width="1.2" stroke-dasharray="6 4"/>
<rect x="710.60" y="511.06" width="75.67" height="48.50" fill="#5dade2" fill-opacity="0.12" stroke="#1f618d" stroke-width="1.2" stroke-dasharray="6 4"/>
<rect x="887.16" y="618.84" width="50.45" height="37.05" fill="#5dade2" fill-opacity="0.12" stroke="#1f618d" stroke-width="1.2" stroke-dasharray="6 4"/>
<rect x="1013.28" y="547.43" width="50.45" height="57.93" fill="#5dade2" fill-opacity="0.12" stroke="#1f618d" stroke-width="1.2" stroke-dasharray="6 4"/>
<rect x="1189.85" y="723.92" width="50.45" height="47.15" fill="#5dade2" fill-opacity="0.12" stroke="#1f618d" stroke-width="1.2" stroke-dasharray="6 4"/>
<rect x="1290.75" y="748.17" width="50.45" height="33.01" fill="#5dade2" fill-opacity="0.12" stroke="#1f618d" stroke-width="1.2" stroke-dasharray="6 4"/>
<rect x="1366.42" y="650.50" width="50.45" height="53.89" fill="#5dade2" fill-opacity="0.12" stroke="#1f618d" stroke-width="1.2" stroke-dasharray="6 4"/>
<rect x="1467.31" y="643.09" width="50.45" height="42.44" fill="#5dade2" fill-opacity="0.12" stroke="#1f618d" stroke-width="1.2" stroke-dasharray="6 4"/>
<rect x="1542.99" y="683.50" width="50.45" height="39.74" fill="#5dade2" fill-opacity="0.12" stroke="#1f618d" stroke-width="1.2" stroke-dasharray="6 4"/>
<line x1="92.61" y1="167.51" x2="92.61" y2="333.22" stroke="#c0392b" stroke-width="1.2"/>
<rect x="85.30" y="185.02" width="14.63" height="92.29" fill="#c0392b" stroke="#c0392b" stroke-width="0.8" fill-opacity="0.9"/>
<line x1="117.84" y1="100.82" x2="117.84" y2="216.68" stroke="#1f7a4d" stroke-width="1.2"/>
<rect x="110.52" y="150.67" width="14.63" height="22.23" fill="#1f7a4d" stroke="#1f7a4d" stroke-width="0.8" fill-opacity="0.9"/>
<line x1="143.06" y1="111.60" x2="143.06" y2="232.85" stroke="#c0392b" stroke-width="1.2"/>
<rect x="135.74" y="197.82" width="14.63" height="17.51" fill="#c0392b" stroke="#c0392b" stroke-width="0.8" fill-opacity="0.9"/>
<line x1="168.28" y1="175.59" x2="168.28" y2="249.69" stroke="#c0392b" stroke-width="1.2"/>
<rect x="160.97" y="219.38" width="14.63" height="6.74" fill="#c0392b" stroke="#c0392b" stroke-width="0.8" fill-opacity="0.9"/>
<line x1="193.51" y1="201.19" x2="193.51" y2="319.75" stroke="#1f7a4d" stroke-width="1.2"/>
<rect x="186.19" y="219.38" width="14.63" height="97.68" fill="#1f7a4d" stroke="#1f7a4d" stroke-width="0.8" fill-opacity="0.9"/>
<line x1="218.73" y1="264.51" x2="218.73" y2="317.05" stroke="#c0392b" stroke-width="1.2"/>
<rect x="211.42" y="298.87" width="14.63" height="8.08" fill="#c0392b" stroke="#c0392b" stroke-width="0.8" fill-opacity="0.9"/>
<line x1="243.96" y1="265.86" x2="243.96" y2="385.76" stroke="#1f7a4d" stroke-width="1.2"/>
<rect x="236.64" y="276.64" width="14.63" height="78.81" fill="#1f7a4d" stroke="#1f7a4d" stroke-width="0.8" fill-opacity="0.9"/>
<line x1="269.18" y1="252.39" x2="269.18" y2="375.66" stroke="#c0392b" stroke-width="1.2"/>
<rect x="261.86" y="282.70" width="14.63" height="72.75" fill="#c0392b" stroke="#c0392b" stroke-width="0.8" fill-opacity="0.9"/>
<line x1="294.40" y1="232.85" x2="294.40" y2="316.38" stroke="#1f7a4d" stroke-width="1.2"/>
<rect x="287.09" y="272.59" width="14.63" height="24.25" fill="#1f7a4d" stroke="#1f7a4d" stroke-width="0.8" fill-opacity="0.9"/>
<line x1="319.63" y1="258.45" x2="319.63" y2="348.04" stroke="#1f7a4d" stroke-width="1.2"/>
<rect x="312.31" y="266.53" width="14.63" height="71.40" fill="#1f7a4d" stroke="#1f7a4d" stroke-width="0.8" fill-opacity="0.9"/>
<line x1="344.85" y1="310.32" x2="344.85" y2="384.42" stroke="#1f7a4d" stroke-width="1.2"/>
<rect x="337.54" y="310.99" width="14.63" height="58.61" fill="#1f7a4d" stroke="#1f7a4d" stroke-width="0.8" fill-opacity="0.9"/>
<line x1="370.07" y1="348.71" x2="370.07" y2="407.99" stroke="#1f7a4d" stroke-width="1.2"/>
<rect x="362.76" y="377.01" width="14.63" height="7.41" fill="#1f7a4d" stroke="#1f7a4d" stroke-width="0.8" fill-opacity="0.9"/>
<line x1="395.30" y1="368.92" x2="395.30" y2="416.75" stroke="#1f7a4d" stroke-width="1.2"/>
<rect x="387.98" y="378.35" width="14.63" height="29.64" fill="#1f7a4d" stroke="#1f7a4d" stroke-width="0.8" fill-opacity="0.9"/>
<line x1="420.52" y1="347.37" x2="420.52" y2="420.12" stroke="#c0392b" stroke-width="1.2"/>
<rect x="413.21" y="399.24" width="14.63" height="12.13" fill="#c0392b" stroke="#c0392b" stroke-width="0.8" fill-opacity="0.9"/>
<line x1="445.75" y1="373.64" x2="445.75" y2="432.92" stroke="#1f7a4d" stroke-width="1.2"/>
<rect x="438.43" y="399.24" width="14.63" height="4.04" fill="#1f7a4d" stroke="#1f7a4d" stroke-width="0.8" fill-opacity="0.9"/>
<line x1="470.97" y1="390.48" x2="470.97" y2="472.66" stroke="#1f7a4d" stroke-width="1.2"/>
<rect x="463.66" y="430.22" width="14.63" height="41.09" fill="#1f7a4d" stroke="#1f7a4d" stroke-width="0.8" fill-opacity="0.9"/>
<line x1="496.19" y1="418.10" x2="496.19" y2="531.27" stroke="#1f7a4d" stroke-width="1.2"/>
<rect x="488.88" y="430.90" width="14.63" height="14.15" fill="#1f7a4d" stroke="#1f7a4d" stroke-width="0.8" fill-opacity="0.9"/>
<line x1="521.42" y1="426.18" x2="521.42" y2="503.65" stroke="#1f7a4d" stroke-width="1.2"/>
<rect x="514.10" y="471.31" width="14.63" height="14.82" fill="#1f7a4d" stroke="#1f7a4d" stroke-width="0.8" fill-opacity="0.9"/>
<line x1="546.64" y1="486.81" x2="546.64" y2="513.75" stroke="#1f7a4d" stroke-width="1.2"/>
<rect x="539.33" y="505.67" width="14.63" height="1.35" fill="#1f7a4d" stroke="#1f7a4d" stroke-width="0.8" fill-opacity="0.9"/>
<line x1="571.87" y1="471.99" x2="571.87" y2="543.39" stroke="#c0392b" stroke-width="1.2"/>
<rect x="564.55" y="496.24" width="14.63" height="18.86" fill="#c0392b" stroke="#c0392b" stroke-width="0.8" fill-opacity="0.9"/>
<line x1="597.09" y1="457.17" x2="597.09" y2="487.48" stroke="#c0392b" stroke-width="1.2"/>
<rect x="589.77" y="464.58" width="14.63" height="7.41" fill="#c0392b" stroke="#c0392b" stroke-width="0.8" fill-opacity="0.9"/>
<line x1="622.31" y1="393.85" x2="622.31" y2="478.72" stroke="#c0392b" stroke-width="1.2"/>
<rect x="615.00" y="425.51" width="14.63" height="26.27" fill="#c0392b" stroke="#c0392b" stroke-width="0.8" fill-opacity="0.9"/>
<line x1="647.54" y1="413.38" x2="647.54" y2="445.72" stroke="#1f7a4d" stroke-width="1.2"/>
<rect x="640.22" y="424.83" width="14.63" height="15.49" fill="#1f7a4d" stroke="#1f7a4d" stroke-width="0.8" fill-opacity="0.9"/>
<line x1="672.76" y1="418.10" x2="672.76" y2="465.25" stroke="#c0392b" stroke-width="1.2"/>
<rect x="665.45" y="432.92" width="14.63" height="18.86" fill="#c0392b" stroke="#c0392b" stroke-width="0.8" fill-opacity="0.9"/>
<line x1="697.99" y1="439.65" x2="697.99" y2="494.89" stroke="#1f7a4d" stroke-width="1.2"/>
<rect x="690.67" y="445.04" width="14.63" height="48.50" fill="#1f7a4d" stroke="#1f7a4d" stroke-width="0.8" fill-opacity="0.9"/>
<line x1="723.21" y1="470.64" x2="723.21" y2="543.39" stroke="#1f7a4d" stroke-width="1.2"/>
<rect x="715.89" y="474.68" width="14.63" height="49.85" fill="#1f7a4d" stroke="#1f7a4d" stroke-width="0.8" fill-opacity="0.9"/>
<line x1="748.43" y1="511.06" x2="748.43" y2="531.27" stroke="#c0392b" stroke-width="1.2"/>
<rect x="741.12" y="514.42" width="14.63" height="10.10" fill="#c0392b" stroke="#c0392b" stroke-width="0.8" fill-opacity="0.9"/>
<line x1="773.66" y1="506.34" x2="773.66" y2="559.56" stroke="#1f7a4d" stroke-width="1.2"/>
<rect x="766.34" y="510.38" width="14.63" height="43.11" fill="#1f7a4d" stroke="#1f7a4d" stroke-width="0.8" fill-opacity="0.9"/>
<line x1="798.88" y1="534.63" x2="798.88" y2="564.95" stroke="#c0392b" stroke-width="1.2"/>
<rect x="791.57" y="539.35" width="14.63" height="14.15" fill="#c0392b" stroke="#c0392b" stroke-width="0.8" fill-opacity="0.9"/>
<line x1="824.10" y1="552.82" x2="824.10" y2="603.34" stroke="#1f7a4d" stroke-width="1.2"/>
<rect x="816.79" y="571.01" width="14.63" height="16.17" fill="#1f7a4d" stroke="#1f7a4d" stroke-width="0.8" fill-opacity="0.9"/>
<line x1="849.33" y1="577.07" x2="849.33" y2="659.25" stroke="#1f7a4d" stroke-width="1.2"/>
<rect x="842.01" y="583.81" width="14.63" height="72.08" fill="#1f7a4d" stroke="#1f7a4d" stroke-width="0.8" fill-opacity="0.9"/>
<line x1="874.55" y1="647.80" x2="874.55" y2="686.87" stroke="#1f7a4d" stroke-width="1.2"/>
<rect x="867.24" y="667.34" width="14.63" height="8.76" fill="#1f7a4d" stroke="#1f7a4d" stroke-width="0.8" fill-opacity="0.9"/>
<line x1="899.78" y1="618.84" x2="899.78" y2="669.36" stroke="#c0392b" stroke-width="1.2"/>
<rect x="892.46" y="638.37" width="14.63" height="9.43" fill="#c0392b" stroke="#c0392b" stroke-width="0.8" fill-opacity="0.9"/>
<line x1="925.00" y1="635.68" x2="925.00" y2="655.89" stroke="#c0392b" stroke-width="1.2"/>
<rect x="917.69" y="635.68" width="14.63" height="14.82" fill="#c0392b" stroke="#c0392b" stroke-width="0.8" fill-opacity="0.9"/>
<line x1="950.22" y1="621.53" x2="950.22" y2="689.57" stroke="#c0392b" stroke-width="1.2"/>
<rect x="942.91" y="632.98" width="14.63" height="49.17" fill="#c0392b" stroke="#c0392b" stroke-width="0.8" fill-opacity="0.9"/>
<line x1="975.45" y1="604.02" x2="975.45" y2="631.63" stroke="#c0392b" stroke-width="1.2"/>
<rect x="968.13" y="608.06" width="14.63" height="1.20" fill="#c0392b" stroke="#c0392b" stroke-width="0.8" fill-opacity="0.9"/>
<line x1="1000.67" y1="567.64" x2="1000.67" y2="608.06" stroke="#c0392b" stroke-width="1.2"/>
<rect x="993.36" y="590.54" width="14.63" height="17.51" fill="#c0392b" stroke="#c0392b" stroke-width="0.8" fill-opacity="0.9"/>
<line x1="1025.90" y1="562.93" x2="1025.90" y2="605.36" stroke="#c0392b" stroke-width="1.2"/>
<rect x="1018.58" y="593.24" width="14.63" height="4.72" fill="#c0392b" stroke="#c0392b" stroke-width="0.8" fill-opacity="0.9"/>
<line x1="1051.12" y1="547.43" x2="1051.12" y2="614.79" stroke="#1f7a4d" stroke-width="1.2"/>
<rect x="1043.80" y="565.62" width="14.63" height="38.40" fill="#1f7a4d" stroke="#1f7a4d" stroke-width="0.8" fill-opacity="0.9"/>
<line x1="1076.34" y1="575.72" x2="1076.34" y2="639.72" stroke="#1f7a4d" stroke-width="1.2"/>
<rect x="1069.03" y="605.36" width="14.63" height="4.72" fill="#1f7a4d" stroke="#1f7a4d" stroke-width="0.8" fill-opacity="0.9"/>
<line x1="1101.57" y1="547.43" x2="1101.57" y2="612.77" stroke="#c0392b" stroke-width="1.2"/>
<rect x="1094.25" y="579.77" width="14.63" height="18.86" fill="#c0392b" stroke="#c0392b" stroke-width="0.8" fill-opacity="0.9"/>
<line x1="1126.79" y1="571.68" x2="1126.79" y2="615.47" stroke="#c0392b" stroke-width="1.2"/>
<rect x="1119.48" y="589.20" width="14.63" height="2.02" fill="#c0392b" stroke="#c0392b" stroke-width="0.8" fill-opacity="0.9"/>
<line x1="1152.01" y1="613.45" x2="1152.01" y2="656.56" stroke="#1f7a4d" stroke-width="1.2"/>
<rect x="1144.70" y="614.79" width="14.63" height="35.03" fill="#1f7a4d" stroke="#1f7a4d" stroke-width="0.8" fill-opacity="0.9"/>
<line x1="1177.24" y1="637.70" x2="1177.24" y2="684.18" stroke="#1f7a4d" stroke-width="1.2"/>
<rect x="1169.92" y="653.19" width="14.63" height="26.27" fill="#1f7a4d" stroke="#1f7a4d" stroke-width="0.8" fill-opacity="0.9"/>
<line x1="1202.46" y1="706.41" x2="1202.46" y2="771.07" stroke="#1f7a4d" stroke-width="1.2"/>
<rect x="1195.15" y="714.49" width="14.63" height="45.13" fill="#1f7a4d" stroke="#1f7a4d" stroke-width="0.8" fill-opacity="0.9"/>
<line x1="1227.69" y1="723.92" x2="1227.69" y2="770.40" stroke="#1f7a4d" stroke-width="1.2"/>
<rect x="1220.37" y="729.31" width="14.63" height="14.82" fill="#1f7a4d" stroke="#1f7a4d" stroke-width="0.8" fill-opacity="0.9"/>
<line x1="1252.91" y1="713.14" x2="1252.91" y2="738.74" stroke="#c0392b" stroke-width="1.2"/>
<rect x="1245.60" y="717.18" width="14.63" height="14.15" fill="#c0392b" stroke="#c0392b" stroke-width="0.8" fill-opacity="0.9"/>
<line x1="1278.13" y1="720.55" x2="1278.13" y2="761.64" stroke="#1f7a4d" stroke-width="1.2"/>
<rect x="1270.82" y="720.55" width="14.63" height="34.35" fill="#1f7a4d" stroke="#1f7a4d" stroke-width="0.8" fill-opacity="0.9"/>
<line x1="1303.36" y1="727.96" x2="1303.36" y2="781.18" stroke="#c0392b" stroke-width="1.2"/>
<rect x="1296.04" y="735.37" width="14.63" height="39.74" fill="#c0392b" stroke="#c0392b" stroke-width="0.8" fill-opacity="0.9"/>
<line x1="1328.58" y1="748.17" x2="1328.58" y2="775.12" stroke="#c0392b" stroke-width="1.2"/>
<rect x="1321.27" y="750.19" width="14.63" height="11.45" fill="#c0392b" stroke="#c0392b" stroke-width="0.8" fill-opacity="0.9"/>
<line x1="1353.81" y1="721.23" x2="1353.81" y2="756.93" stroke="#c0392b" stroke-width="1.2"/>
<rect x="1346.49" y="747.50" width="14.63" height="4.04" fill="#c0392b" stroke="#c0392b" stroke-width="0.8" fill-opacity="0.9"/>
<line x1="1379.03" y1="650.50" x2="1379.03" y2="732.00" stroke="#c0392b" stroke-width="1.2"/>
<rect x="1371.71" y="655.21" width="14.63" height="64.67" fill="#c0392b" stroke="#c0392b" stroke-width="0.8" fill-opacity="0.9"/>
<line x1="1404.25" y1="666.66" x2="1404.25" y2="704.39" stroke="#1f7a4d" stroke-width="1.2"/>
<rect x="1396.94" y="674.07" width="14.63" height="20.21" fill="#1f7a4d" stroke="#1f7a4d" stroke-width="0.8" fill-opacity="0.9"/>
<line x1="1429.48" y1="682.16" x2="1429.48" y2="730.66" stroke="#1f7a4d" stroke-width="1.2"/>
<rect x="1422.16" y="687.55" width="14.63" height="39.07" fill="#1f7a4d" stroke="#1f7a4d" stroke-width="0.8" fill-opacity="0.9"/>
<line x1="1454.70" y1="709.77" x2="1454.70" y2="740.76" stroke="#1f7a4d" stroke-width="1.2"/>
<rect x="1447.39" y="719.88" width="14.63" height="11.45" fill="#1f7a4d" stroke="#1f7a4d" stroke-width="0.8" fill-opacity="0.9"/>
<line x1="1479.93" y1="643.09" x2="1479.93" y2="691.59" stroke="#c0392b" stroke-width="1.2"/>
<rect x="1472.61" y="644.43" width="14.63" height="43.11" fill="#c0392b" stroke="#c0392b" stroke-width="0.8" fill-opacity="0.9"/>
<line x1="1505.15" y1="668.01" x2="1505.15" y2="685.52" stroke="#1f7a4d" stroke-width="1.2"/>
<rect x="1497.83" y="668.01" width="14.63" height="11.45" fill="#1f7a4d" stroke="#1f7a4d" stroke-width="0.8" fill-opacity="0.9"/>
<line x1="1530.37" y1="630.96" x2="1530.37" y2="670.70" stroke="#c0392b" stroke-width="1.2"/>
<rect x="1523.06" y="651.84" width="14.63" height="18.86" fill="#c0392b" stroke="#c0392b" stroke-width="0.8" fill-opacity="0.9"/>
<line x1="1555.60" y1="662.62" x2="1555.60" y2="723.25" stroke="#1f7a4d" stroke-width="1.2"/>
<rect x="1548.28" y="668.01" width="14.63" height="44.46" fill="#1f7a4d" stroke="#1f7a4d" stroke-width="0.8" fill-opacity="0.9"/>
<line x1="1580.82" y1="683.50" x2="1580.82" y2="705.73" stroke="#1f7a4d" stroke-width="1.2"/>
<rect x="1573.51" y="686.20" width="14.63" height="6.74" fill="#1f7a4d" stroke="#1f7a4d" stroke-width="0.8" fill-opacity="0.9"/>
<line x1="1606.04" y1="631.63" x2="1606.04" y2="673.40" stroke="#c0392b" stroke-width="1.2"/>
<rect x="1598.73" y="665.99" width="14.63" height="7.41" fill="#c0392b" stroke="#c0392b" stroke-width="0.8" fill-opacity="0.9"/>
<line x1="1631.27" y1="614.79" x2="1631.27" y2="666.66" stroke="#c0392b" stroke-width="1.2"/>
<rect x="1623.95" y="620.86" width="14.63" height="34.35" fill="#c0392b" stroke="#c0392b" stroke-width="0.8" fill-opacity="0.9"/>
<line x1="1656.49" y1="674.07" x2="1656.49" y2="713.82" stroke="#1f7a4d" stroke-width="1.2"/>
<rect x="1649.18" y="680.81" width="14.63" height="12.80" fill="#1f7a4d" stroke="#1f7a4d" stroke-width="0.8" fill-opacity="0.9"/>
<line x1="1681.72" y1="693.61" x2="1681.72" y2="727.96" stroke="#1f7a4d" stroke-width="1.2"/>
<rect x="1674.40" y="694.28" width="14.63" height="23.58" fill="#1f7a4d" stroke="#1f7a4d" stroke-width="0.8" fill-opacity="0.9"/>
<line x1="1706.94" y1="694.96" x2="1706.94" y2="727.96" stroke="#c0392b" stroke-width="1.2"/>
<rect x="1699.63" y="713.14" width="14.63" height="11.45" fill="#c0392b" stroke="#c0392b" stroke-width="0.8" fill-opacity="0.9"/>
<line x1="1732.16" y1="707.75" x2="1732.16" y2="744.80" stroke="#1f7a4d" stroke-width="1.2"/>
<rect x="1724.85" y="726.62" width="14.63" height="6.06" fill="#1f7a4d" stroke="#1f7a4d" stroke-width="0.8" fill-opacity="0.9"/>
<line x1="1757.39" y1="731.33" x2="1757.39" y2="760.97" stroke="#1f7a4d" stroke-width="1.2"/>
<rect x="1750.07" y="741.43" width="14.63" height="13.47" fill="#1f7a4d" stroke="#1f7a4d" stroke-width="0.8" fill-opacity="0.9"/>
<line x1="80" y1="945.00" x2="1770" y2="945.00" stroke="#94a3b8" stroke-dasharray="4 4" stroke-width="1"/>
<line x1="80" y1="1024.80" x2="1770" y2="1024.80" stroke="#e5e7eb" stroke-dasharray="3 5" stroke-width="1"/>
<text x="70" y="1028.80" text-anchor="end" font-size="11" font-family="Consolas, monospace" fill="#52606d">-1.22</text>
<line x1="80" y1="984.90" x2="1770" y2="984.90" stroke="#e5e7eb" stroke-dasharray="3 5" stroke-width="1"/>
<text x="70" y="988.90" text-anchor="end" font-size="11" font-family="Consolas, monospace" fill="#52606d">-0.61</text>
<line x1="80" y1="905.10" x2="1770" y2="905.10" stroke="#e5e7eb" stroke-dasharray="3 5" stroke-width="1"/>
<text x="70" y="909.10" text-anchor="end" font-size="11" font-family="Consolas, monospace" fill="#52606d">0.61</text>
<line x1="80" y1="865.20" x2="1770" y2="865.20" stroke="#e5e7eb" stroke-dasharray="3 5" stroke-width="1"/>
<text x="70" y="869.20" text-anchor="end" font-size="11" font-family="Consolas, monospace" fill="#52606d">1.22</text>
<rect x="86.76" y="945.00" width="11.70" height="1.00" fill="#ef4444" fill-opacity="0.72"/>
<rect x="111.98" y="943.50" width="11.70" height="1.50" fill="#ef4444" fill-opacity="0.72"/>
<rect x="137.21" y="945.00" width="11.70" height="1.00" fill="#22c55e" fill-opacity="0.72"/>
<rect x="162.43" y="945.00" width="11.70" height="4.75" fill="#22c55e" fill-opacity="0.72"/>
<rect x="187.66" y="945.00" width="11.70" height="19.08" fill="#22c55e" fill-opacity="0.72"/>
<rect x="212.88" y="945.00" width="11.70" height="24.77" fill="#22c55e" fill-opacity="0.72"/>
<rect x="238.10" y="945.00" width="11.70" height="33.92" fill="#22c55e" fill-opacity="0.72"/>
<rect x="263.33" y="945.00" width="11.70" height="28.70" fill="#22c55e" fill-opacity="0.72"/>
<rect x="288.55" y="945.00" width="11.70" height="25.41" fill="#22c55e" fill-opacity="0.72"/>
<rect x="313.77" y="945.00" width="11.70" height="26.80" fill="#22c55e" fill-opacity="0.72"/>
<rect x="339.00" y="945.00" width="11.70" height="29.80" fill="#22c55e" fill-opacity="0.72"/>
<rect x="364.22" y="945.00" width="11.70" height="31.51" fill="#22c55e" fill-opacity="0.72"/>
<rect x="389.45" y="945.00" width="11.70" height="33.34" fill="#22c55e" fill-opacity="0.72"/>
<rect x="414.67" y="945.00" width="11.70" height="31.07" fill="#22c55e" fill-opacity="0.72"/>
<rect x="439.89" y="945.00" width="11.70" height="27.86" fill="#22c55e" fill-opacity="0.72"/>
<rect x="465.12" y="945.00" width="11.70" height="32.07" fill="#22c55e" fill-opacity="0.72"/>
<rect x="490.34" y="945.00" width="11.70" height="28.99" fill="#22c55e" fill-opacity="0.72"/>
<rect x="515.57" y="945.00" width="11.70" height="29.76" fill="#22c55e" fill-opacity="0.72"/>
<rect x="540.79" y="945.00" width="11.70" height="30.34" fill="#22c55e" fill-opacity="0.72"/>
<rect x="566.01" y="945.00" width="11.70" height="26.78" fill="#22c55e" fill-opacity="0.72"/>
<rect x="591.24" y="945.00" width="11.70" height="18.17" fill="#22c55e" fill-opacity="0.72"/>
<rect x="616.46" y="945.00" width="11.70" height="5.90" fill="#22c55e" fill-opacity="0.72"/>
<rect x="641.69" y="943.61" width="11.70" height="1.39" fill="#ef4444" fill-opacity="0.72"/>
<rect x="666.91" y="937.10" width="11.70" height="7.90" fill="#ef4444" fill-opacity="0.72"/>
<rect x="692.13" y="939.83" width="11.70" height="5.17" fill="#ef4444" fill-opacity="0.72"/>
<rect x="717.36" y="944.56" width="11.70" height="1.00" fill="#ef4444" fill-opacity="0.72"/>
<rect x="742.58" y="945.00" width="11.70" height="1.00" fill="#22c55e" fill-opacity="0.72"/>
<rect x="767.80" y="945.00" width="11.70" height="4.37" fill="#22c55e" fill-opacity="0.72"/>
<rect x="793.03" y="945.00" width="11.70" height="3.91" fill="#22c55e" fill-opacity="0.72"/>
<rect x="818.25" y="945.00" width="11.70" height="8.23" fill="#22c55e" fill-opacity="0.72"/>
<rect x="843.48" y="945.00" width="11.70" height="17.88" fill="#22c55e" fill-opacity="0.72"/>
<rect x="868.70" y="945.00" width="11.70" height="24.33" fill="#22c55e" fill-opacity="0.72"/>
<rect x="893.92" y="945.00" width="11.70" height="21.22" fill="#22c55e" fill-opacity="0.72"/>
<rect x="919.15" y="945.00" width="11.70" height="16.57" fill="#22c55e" fill-opacity="0.72"/>
<rect x="944.37" y="945.00" width="11.70" height="11.15" fill="#22c55e" fill-opacity="0.72"/>
<rect x="969.60" y="945.00" width="11.70" height="2.76" fill="#22c55e" fill-opacity="0.72"/>
<rect x="994.82" y="938.87" width="11.70" height="6.13" fill="#ef4444" fill-opacity="0.72"/>
<rect x="1020.04" y="932.63" width="11.70" height="12.37" fill="#ef4444" fill-opacity="0.72"/>
<rect x="1045.27" y="929.41" width="11.70" height="15.59" fill="#ef4444" fill-opacity="0.72"/>
<rect x="1070.49" y="927.71" width="11.70" height="17.29" fill="#ef4444" fill-opacity="0.72"/>
<rect x="1095.72" y="922.58" width="11.70" height="22.42" fill="#ef4444" fill-opacity="0.72"/>
<rect x="1120.94" y="920.55" width="11.70" height="24.45" fill="#ef4444" fill-opacity="0.72"/>
<rect x="1146.16" y="926.95" width="11.70" height="18.05" fill="#ef4444" fill-opacity="0.72"/>
<rect x="1171.39" y="934.50" width="11.70" height="10.50" fill="#ef4444" fill-opacity="0.72"/>
<rect x="1196.61" y="945.00" width="11.70" height="3.65" fill="#22c55e" fill-opacity="0.72"/>
<rect x="1221.83" y="945.00" width="11.70" height="9.36" fill="#22c55e" fill-opacity="0.72"/>
<rect x="1247.06" y="945.00" width="11.70" height="8.05" fill="#22c55e" fill-opacity="0.72"/>
<rect x="1272.28" y="945.00" width="11.70" height="10.38" fill="#22c55e" fill-opacity="0.72"/>
<rect x="1297.51" y="945.00" width="11.70" height="7.76" fill="#22c55e" fill-opacity="0.72"/>
<rect x="1322.73" y="945.00" width="11.70" height="6.42" fill="#22c55e" fill-opacity="0.72"/>
<rect x="1347.95" y="945.00" width="11.70" height="3.76" fill="#22c55e" fill-opacity="0.72"/>
<rect x="1373.18" y="934.34" width="11.70" height="10.66" fill="#ef4444" fill-opacity="0.72"/>
<rect x="1398.40" y="929.55" width="11.70" height="15.45" fill="#ef4444" fill-opacity="0.72"/>
<rect x="1423.63" y="930.27" width="11.70" height="14.73" fill="#ef4444" fill-opacity="0.72"/>
<rect x="1448.85" y="931.01" width="11.70" height="13.99" fill="#ef4444" fill-opacity="0.72"/>
<rect x="1474.07" y="920.43" width="11.70" height="24.57" fill="#ef4444" fill-opacity="0.72"/>
<rect x="1499.30" y="918.45" width="11.70" height="26.55" fill="#ef4444" fill-opacity="0.72"/>
<rect x="1524.52" y="914.27" width="11.70" height="30.73" fill="#ef4444" fill-opacity="0.72"/>
<rect x="1549.75" y="919.92" width="11.70" height="25.08" fill="#ef4444" fill-opacity="0.72"/>
<rect x="1574.97" y="921.57" width="11.70" height="23.43" fill="#ef4444" fill-opacity="0.72"/>
<rect x="1600.19" y="919.77" width="11.70" height="25.23" fill="#ef4444" fill-opacity="0.72"/>
<rect x="1625.42" y="913.71" width="11.70" height="31.29" fill="#ef4444" fill-opacity="0.72"/>
<rect x="1650.64" y="919.94" width="11.70" height="25.06" fill="#ef4444" fill-opacity="0.72"/>
<rect x="1675.86" y="927.61" width="11.70" height="17.39" fill="#ef4444" fill-opacity="0.72"/>
<rect x="1701.09" y="932.24" width="11.70" height="12.76" fill="#ef4444" fill-opacity="0.72"/>
<rect x="1726.31" y="937.75" width="11.70" height="7.25" fill="#ef4444" fill-opacity="0.72"/>
<rect x="1751.54" y="943.87" width="11.70" height="1.13" fill="#ef4444" fill-opacity="0.72"/>
<path d="M92.61,945.00 L117.84,944.06 L143.06,945.27 L168.28,947.87 L193.51,957.42 L218.73,963.36 L243.96,972.18 L269.18,973.15 L294.40,974.69 L319.63,978.73 L344.85,983.96 L370.07,988.75 L395.30,993.83 L420.52,996.58 L445.75,998.46 L470.97,1004.57 L496.19,1006.66 L521.42,1010.76 L546.64,1014.84 L571.87,1016.41 L597.09,1014.38 L622.31,1008.98 L647.54,1005.16 L672.76,1000.92 L697.99,1001.63 L723.21,1003.95 L748.43,1004.31 L773.66,1006.93 L798.88,1007.19 L824.10,1010.37 L849.33,1017.43 L874.55,1023.70 L899.78,1024.80 L925.00,1024.54 L950.22,1023.23 L975.45,1019.38 L1000.67,1014.17 L1025.90,1009.50 L1051.12,1005.94 L1076.34,1002.93 L1101.57,997.56 L1126.79,993.49 L1152.01,994.43 L1177.24,996.90 L1202.46,1004.43 L1227.69,1008.45 L1252.91,1008.80 L1278.13,1011.26 L1303.36,1010.93 L1328.58,1011.06 L1353.81,1010.20 L1379.03,1001.65 L1404.25,997.33 L1429.48,995.85 L1454.70,994.47 L1479.93,986.11 L1505.15,981.80 L1530.37,975.87 L1555.60,975.56 L1580.82,973.45 L1606.04,969.40 L1631.27,962.46 L1656.49,962.44 L1681.72,964.10 L1706.94,964.82 L1732.16,966.67 L1757.39,969.59" fill="none" stroke="#2563eb" stroke-width="1.8"/>
<path d="M92.61,945.00 L117.84,944.81 L143.06,944.90 L168.28,945.50 L193.51,947.88 L218.73,950.98 L243.96,955.22 L269.18,958.80 L294.40,961.98 L319.63,965.33 L344.85,969.06 L370.07,972.99 L395.30,977.16 L420.52,981.05 L445.75,984.53 L470.97,988.54 L496.19,992.16 L521.42,995.88 L546.64,999.67 L571.87,1003.02 L597.09,1005.29 L622.31,1006.03 L647.54,1005.86 L672.76,1004.87 L697.99,1004.22 L723.21,1004.17 L748.43,1004.19 L773.66,1004.74 L798.88,1005.23 L824.10,1006.26 L849.33,1008.49 L874.55,1011.54 L899.78,1014.19 L925.00,1016.26 L950.22,1017.65 L975.45,1018.00 L1000.67,1017.23 L1025.90,1015.69 L1051.12,1013.74 L1076.34,1011.57 L1101.57,1008.77 L1126.79,1005.72 L1152.01,1003.46 L1177.24,1002.15 L1202.46,1002.60 L1227.69,1003.77 L1252.91,1004.78 L1278.13,1006.08 L1303.36,1007.05 L1328.58,1007.85 L1353.81,1008.32 L1379.03,1006.99 L1404.25,1005.06 L1429.48,1003.21 L1454.70,1001.46 L1479.93,998.39 L1505.15,995.08 L1530.37,991.23 L1555.60,988.10 L1580.82,985.17 L1606.04,982.02 L1631.27,978.10 L1656.49,974.97 L1681.72,972.80 L1706.94,971.20 L1732.16,970.30 L1757.39,970.16" fill="none" stroke="#f59e0b" stroke-width="1.8"/>
<text x="80" y="842.00" font-size="13" font-family="Segoe UI, Arial, sans-serif" fill="#334155">MACD (12, 26, 9)</text>
<polygon points="110.84,90.82 124.84,90.82 117.84,108.82" fill="#e74c3c" stroke="#e74c3c" stroke-width="1"/>
<polygon points="1296.36,791.18 1310.36,791.18 1303.36,773.18" fill="#27ae60" stroke="#27ae60" stroke-width="1"/>
<line x1="117.84" y1="100.82" x2="1303.36" y2="781.18" stroke="#d68910" stroke-width="2.2"/>
<line x1="1303.36" y1="781.18" x2="1631.27" y2="614.79" stroke="#2874a6" stroke-width="1.5" stroke-dasharray="5 5"/>
<line x1="1454.70" y1="740.76" x2="1631.27" y2="614.79" stroke="#2874a6" stroke-width="1.5" stroke-dasharray="5 5"/>
<line x1="92.61" y1="1040.00" x2="92.61" y2="1046.00" stroke="#7b8794" stroke-width="1"/>
<text x="92.61" y="1064.00" text-anchor="middle" font-size="10" font-family="Consolas, monospace" fill="#52606d">01-12 00:00</text>
<line x1="243.96" y1="1040.00" x2="243.96" y2="1046.00" stroke="#7b8794" stroke-width="1"/>
<text x="243.96" y="1064.00" text-anchor="middle" font-size="10" font-family="Consolas, monospace" fill="#52606d">01-20 00:00</text>
<line x1="395.30" y1="1040.00" x2="395.30" y2="1046.00" stroke="#7b8794" stroke-width="1"/>
<text x="395.30" y="1064.00" text-anchor="middle" font-size="10" font-family="Consolas, monospace" fill="#52606d">01-28 00:00</text>
<line x1="546.64" y1="1040.00" x2="546.64" y2="1046.00" stroke="#7b8794" stroke-width="1"/>
<text x="546.64" y="1064.00" text-anchor="middle" font-size="10" font-family="Consolas, monospace" fill="#52606d">02-05 00:00</text>
<line x1="697.99" y1="1040.00" x2="697.99" y2="1046.00" stroke="#7b8794" stroke-width="1"/>
<text x="697.99" y="1064.00" text-anchor="middle" font-size="10" font-family="Consolas, monospace" fill="#52606d">02-13 00:00</text>
<line x1="849.33" y1="1040.00" x2="849.33" y2="1046.00" stroke="#7b8794" stroke-width="1"/>
<text x="849.33" y="1064.00" text-anchor="middle" font-size="10" font-family="Consolas, monospace" fill="#52606d">03-03 00:00</text>
<line x1="1000.67" y1="1040.00" x2="1000.67" y2="1046.00" stroke="#7b8794" stroke-width="1"/>
<text x="1000.67" y="1064.00" text-anchor="middle" font-size="10" font-family="Consolas, monospace" fill="#52606d">03-11 00:00</text>
<line x1="1152.01" y1="1040.00" x2="1152.01" y2="1046.00" stroke="#7b8794" stroke-width="1"/>
<text x="1152.01" y="1064.00" text-anchor="middle" font-size="10" font-family="Consolas, monospace" fill="#52606d">03-19 00:00</text>
<line x1="1303.36" y1="1040.00" x2="1303.36" y2="1046.00" stroke="#7b8794" stroke-width="1"/>
<text x="1303.36" y="1064.00" text-anchor="middle" font-size="10" font-family="Consolas, monospace" fill="#52606d">03-27 00:00</text>
<line x1="1454.70" y1="1040.00" x2="1454.70" y2="1046.00" stroke="#7b8794" stroke-width="1"/>
<text x="1454.70" y="1064.00" text-anchor="middle" font-size="10" font-family="Consolas, monospace" fill="#52606d">04-07 00:00</text>
<line x1="1606.04" y1="1040.00" x2="1606.04" y2="1046.00" stroke="#7b8794" stroke-width="1"/>
<text x="1606.04" y="1064.00" text-anchor="middle" font-size="10" font-family="Consolas, monospace" fill="#52606d">04-15 00:00</text>
<line x1="1757.39" y1="1040.00" x2="1757.39" y2="1046.00" stroke="#7b8794" stroke-width="1"/>
<text x="1757.39" y="1064.00" text-anchor="middle" font-size="10" font-family="Consolas, monospace" fill="#52606d">04-23 00:00</text>
<rect x="1520" y="74" width="240" height="146" rx="8" fill="#ffffff" stroke="#d9e2ec"/>
<rect x="1532" y="88" width="22" height="12" fill="#5dade2" fill-opacity="0.12" stroke="#1f618d" stroke-dasharray="6 4"/>
<text x="1564" y="98" font-size="12" font-family="Segoe UI, Arial, sans-serif" fill="#1f2d3d">Inclusion box</text>
<rect x="1532" y="108" width="22" height="12" fill="#f5b041" fill-opacity="0.18" stroke="#b9770e"/>
<text x="1564" y="118" font-size="12" font-family="Segoe UI, Arial, sans-serif" fill="#1f2d3d">Bi zhongshu</text>
<line x1="1532" y1="136" x2="1554" y2="136" stroke="#2874a6" stroke-width="2.2"/>
<text x="1564" y="140" font-size="12" font-family="Segoe UI, Arial, sans-serif" fill="#1f2d3d">Confirmed bi</text>
<line x1="1532" y1="154" x2="1554" y2="154" stroke="#d68910" stroke-width="1.5" stroke-dasharray="5 5"/>
<text x="1564" y="158" font-size="12" font-family="Segoe UI, Arial, sans-serif" fill="#1f2d3d">Unconfirmed bi</text>
<rect x="1532" y="170" width="22" height="12" fill="#ef4444" fill-opacity="0.72"/>
<text x="1564" y="180" font-size="12" font-family="Segoe UI, Arial, sans-serif" fill="#1f2d3d">MACD histogram+</text>
<rect x="1532" y="188" width="22" height="12" fill="#22c55e" fill-opacity="0.72"/>
<text x="1564" y="198" font-size="12" font-family="Segoe UI, Arial, sans-serif" fill="#1f2d3d">MACD histogram-</text>
<line x1="1532" y1="212" x2="1554" y2="212" stroke="#2563eb" stroke-width="1.8"/>
<text x="1564" y="216" font-size="12" font-family="Segoe UI, Arial, sans-serif" fill="#1f2d3d">DIF / DEA</text>
</svg>