<svg xmlns="http://www.w3.org/2000/svg" width="1800" height="1120" viewBox="0 0 1800 1120">
<rect width="100%" height="100%" fill="#fbfcfe"/>
<text x="900.0" y="34" text-anchor="middle" font-size="24" font-family="Segoe UI, Arial, sans-serif" fill="#1f2d3d">002555 三七互娱 日线 缠论结构图</text>
<line x1="80" y1="822.00" x2="1770" y2="822.00" stroke="#d9e2ec" stroke-dasharray="4 6" stroke-width="1"/>
<text x="70" y="826.00" text-anchor="end" font-size="11" font-family="Consolas, monospace" fill="#52606d">20.30</text>
<line x1="80" y1="669.60" x2="1770" y2="669.60" stroke="#d9e2ec" stroke-dasharray="4 6" stroke-width="1"/>
<text x="70" y="673.60" text-anchor="end" font-size="11" font-family="Consolas, monospace" fill="#52606d">22.57</text>
<line x1="80" y1="517.20" x2="1770" y2="517.20" stroke="#d9e2ec" stroke-dasharray="4 6" stroke-width="1"/>
<text x="70" y="521.20" text-anchor="end" font-size="11" font-family="Consolas, monospace" fill="#52606d">24.83</text>
<line x1="80" y1="364.80" x2="1770" y2="364.80" stroke="#d9e2ec" stroke-dasharray="4 6" stroke-width="1"/>
<text x="70" y="368.80" text-anchor="end" font-size="11" font-family="Consolas, monospace" fill="#52606d">27.09</text>
<line x1="80" y1="212.40" x2="1770" y2="212.40" stroke="#d9e2ec" stroke-dasharray="4 6" stroke-width="1"/>
<text x="70" y="216.40" text-anchor="end" font-size="11" font-family="Consolas, monospace" fill="#52606d">29.35</text>
<line x1="80" y1="60.00" x2="1770" y2="60.00" stroke="#d9e2ec" stroke-dasharray="4 6" stroke-width="1"/>
<text x="70" y="64.00" text-anchor="end" font-size="11" font-family="Consolas, monospace" fill="#52606d">31.62</text>
<line x1="80" y1="850.00" x2="1770" y2="850.00" stroke="#cbd2d9" stroke-width="1"/>
<rect x="196.55" y="264.51" width="58.28" height="55.24" fill="#5dade2" fill-opacity="0.12" stroke="#1f618d" stroke-width="1.2" stroke-dasharray="6 4"/>
<rect x="429.66" y="368.92" width="58.28" height="51.20" fill="#5dade2" fill-opacity="0.12" stroke="#1f618d" stroke-width="1.2" stroke-dasharray="6 4"/>
<rect x="546.21" y="486.81" width="116.55" height="56.58" fill="#5dade2" fill-opacity="0.12" stroke="#1f618d" stroke-width="1.2" stroke-dasharray="6 4"/>
<rect x="691.90" y="393.85" width="58.28" height="51.87" fill="#5dade2" fill-opacity="0.12" stroke="#1f618d" stroke-width="1.2" stroke-dasharray="6 4"/>
<rect x="808.45" y="511.06" width="87.41" height="48.50" fill="#5dade2" fill-opacity="0.12" stroke="#1f618d" stroke-width="1.2" stroke-dasharray="6 4"/>
<rect x="1012.41" y="618.84" width="58.28" height="37.05" fill="#5dade2" fill-opacity="0.12" stroke="#1f618d" stroke-width="1.2" stroke-dasharray="6 4"/>
<rect x="1158.10" y="547.43" width="58.28" height="57.93" fill="#5dade2" fill-opacity="0.12" stroke="#1f618d" stroke-width="1.2" stroke-dasharray="6 4"/>
<rect x="1362.07" y="723.92" width="58.28" height="47.15" fill="#5dade2" fill-opacity="0.12" stroke="#1f618d" stroke-width="1.2" stroke-dasharray="6 4"/>
<rect x="1478.62" y="748.17" width="58.28" height="33.01" fill="#5dade2" fill-opacity="0.12" stroke="#1f618d" stroke-width="1.2" stroke-dasharray="6 4"/>
<rect x="1566.03" y="650.50" width="58.28" height="53.89" fill="#5dade2" fill-opacity="0.12" stroke="#1f618d" stroke-width="1.2" stroke-dasharray="6 4"/>
<rect x="1682.59" y="643.09" width="58.28" height="42.44" fill="#5dade2" fill-opacity="0.12" stroke="#1f618d" stroke-width="1.2" stroke-dasharray="6 4"/>
<line x1="94.57" y1="167.51" x2="94.57" y2="333.22" stroke="#c0392b" stroke-width="1.2"/>
<rect x="86.12" y="185.02" width="16.90" height="92.29" fill="#c0392b" stroke="#c0392b" stroke-width="0.8" fill-opacity="0.9"/>
<line x1="123.71" y1="100.82" x2="123.71" y2="216.68" stroke="#1f7a4d" stroke-width="1.2"/>
<rect x="115.26" y="150.67" width="16.90" height="22.23" fill="#1f7a4d" stroke="#1f7a4d" stroke-width="0.8" fill-opacity="0.9"/>
<line x1="152.84" y1="111.60" x2="152.84" y2="232.85" stroke="#c0392b" stroke-width="1.2"/>
<rect x="144.39" y="197.82" width="16.90" height="17.51" fill="#c0392b" stroke="#c0392b" stroke-width="0.8" fill-opacity="0.9"/>
<line x1="181.98" y1="175.59" x2="181.98" y2="249.69" stroke="#c0392b" stroke-width="1.2"/>
<rect x="173.53" y="219.38" width="16.90" height="6.74" fill="#c0392b" stroke="#c0392b" stroke-width="0.8" fill-opacity="0.9"/>
<line x1="211.12" y1="201.19" x2="211.12" y2="319.75" stroke="#1f7a4d" stroke-width="1.2"/>
<rect x="202.67" y="219.38" width="16.90" height="97.68" fill="#1f7a4d" stroke="#1f7a4d" stroke-width="0.8" fill-opacity="0.9"/>
<line x1="240.26" y1="264.51" x2="240.26" y2="317.05" stroke="#c0392b" stroke-width="1.2"/>
<rect x="231.81" y="298.87" width="16.90" height="8.08" fill="#c0392b" stroke="#c0392b" stroke-width="0.8" fill-opacity="0.9"/>
<line x1="269.40" y1="265.86" x2="269.40" y2="385.76" stroke="#1f7a4d" stroke-width="1.2"/>
<rect x="260.95" y="276.64" width="16.90" height="78.81" fill="#1f7a4d" stroke="#1f7a4d" stroke-width="0.8" fill-opacity="0.9"/>
<line x1="298.53" y1="252.39" x2="298.53" y2="375.66" stroke="#c0392b" stroke-width="1.2"/>
<rect x="290.08" y="282.70" width="16.90" height="72.75" fill="#c0392b" stroke="#c0392b" stroke-width="0.8" fill-opacity="0.9"/>
<line x1="327.67" y1="232.85" x2="327.67" y2="316.38" stroke="#1f7a4d" stroke-width="1.2"/>
<rect x="319.22" y="272.59" width="16.90" height="24.25" fill="#1f7a4d" stroke="#1f7a4d" stroke-width="0.8" fill-opacity="0.9"/>
<line x1="356.81" y1="258.45" x2="356.81" y2="348.04" stroke="#1f7a4d" stroke-width="1.2"/>
<rect x="348.36" y="266.53" width="16.90" height="71.40" fill="#1f7a4d" stroke="#1f7a4d" stroke-width="0.8" fill-opacity="0.9"/>
<line x1="385.95" y1="310.32" x2="385.95" y2="384.42" stroke="#1f7a4d" stroke-width="1.2"/>
<rect x="377.50" y="310.99" width="16.90" height="58.61" fill="#1f7a4d" stroke="#1f7a4d" stroke-width="0.8" fill-opacity="0.9"/>
<line x1="415.09" y1="348.71" x2="415.09" y2="407.99" stroke="#1f7a4d" stroke-width="1.2"/>
<rect x="406.64" y="377.01" width="16.90" height="7.41" fill="#1f7a4d" stroke="#1f7a4d" stroke-width="0.8" fill-opacity="0.9"/>
<line x1="444.22" y1="368.92" x2="444.22" y2="416.75" stroke="#1f7a4d" stroke-width="1.2"/>
<rect x="435.77" y="378.35" width="16.90" height="29.64" fill="#1f7a4d" stroke="#1f7a4d" stroke-width="0.8" fill-opacity="0.9"/>
<line x1="473.36" y1="347.37" x2="473.36" y2="420.12" stroke="#c0392b" stroke-width="1.2"/>
<rect x="464.91" y="399.24" width="16.90" height="12.13" fill="#c0392b" stroke="#c0392b" stroke-width="0.8" fill-opacity="0.9"/>
<line x1="502.50" y1="373.64" x2="502.50" y2="432.92" stroke="#1f7a4d" stroke-width="1.2"/>
<rect x="494.05" y="399.24" width="16.90" height="4.04" fill="#1f7a4d" stroke="#1f7a4d" stroke-width="0.8" fill-opacity="0.9"/>
<line x1="531.64" y1="390.48" x2="531.64" y2="472.66" stroke="#1f7a4d" stroke-width="1.2"/>
<rect x="523.19" y="430.22" width="16.90" height="41.09" fill="#1f7a4d" stroke="#1f7a4d" stroke-width="0.8" fill-opacity="0.9"/>
<line x1="560.78" y1="418.10" x2="560.78" y2="531.27" stroke="#1f7a4d" stroke-width="1.2"/>
<rect x="552.33" y="430.90" width="16.90" height="14.15" fill="#1f7a4d" stroke="#1f7a4d" stroke-width="0.8" fill-opacity="0.9"/>
<line x1="589.91" y1="426.18" x2="589.91" y2="503.65" stroke="#1f7a4d" stroke-width="1.2"/>
<rect x="581.46" y="471.31" width="16.90" height="14.82" fill="#1f7a4d" stroke="#1f7a4d" stroke-width="0.8" fill-opacity="0.9"/>
<line x1="619.05" y1="486.81" x2="619.05" y2="513.75" stroke="#1f7a4d" stroke-width="1.2"/>
<rect x="610.60" y="505.67" width="16.90" height="1.35" fill="#1f7a4d" stroke="#1f7a4d" stroke-width="0.8" fill-opacity="0.9"/>
<line x1="648.19" y1="471.99" x2="648.19" y2="543.39" stroke="#c0392b" stroke-width="1.2"/>
<rect x="639.74" y="496.24" width="16.90" height="18.86" fill="#c0392b" stroke="#c0392b" stroke-width="0.8" fill-opacity="0.9"/>
<line x1="677.33" y1="457.17" x2="677.33" y2="487.48" stroke="#c0392b" stroke-width="1.2"/>
<rect x="668.88" y="464.58" width="16.90" height="7.41" fill="#c0392b" stroke="#c0392b" stroke-width="0.8" fill-opacity="0.9"/>
<line x1="706.47" y1="393.85" x2="706.47" y2="478.72" stroke="#c0392b" stroke-width="1.2"/>
<rect x="698.02" y="425.51" width="16.90" height="26.27" fill="#c0392b" stroke="#c0392b" stroke-width="0.8" fill-opacity="0.9"/>
<line x1="735.60" y1="413.38" x2="735.60" y2="445.72" stroke="#1f7a4d" stroke-width="1.2"/>
<rect x="727.15" y="424.83" width="16.90" height="15.49" fill="#1f7a4d" stroke="#1f7a4d" stroke-width="0.8" fill-opacity="0.9"/>
<line x1="764.74" y1="418.10" x2="764.74" y2="465.25" stroke="#c0392b" stroke-width="1.2"/>
<rect x="756.29" y="432.92" width="16.90" height="18.86" fill="#c0392b" stroke="#c0392b" stroke-width="0.8" fill-opacity="0.9"/>
<line x1="793.88" y1="439.65" x2="793.88" y2="494.89" stroke="#1f7a4d" stroke-width="1.2"/>
<rect x="785.43" y="445.04" width="16.90" height="48.50" fill="#1f7a4d" stroke="#1f7a4d" stroke-width="0.8" fill-opacity="0.9"/>
<line x1="823.02" y1="470.64" x2="823.02" y2="543.39" stroke="#1f7a4d" stroke-width="1.2"/>
<rect x="814.57" y="474.68" width="16.90" height="49.85" fill="#1f7a4d" stroke="#1f7a4d" stroke-width="0.8" fill-opacity="0.9"/>
<line x1="852.16" y1="511.06" x2="852.16" y2="531.27" stroke="#c0392b" stroke-width="1.2"/>
<rect x="843.71" y="514.42" width="16.90" height="10.10" fill="#c0392b" stroke="#c0392b" stroke-width="0.8" fill-opacity="0.9"/>
<line x1="881.29" y1="506.34" x2="881.29" y2="559.56" stroke="#1f7a4d" stroke-width="1.2"/>
<rect x="872.84" y="510.38" width="16.90" height="43.11" fill="#1f7a4d" stroke="#1f7a4d" stroke-width="0.8" fill-opacity="0.9"/>
<line x1="910.43" y1="534.63" x2="910.43" y2="564.95" stroke="#c0392b" stroke-width="1.2"/>
<rect x="901.98" y="539.35" width="16.90" height="14.15" fill="#c0392b" stroke="#c0392b" stroke-width="0.8" fill-opacity="0.9"/>
<line x1="939.57" y1="552.82" x2="939.57" y2="603.34" stroke="#1f7a4d" stroke-width="1.2"/>
<rect x="931.12" y="571.01" width="16.90" height="16.17" fill="#1f7a4d" stroke="#1f7a4d" stroke-width="0.8" fill-opacity="0.9"/>
<line x1="968.71" y1="577.07" x2="968.71" y2="659.25" stroke="#1f7a4d" stroke-width="1.2"/>
<rect x="960.26" y="583.81" width="16.90" height="72.08" fill="#1f7a4d" stroke="#1f7a4d" stroke-width="0.8" fill-opacity="0.9"/>
<line x1="997.84" y1="647.80" x2="997.84" y2="686.87" stroke="#1f7a4d" stroke-width="1.2"/>
<rect x="989.39" y="667.34" width="16.90" height="8.76" fill="#1f7a4d" stroke="#1f7a4d" stroke-width="0.8" fill-opacity="0.9"/>
<line x1="1026.98" y1="618.84" x2="1026.98" y2="669.36" stroke="#c0392b" stroke-width="1.2"/>
<rect x="1018.53" y="638.37" width="16.90" height="9.43" fill="#c0392b" stroke="#c0392b" stroke-width="0.8" fill-opacity="0.9"/>
<line x1="1056.12" y1="635.68" x2="1056.12" y2="655.89" stroke="#c0392b" stroke-width="1.2"/>
<rect x="1047.67" y="635.68" width="16.90" height="14.82" fill="#c0392b" stroke="#c0392b" stroke-width="0.8" fill-opacity="0.9"/>
<line x1="1085.26" y1="621.53" x2="1085.26" y2="689.57" stroke="#c0392b" stroke-width="1.2"/>
<rect x="1076.81" y="632.98" width="16.90" height="49.17" fill="#c0392b" stroke="#c0392b" stroke-width="0.8" fill-opacity="0.9"/>
<line x1="1114.40" y1="604.02" x2="1114.40" y2="631.63" stroke="#c0392b" stroke-width="1.2"/>
<rect x="1105.95" y="608.06" width="16.90" height="1.20" fill="#c0392b" stroke="#c0392b" stroke-width="0.8" fill-opacity="0.9"/>
<line x1="1143.53" y1="567.64" x2="1143.53" y2="608.06" stroke="#c0392b" stroke-width="1.2"/>
<rect x="1135.08" y="590.54" width="16.90" height="17.51" fill="#c0392b" stroke="#c0392b" stroke-width="0.8" fill-opacity="0.9"/>
<line x1="1172.67" y1="562.93" x2="1172.67" y2="605.36" stroke="#c0392b" stroke-width="1.2"/>
<rect x="1164.22" y="593.24" width="16.90" height="4.72" fill="#c0392b" stroke="#c0392b" stroke-width="0.8" fill-opacity="0.9"/>
<line x1="1201.81" y1="547.43" x2="1201.81" y2="614.79" stroke="#1f7a4d" stroke-width="1.2"/>
<rect x="1193.36" y="565.62" width="16.90" height="38.40" fill="#1f7a4d" stroke="#1f7a4d" stroke-width="0.8" fill-opacity="0.9"/>
<line x1="1230.95" y1="575.72" x2="1230.95" y2="639.72" stroke="#1f7a4d" stroke-width="1.2"/>
<rect x="1222.50" y="605.36" width="16.90" height="4.72" fill="#1f7a4d" stroke="#1f7a4d" stroke-width="0.8" fill-opacity="0.9"/>
<line x1="1260.09" y1="547.43" x2="1260.09" y2="612.77" stroke="#c0392b" stroke-width="1.2"/>
<rect x="1251.64" y="579.77" width="16.90" height="18.86" fill="#c0392b" stroke="#c0392b" stroke-width="0.8" fill-opacity="0.9"/>
<line x1="1289.22" y1="571.68" x2="1289.22" y2="615.47" stroke="#c0392b" stroke-width="1.2"/>
<rect x="1280.77" y="589.20" width="16.90" height="2.02" fill="#c0392b" stroke="#c0392b" stroke-width="0.8" fill-opacity="0.9"/>
<line x1="1318.36" y1="613.45" x2="1318.36" y2="656.56" stroke="#1f7a4d" stroke-width="1.2"/>
<rect x="1309.91" y="614.79" width="16.90" height="35.03" fill="#1f7a4d" stroke="#1f7a4d" stroke-width="0.8" fill-opacity="0.9"/>
<line x1="1347.50" y1="637.70" x2="1347.50" y2="684.18" stroke="#1f7a4d" stroke-width="1.2"/>
<rect x="1339.05" y="653.19" width="16.90" height="26.27" fill="#1f7a4d" stroke="#1f7a4d" stroke-width="0.8" fill-opacity="0.9"/>
<line x1="1376.64" y1="706.41" x2="1376.64" y2="771.07" stroke="#1f7a4d" stroke-width="1.2"/>
<rect x="1368.19" y="714.49" width="16.90" height="45.13" fill="#1f7a4d" stroke="#1f7a4d" stroke-width="0.8" fill-opacity="0.9"/>
<line x1="1405.78" y1="723.92" x2="1405.78" y2="770.40" stroke="#1f7a4d" stroke-width="1.2"/>
<rect x="1397.33" y="729.31" width="16.90" height="14.82" fill="#1f7a4d" stroke="#1f7a4d" stroke-width="0.8" fill-opacity="0.9"/>
<line x1="1434.91" y1="713.14" x2="1434.91" y2="738.74" stroke="#c0392b" stroke-width="1.2"/>
<rect x="1426.46" y="717.18" width="16.90" height="14.15" fill="#c0392b" stroke="#c0392b" stroke-width="0.8" fill-opacity="0.9"/>
<line x1="1464.05" y1="720.55" x2="1464.05" y2="761.64" stroke="#1f7a4d" stroke-width="1.2"/>
<rect x="1455.60" y="720.55" width="16.90" height="34.35" fill="#1f7a4d" stroke="#1f7a4d" stroke-width="0.8" fill-opacity="0.9"/>
<line x1="1493.19" y1="727.96" x2="1493.19" y2="781.18" stroke="#c0392b" stroke-width="1.2"/>
<rect x="1484.74" y="735.37" width="16.90" height="39.74" fill="#c0392b" stroke="#c0392b" stroke-width="0.8" fill-opacity="0.9"/>
<line x1="1522.33" y1="748.17" x2="1522.33" y2="775.12" stroke="#c0392b" stroke-width="1.2"/>
<rect x="1513.88" y="750.19" width="16.90" height="11.45" fill="#c0392b" stroke="#c0392b" stroke-width="0.8" fill-opacity="0.9"/>
<line x1="1551.47" y1="721.23" x2="1551.47" y2="756.93" stroke="#c0392b" stroke-width="1.2"/>
<rect x="1543.02" y="747.50" width="16.90" height="4.04" fill="#c0392b" stroke="#c0392b" stroke-width="0.8" fill-opacity="0.9"/>
<line x1="1580.60" y1="650.50" x2="1580.60" y2="732.00" stroke="#c0392b" stroke-width="1.2"/>
<rect x="1572.15" y="655.21" width="16.90" height="64.67" fill="#c0392b" stroke="#c0392b" stroke-width="0.8" fill-opacity="0.9"/>
<line x1="1609.74" y1="666.66" x2="1609.74" y2="704.39" stroke="#1f7a4d" stroke-width="1.2"/>
<rect x="1601.29" y="674.07" width="16.90" height="20.21" fill="#1f7a4d" stroke="#1f7a4d" stroke-width="0.8" fill-opacity="0.9"/>
<line x1="1638.88" y1="682.16" x2="1638.88" y2="730.66" stroke="#1f7a4d" stroke-width="1.2"/>
<rect x="1630.43" y="687.55" width="16.90" height="39.07" fill="#1f7a4d" stroke="#1f7a4d" stroke-width="0.8" fill-opacity="0.9"/>
<line x1="1668.02" y1="709.77" x2="1668.02" y2="740.76" stroke="#1f7a4d" stroke-width="1.2"/>
<rect x="1659.57" y="719.88" width="16.90" height="11.45" fill="#1f7a4d" stroke="#1f7a4d" stroke-width="0.8" fill-opacity="0.9"/>
<line x1="1697.16" y1="643.09" x2="1697.16" y2="691.59" stroke="#c0392b" stroke-width="1.2"/>
<rect x="1688.71" y="644.43" width="16.90" height="43.11" fill="#c0392b" stroke="#c0392b" stroke-width="0.8" fill-opacity="0.9"/>
<line x1="1726.29" y1="668.01" x2="1726.29" y2="685.52" stroke="#1f7a4d" stroke-width="1.2"/>
<rect x="1717.84" y="668.01" width="16.90" height="11.45" fill="#1f7a4d" stroke="#1f7a4d" stroke-width="0.8" fill-opacity="0.9"/>
<line x1="1755.43" y1="630.96" x2="1755.43" y2="670.70" stroke="#c0392b" stroke-width="1.2"/>
<rect x="1746.98" y="651.84" width="16.90" height="18.86" fill="#c0392b" stroke="#c0392b" stroke-width="0.8" fill-opacity="0.9"/>
<line x1="80" y1="945.00" x2="1770" y2="945.00" stroke="#94a3b8" stroke-dasharray="4 4" stroke-width="1"/>
<line x1="80" y1="1024.80" x2="1770" y2="1024.80" stroke="#e5e7eb" stroke-dasharray="3 5" stroke-width="1"/>
<text x="70" y="1028.80" text-anchor="end" font-size="11" font-family="Consolas, monospace" fill="#52606d">-1.22</text>
<line x1="80" y1="984.90" x2="1770" y2="984.90" stroke="#e5e7eb" stroke-dasharray="3 5" stroke-width="1"/>
<text x="70" y="988.90" text-anchor="end" font-size="11" font-family="Consolas, monospace" fill="#52606d">-0.61</text>
<line x1="80" y1="905.10" x2="1770" y2="905.10" stroke="#e5e7eb" stroke-dasharray="3 5" stroke-width="1"/>
<text x="70" y="909.10" text-anchor="end" font-size="11" font-family="Consolas, monospace" fill="#52606d">0.61</text>
<line x1="80" y1="865.20" x2="1770" y2="865.20" stroke="#e5e7eb" stroke-dasharray="3 5" stroke-width="1"/>
<text x="70" y="869.20" text-anchor="end" font-size="11" font-family="Consolas, monospace" fill="#52606d">1.22</text>
<rect x="87.81" y="945.00" width="13.52" height="1.00" fill="#ef4444" fill-opacity="0.72"/>
<rect x="116.95" y="943.50" width="13.52" height="1.50" fill="#ef4444" fill-opacity="0.72"/>
<rect x="146.08" y="945.00" width="13.52" height="1.00" fill="#22c55e" fill-opacity="0.72"/>
<rect x="175.22" y="945.00" width="13.52" height="4.75" fill="#22c55e" fill-opacity="0.72"/>
<rect x="204.36" y="945.00" width="13.52" height="19.08" fill="#22c55e" fill-opacity="0.72"/>
<rect x="233.50" y="945.00" width="13.52" height="24.77" fill="#22c55e" fill-opacity="0.72"/>
<rect x="262.64" y="945.00" width="13.52" height="33.92" fill="#22c55e" fill-opacity="0.72"/>
<rect x="291.77" y="945.00" width="13.52" height="28.70" fill="#22c55e" fill-opacity="0.72"/>
<rect x="320.91" y="945.00" width="13.52" height="25.41" fill="#22c55e" fill-opacity="0.72"/>
<rect x="350.05" y="945.00" width="13.52" height="26.80" fill="#22c55e" fill-opacity="0.72"/>
<rect x="379.19" y="945.00" width="13.52" height="29.80" fill="#22c55e" fill-opacity="0.72"/>
<rect x="408.33" y="945.00" width="13.52" height="31.51" fill="#22c55e" fill-opacity="0.72"/>
<rect x="437.46" y="945.00" width="13.52" height="33.34" fill="#22c55e" fill-opacity="0.72"/>
<rect x="466.60" y="945.00" width="13.52" height="31.07" fill="#22c55e" fill-opacity="0.72"/>
<rect x="495.74" y="945.00" width="13.52" height="27.86" fill="#22c55e" fill-opacity="0.72"/>
<rect x="524.88" y="945.00" width="13.52" height="32.07" fill="#22c55e" fill-opacity="0.72"/>
<rect x="554.02" y="945.00" width="13.52" height="28.99" fill="#22c55e" fill-opacity="0.72"/>
<rect x="583.15" y="945.00" width="13.52" height="29.76" fill="#22c55e" fill-opacity="0.72"/>
<rect x="612.29" y="945.00" width="13.52" height="30.34" fill="#22c55e" fill-opacity="0.72"/>
<rect x="641.43" y="945.00" width="13.52" height="26.78" fill="#22c55e" fill-opacity="0.72"/>
<rect x="670.57" y="945.00" width="13.52" height="18.17" fill="#22c55e" fill-opacity="0.72"/>
<rect x="699.71" y="945.00" width="13.52" height="5.90" fill="#22c55e" fill-opacity="0.72"/>
<rect x="728.84" y="943.61" width="13.52" height="1.39" fill="#ef4444" fill-opacity="0.72"/>
<rect x="757.98" y="937.10" width="13.52" height="7.90" fill="#ef4444" fill-opacity="0.72"/>
<rect x="787.12" y="939.83" width="13.52" height="5.17" fill="#ef4444" fill-opacity="0.72"/>
<rect x="816.26" y="944.56" width="13.52" height="1.00" fill="#ef4444" fill-opacity="0.72"/>
<rect x="845.40" y="945.00" width="13.52" height="1.00" fill="#22c55e" fill-opacity="0.72"/>
<rect x="874.53" y="945.00" width="13.52" height="4.37" fill="#22c55e" fill-opacity="0.72"/>
<rect x="903.67" y="945.00" width="13.52" height="3.91" fill="#22c55e" fill-opacity="0.72"/>
<rect x="932.81" y="945.00" width="13.52" height="8.23" fill="#22c55e" fill-opacity="0.72"/>
<rect x="961.95" y="945.00" width="13.52" height="17.88" fill="#22c55e" fill-opacity="0.72"/>
<rect x="991.08" y="945.00" width="13.52" height="24.33" fill="#22c55e" fill-opacity="0.72"/>
<rect x="1020.22" y="945.00" width="13.52" height="21.22" fill="#22c55e" fill-opacity="0.72"/>
<rect x="1049.36" y="945.00" width="13.52" height="16.57" fill="#22c55e" fill-opacity="0.72"/>
<rect x="1078.50" y="945.00" width="13.52" height="11.15" fill="#22c55e" fill-opacity="0.72"/>
<rect x="1107.64" y="945.00" width="13.52" height="2.76" fill="#22c55e" fill-opacity="0.72"/>
<rect x="1136.77" y="938.87" width="13.52" height="6.13" fill="#ef4444" fill-opacity="0.72"/>
<rect x="1165.91" y="932.63" width="13.52" height="12.37" fill="#ef4444" fill-opacity="0.72"/>
<rect x="1195.05" y="929.41" width="13.52" height="15.59" fill="#ef4444" fill-opacity="0.72"/>
<rect x="1224.19" y="927.71" width="13.52" height="17.29" fill="#ef4444" fill-opacity="0.72"/>
<rect x="1253.33" y="922.58" width="13.52" height="22.42" fill="#ef4444" fill-opacity="0.72"/>
<rect x="1282.46" y="920.55" width="13.52" height="24.45" fill="#ef4444" fill-opacity="0.72"/>
<rect x="1311.60" y="926.95" width="13.52" height="18.05" fill="#ef4444" fill-opacity="0.72"/>
<rect x="1340.74" y="934.50" width="13.52" height="10.50" fill="#ef4444" fill-opacity="0.72"/>
<rect x="1369.88" y="945.00" width="13.52" height="3.65" fill="#22c55e" fill-opacity="0.72"/>
<rect x="1399.02" y="945.00" width="13.52" height="9.36" fill="#22c55e" fill-opacity="0.72"/>
<rect x="1428.15" y="945.00" width="13.52" height="8.05" fill="#22c55e" fill-opacity="0.72"/>
<rect x="1457.29" y="945.00" width="13.52" height="10.38" fill="#22c55e" fill-opacity="0.72"/>
<rect x="1486.43" y="945.00" width="13.52" height="7.76" fill="#22c55e" fill-opacity="0.72"/>
<rect x="1515.57" y="945.00" width="13.52" height="6.42" fill="#22c55e" fill-opacity="0.72"/>
<rect x="1544.71" y="945.00" width="13.52" height="3.76" fill="#22c55e" fill-opacity="0.72"/>
<rect x="1573.84" y="934.34" width="13.52" height="10.66" fill="#ef4444" fill-opacity="0.72"/>
<rect x="1602.98" y="929.55" width="13.52" height="15.45" fill="#ef4444" fill-opacity="0.72"/>
<rect x="1632.12" y="930.27" width="13.52" height="14.73" fill="#ef4444" fill-opacity="0.72"/>
<rect x="1661.26" y="931.01" width="13.52" height="13.99" fill="#ef4444" fill-opacity="0.72"/>
<rect x="1690.40" y="920.43" width="13.52" height="24.57" fill="#ef4444" fill-opacity="0.72"/>
<rect x="1719.53" y="918.45" width="13.52" height="26.55" fill="#ef4444" fill-opacity="0.72"/>
<rect x="1748.67" y="914.27" width="13.52" height="30.73" fill="#ef4444" fill-opacity="0.72"/>
<path d="M94.57,945.00 L123.71,944.06 L152.84,945.27 L181.98,947.87 L211.12,957.42 L240.26,963.36 L269.40,972.18 L298.53,973.15 L327.67,974.69 L356.81,978.73 L385.95,983.96 L415.09,988.75 L444.22,993.83 L473.36,996.58 L502.50,998.46 L531.64,1004.57 L560.78,1006.66 L589.91,1010.76 L619.05,1014.84 L648.19,1016.41 L677.33,1014.38 L706.47,1008.98 L735.60,1005.16 L764.74,1000.92 L793.88,1001.63 L823.02,1003.95 L852.16,1004.31 L881.29,1006.93 L910.43,1007.19 L939.57,1010.37 L968.71,1017.43 L997.84,1023.70 L1026.98,1024.80 L1056.12,1024.54 L1085.26,1023.23 L1114.40,1019.38 L1143.53,1014.17 L1172.67,1009.50 L1201.81,1005.94 L1230.95,1002.93 L1260.09,997.56 L1289.22,993.49 L1318.36,994.43 L1347.50,996.90 L1376.64,1004.43 L1405.78,1008.45 L1434.91,1008.80 L1464.05,1011.26 L1493.19,1010.93 L1522.33,1011.06 L1551.47,1010.20 L1580.60,1001.65 L1609.74,997.33 L1638.88,995.85 L1668.02,994.47 L1697.16,986.11 L1726.29,981.80 L1755.43,975.87" fill="none" stroke="#2563eb" stroke-width="1.8"/>
<path d="M94.57,945.00 L123.71,944.81 L152.84,944.90 L181.98,945.50 L211.12,947.88 L240.26,950.98 L269.40,955.22 L298.53,958.80 L327.67,961.98 L356.81,965.33 L385.95,969.06 L415.09,972.99 L444.22,977.16 L473.36,981.05 L502.50,984.53 L531.64,988.54 L560.78,992.16 L589.91,995.88 L619.05,999.67 L648.19,1003.02 L677.33,1005.29 L706.47,1006.03 L735.60,1005.86 L764.74,1004.87 L793.88,1004.22 L823.02,1004.17 L852.16,1004.19 L881.29,1004.74 L910.43,1005.23 L939.57,1006.26 L968.71,1008.49 L997.84,1011.54 L1026.98,1014.19 L1056.12,1016.26 L1085.26,1017.65 L1114.40,1018.00 L1143.53,1017.23 L1172.67,1015.69 L1201.81,1013.74 L1230.95,1011.57 L1260.09,1008.77 L1289.22,1005.72 L1318.36,1003.46 L1347.50,1002.15 L1376.64,1002.60 L1405.78,1003.77 L1434.91,1004.78 L1464.05,1006.08 L1493.19,1007.05 L1522.33,1007.85 L1551.47,1008.32 L1580.60,1006.99 L1609.74,1005.06 L1638.88,1003.21 L1668.02,1001.46 L1697.16,998.39 L1726.29,995.08 L1755.43,991.23" fill="none" stroke="#f59e0b" stroke-width="1.8"/>
<text x="80" y="842.00" font-size="13" font-family="Segoe UI, Arial, sans-serif" fill="#334155">MACD (12, 26, 9)</text>
<polygon points="990.84,696.87 1004.84,696.87 997.84,678.87" fill="#27ae60" stroke="#27ae60" stroke-width="1"/>
<polygon points="1194.81,537.43 1208.81,537.43 1201.81,555.43" fill="#e74c3c" stroke="#e74c3c" stroke-width="1"/>
<line x1="123.71" y1="100.82" x2="1493.19" y2="781.18" stroke="#d68910" stroke-width="1.5" stroke-dasharray="5 5"/>
<line x1="327.67" y1="232.85" x2="1493.19" y2="781.18" stroke="#d68910" stroke-width="1.5" stroke-dasharray="5 5"/>
<line x1="706.47" y1="393.85" x2="1493.19" y2="781.18" stroke="#d68910" stroke-width="1.5" stroke-dasharray="5 5"/>
<line x1="997.84" y1="686.87" x2="1201.81" y2="547.43" stroke="#2874a6" stroke-width="2.2"/>
<line x1="1201.81" y1="547.43" x2="1493.19" y2="781.18" stroke="#d68910" stroke-width="1.5" stroke-dasharray="5 5"/>
<line x1="1260.09" y1="547.43" x2="1493.19" y2="781.18" stroke="#d68910" stroke-width="1.5" stroke-dasharray="5 5"/>
<line x1="94.57" y1="1040.00" x2="94.57" y2="1046.00" stroke="#7b8794" stroke-width="1"/>
<text x="94.57" y="1064.00" text-anchor="middle" font-size="10" font-family="Consolas, monospace" fill="#52606d">01-12 00:00</text>
<line x1="240.26" y1="1040.00" x2="240.26" y2="1046.00" stroke="#7b8794" stroke-width="1"/>
<text x="240.26" y="1064.00" text-anchor="middle" font-size="10" font-family="Consolas, monospace" fill="#52606d">01-19 00:00</text>
<line x1="385.95" y1="1040.00" x2="385.95" y2="1046.00" stroke="#7b8794" stroke-width="1"/>
<text x="385.95" y="1064.00" text-anchor="middle" font-size="10" font-family="Consolas, monospace" fill="#52606d">01-26 00:00</text>
<line x1="531.64" y1="1040.00" x2="531.64" y2="1046.00" stroke="#7b8794" stroke-width="1"/>
<text x="531.64" y="1064.00" text-anchor="middle" font-size="10" font-family="Consolas, monospace" fill="#52606d">02-02 00:00</text>
<line x1="677.33" y1="1040.00" x2="677.33" y2="1046.00" stroke="#7b8794" stroke-width="1"/>
<text x="677.33" y="1064.00" text-anchor="middle" font-size="10" font-family="Consolas, monospace" fill="#52606d">02-09 00:00</text>
<line x1="823.02" y1="1040.00" x2="823.02" y2="1046.00" stroke="#7b8794" stroke-width="1"/>
<text x="823.02" y="1064.00" text-anchor="middle" font-size="10" font-family="Consolas, monospace" fill="#52606d">02-24 00:00</text>
<line x1="968.71" y1="1040.00" x2="968.71" y2="1046.00" stroke="#7b8794" stroke-width="1"/>
<text x="968.71" y="1064.00" text-anchor="middle" font-size="10" font-family="Consolas, monospace" fill="#52606d">03-03 00:00</text>
<line x1="1114.40" y1="1040.00" x2="1114.40" y2="1046.00" stroke="#7b8794" stroke-width="1"/>
<text x="1114.40" y="1064.00" text-anchor="middle" font-size="10" font-family="Consolas, monospace" fill="#52606d">03-10 00:00</text>
<line x1="1260.09" y1="1040.00" x2="1260.09" y2="1046.00" stroke="#7b8794" stroke-width="1"/>
<text x="1260.09" y="1064.00" text-anchor="middle" font-size="10" font-family="Consolas, monospace" fill="#52606d">03-17 00:00</text>
<line x1="1405.78" y1="1040.00" x2="1405.78" y2="1046.00" stroke="#7b8794" stroke-width="1"/>
<text x="1405.78" y="1064.00" text-anchor="middle" font-size="10" font-family="Consolas, monospace" fill="#52606d">03-24 00:00</text>
<line x1="1551.47" y1="1040.00" x2="1551.47" y2="1046.00" stroke="#7b8794" stroke-width="1"/>
<text x="1551.47" y="1064.00" text-anchor="middle" font-size="10" font-family="Consolas, monospace" fill="#52606d">03-31 00:00</text>
<line x1="1697.16" y1="1040.00" x2="1697.16" y2="1046.00" stroke="#7b8794" stroke-width="1"/>
<text x="1697.16" y="1064.00" text-anchor="middle" font-size="10" font-family="Consolas, monospace" fill="#52606d">04-08 00:00</text>
<rect x="1520" y="74" width="240" height="146" rx="8" fill="#ffffff" stroke="#d9e2ec"/>
<rect x="1532" y="88" width="22" height="12" fill="#5dade2" fill-opacity="0.12" stroke="#1f618d" stroke-dasharray="6 4"/>
<text x="1564" y="98" font-size="12" font-family="Segoe UI, Arial, sans-serif" fill="#1f2d3d">Inclusion box</text>
<rect x="1532" y="108" width="22" height="12" fill="#f5b041" fill-opacity="0.18" stroke="#b9770e"/>
<text x="1564" y="118" font-size="12" font-family="Segoe UI, Arial, sans-serif" fill="#1f2d3d">Bi zhongshu</text>
<line x1="1532" y1="136" x2="1554" y2="136" stroke="#2874a6" stroke-width="2.2"/>
<text x="1564" y="140" font-size="12" font-family="Segoe UI, Arial, sans-serif" fill="#1f2d3d">Confirmed bi</text>
<line x1="1532" y1="154" x2="1554" y2="154" stroke="#d68910" stroke-width="1.5" stroke-dasharray="5 5"/>
<text x="1564" y="158" font-size="12" font-family="Segoe UI, Arial, sans-serif" fill="#1f2d3d">Unconfirmed bi</text>
<rect x="1532" y="170" width="22" height="12" fill="#ef4444" fill-opacity="0.72"/>
<text x="1564" y="180" font-size="12" font-family="Segoe UI, Arial, sans-serif" fill="#1f2d3d">MACD histogram+</text>
<rect x="1532" y="188" width="22" height="12" fill="#22c55e" fill-opacity="0.72"/>
<text x="1564" y="198" font-size="12" font-family="Segoe UI, Arial, sans-serif" fill="#1f2d3d">MACD histogram-</text>
<line x1="1532" y1="212" x2="1554" y2="212" stroke="#2563eb" stroke-width="1.8"/>
<text x="1564" y="216" font-size="12" font-family="Segoe UI, Arial, sans-serif" fill="#1f2d3d">DIF / DEA</text>
</svg>