<svg xmlns="http://www.w3.org/2000/svg" width="1800" height="1120" viewBox="0 0 1800 1120">
<rect width="100%" height="100%" fill="#fbfcfe"/>
<text x="900.0" y="34" text-anchor="middle" font-size="24" font-family="Segoe UI, Arial, sans-serif" fill="#1f2d3d">01339 中国人保(港股) 日线 from 2026-01-06</text>
<line x1="80" y1="822.00" x2="1770" y2="822.00" stroke="#d9e2ec" stroke-dasharray="4 6" stroke-width="1"/>
<text x="70" y="826.00" text-anchor="end" font-size="11" font-family="Consolas, monospace" fill="#52606d">5.09</text>
<line x1="80" y1="669.60" x2="1770" y2="669.60" stroke="#d9e2ec" stroke-dasharray="4 6" stroke-width="1"/>
<text x="70" y="673.60" text-anchor="end" font-size="11" font-family="Consolas, monospace" fill="#52606d">5.62</text>
<line x1="80" y1="517.20" x2="1770" y2="517.20" stroke="#d9e2ec" stroke-dasharray="4 6" stroke-width="1"/>
<text x="70" y="521.20" text-anchor="end" font-size="11" font-family="Consolas, monospace" fill="#52606d">6.16</text>
<line x1="80" y1="364.80" x2="1770" y2="364.80" stroke="#d9e2ec" stroke-dasharray="4 6" stroke-width="1"/>
<text x="70" y="368.80" text-anchor="end" font-size="11" font-family="Consolas, monospace" fill="#52606d">6.70</text>
<line x1="80" y1="212.40" x2="1770" y2="212.40" stroke="#d9e2ec" stroke-dasharray="4 6" stroke-width="1"/>
<text x="70" y="216.40" text-anchor="end" font-size="11" font-family="Consolas, monospace" fill="#52606d">7.24</text>
<line x1="80" y1="60.00" x2="1770" y2="60.00" stroke="#d9e2ec" stroke-dasharray="4 6" stroke-width="1"/>
<text x="70" y="64.00" text-anchor="end" font-size="11" font-family="Consolas, monospace" fill="#52606d">7.77</text>
<line x1="80" y1="850.00" x2="1770" y2="850.00" stroke="#cbd2d9" stroke-width="1"/>
<rect x="328.53" y="341.78" width="49.71" height="45.36" fill="#5dade2" fill-opacity="0.12" stroke="#1f618d" stroke-width="1.2" stroke-dasharray="6 4"/>
<rect x="552.21" y="372.96" width="124.26" height="56.70" fill="#5dade2" fill-opacity="0.12" stroke="#1f618d" stroke-width="1.2" stroke-dasharray="6 4"/>
<rect x="701.32" y="310.60" width="49.71" height="48.19" fill="#5dade2" fill-opacity="0.12" stroke="#1f618d" stroke-width="1.2" stroke-dasharray="6 4"/>
<rect x="925.00" y="441.00" width="49.71" height="39.69" fill="#5dade2" fill-opacity="0.12" stroke="#1f618d" stroke-width="1.2" stroke-dasharray="6 4"/>
<rect x="1248.09" y="449.50" width="49.71" height="39.69" fill="#5dade2" fill-opacity="0.12" stroke="#1f618d" stroke-width="1.2" stroke-dasharray="6 4"/>
<rect x="1347.50" y="560.06" width="49.71" height="76.54" fill="#5dade2" fill-opacity="0.12" stroke="#1f618d" stroke-width="1.2" stroke-dasharray="6 4"/>
<rect x="1496.62" y="676.29" width="49.71" height="48.19" fill="#5dade2" fill-opacity="0.12" stroke="#1f618d" stroke-width="1.2" stroke-dasharray="6 4"/>
<rect x="1571.18" y="673.46" width="49.71" height="42.52" fill="#5dade2" fill-opacity="0.12" stroke="#1f618d" stroke-width="1.2" stroke-dasharray="6 4"/>
<line x1="92.43" y1="120.67" x2="92.43" y2="194.37" stroke="#c0392b" stroke-width="1.2"/>
<rect x="85.22" y="137.67" width="14.41" height="56.70" fill="#c0392b" stroke="#c0392b" stroke-width="0.8" fill-opacity="0.9"/>
<line x1="117.28" y1="100.82" x2="117.28" y2="157.52" stroke="#c0392b" stroke-width="1.2"/>
<rect x="110.07" y="126.33" width="14.41" height="11.34" fill="#c0392b" stroke="#c0392b" stroke-width="0.8" fill-opacity="0.9"/>
<line x1="142.13" y1="151.85" x2="142.13" y2="222.72" stroke="#1f7a4d" stroke-width="1.2"/>
<rect x="134.92" y="151.85" width="14.41" height="17.01" fill="#1f7a4d" stroke="#1f7a4d" stroke-width="0.8" fill-opacity="0.9"/>
<line x1="166.99" y1="163.19" x2="166.99" y2="236.89" stroke="#1f7a4d" stroke-width="1.2"/>
<rect x="159.78" y="168.86" width="14.41" height="31.18" fill="#1f7a4d" stroke="#1f7a4d" stroke-width="0.8" fill-opacity="0.9"/>
<line x1="191.84" y1="214.21" x2="191.84" y2="270.91" stroke="#1f7a4d" stroke-width="1.2"/>
<rect x="184.63" y="228.39" width="14.41" height="17.01" fill="#1f7a4d" stroke="#1f7a4d" stroke-width="0.8" fill-opacity="0.9"/>
<line x1="216.69" y1="171.69" x2="216.69" y2="242.56" stroke="#c0392b" stroke-width="1.2"/>
<rect x="209.48" y="217.05" width="14.41" height="11.34" fill="#c0392b" stroke="#c0392b" stroke-width="0.8" fill-opacity="0.9"/>
<line x1="241.54" y1="228.39" x2="241.54" y2="302.09" stroke="#1f7a4d" stroke-width="1.2"/>
<rect x="234.34" y="231.22" width="14.41" height="53.86" fill="#1f7a4d" stroke="#1f7a4d" stroke-width="0.8" fill-opacity="0.9"/>
<line x1="266.40" y1="273.75" x2="266.40" y2="336.11" stroke="#1f7a4d" stroke-width="1.2"/>
<rect x="259.19" y="279.42" width="14.41" height="48.19" fill="#1f7a4d" stroke="#1f7a4d" stroke-width="0.8" fill-opacity="0.9"/>
<line x1="291.25" y1="299.26" x2="291.25" y2="375.80" stroke="#1f7a4d" stroke-width="1.2"/>
<rect x="284.04" y="319.10" width="14.41" height="31.18" fill="#1f7a4d" stroke="#1f7a4d" stroke-width="0.8" fill-opacity="0.9"/>
<line x1="316.10" y1="355.96" x2="316.10" y2="401.31" stroke="#1f7a4d" stroke-width="1.2"/>
<rect x="308.90" y="358.79" width="14.41" height="19.84" fill="#1f7a4d" stroke="#1f7a4d" stroke-width="0.8" fill-opacity="0.9"/>
<line x1="340.96" y1="344.62" x2="340.96" y2="387.14" stroke="#c0392b" stroke-width="1.2"/>
<rect x="333.75" y="353.12" width="14.41" height="22.68" fill="#c0392b" stroke="#c0392b" stroke-width="0.8" fill-opacity="0.9"/>
<line x1="365.81" y1="341.78" x2="365.81" y2="389.97" stroke="#1f7a4d" stroke-width="1.2"/>
<rect x="358.60" y="344.62" width="14.41" height="39.69" fill="#1f7a4d" stroke="#1f7a4d" stroke-width="0.8" fill-opacity="0.9"/>
<line x1="390.66" y1="367.29" x2="390.66" y2="423.99" stroke="#1f7a4d" stroke-width="1.2"/>
<rect x="383.45" y="370.13" width="14.41" height="39.69" fill="#1f7a4d" stroke="#1f7a4d" stroke-width="0.8" fill-opacity="0.9"/>
<line x1="415.51" y1="381.47" x2="415.51" y2="452.34" stroke="#1f7a4d" stroke-width="1.2"/>
<rect x="408.31" y="395.64" width="14.41" height="45.36" fill="#1f7a4d" stroke="#1f7a4d" stroke-width="0.8" fill-opacity="0.9"/>
<line x1="440.37" y1="392.81" x2="440.37" y2="452.34" stroke="#c0392b" stroke-width="1.2"/>
<rect x="433.16" y="423.99" width="14.41" height="2.83" fill="#c0392b" stroke="#c0392b" stroke-width="0.8" fill-opacity="0.9"/>
<line x1="465.22" y1="355.96" x2="465.22" y2="423.99" stroke="#c0392b" stroke-width="1.2"/>
<rect x="458.01" y="364.46" width="14.41" height="59.53" fill="#c0392b" stroke="#c0392b" stroke-width="0.8" fill-opacity="0.9"/>
<line x1="490.07" y1="333.28" x2="490.07" y2="372.96" stroke="#c0392b" stroke-width="1.2"/>
<rect x="482.87" y="344.62" width="14.41" height="11.34" fill="#c0392b" stroke="#c0392b" stroke-width="0.8" fill-opacity="0.9"/>
<line x1="514.93" y1="296.42" x2="514.93" y2="353.12" stroke="#c0392b" stroke-width="1.2"/>
<rect x="507.72" y="313.43" width="14.41" height="17.01" fill="#c0392b" stroke="#c0392b" stroke-width="0.8" fill-opacity="0.9"/>
<line x1="539.78" y1="299.26" x2="539.78" y2="370.13" stroke="#1f7a4d" stroke-width="1.2"/>
<rect x="532.57" y="319.10" width="14.41" height="17.01" fill="#1f7a4d" stroke="#1f7a4d" stroke-width="0.8" fill-opacity="0.9"/>
<line x1="564.63" y1="324.77" x2="564.63" y2="423.99" stroke="#1f7a4d" stroke-width="1.2"/>
<rect x="557.42" y="347.45" width="14.41" height="53.86" fill="#1f7a4d" stroke="#1f7a4d" stroke-width="0.8" fill-opacity="0.9"/>
<line x1="589.49" y1="347.45" x2="589.49" y2="415.49" stroke="#1f7a4d" stroke-width="1.2"/>
<rect x="582.28" y="384.30" width="14.41" height="14.17" fill="#1f7a4d" stroke="#1f7a4d" stroke-width="0.8" fill-opacity="0.9"/>
<line x1="614.34" y1="364.46" x2="614.34" y2="412.65" stroke="#c0392b" stroke-width="1.2"/>
<rect x="607.13" y="378.63" width="14.41" height="25.51" fill="#c0392b" stroke="#c0392b" stroke-width="0.8" fill-opacity="0.9"/>
<line x1="639.19" y1="358.79" x2="639.19" y2="429.66" stroke="#c0392b" stroke-width="1.2"/>
<rect x="631.98" y="364.46" width="14.41" height="25.51" fill="#c0392b" stroke="#c0392b" stroke-width="0.8" fill-opacity="0.9"/>
<line x1="664.04" y1="372.96" x2="664.04" y2="409.82" stroke="#1f7a4d" stroke-width="1.2"/>
<rect x="656.84" y="384.30" width="14.41" height="14.17" fill="#1f7a4d" stroke="#1f7a4d" stroke-width="0.8" fill-opacity="0.9"/>
<line x1="688.90" y1="324.77" x2="688.90" y2="389.97" stroke="#c0392b" stroke-width="1.2"/>
<rect x="681.69" y="333.28" width="14.41" height="42.52" fill="#c0392b" stroke="#c0392b" stroke-width="0.8" fill-opacity="0.9"/>
<line x1="713.75" y1="316.27" x2="713.75" y2="358.79" stroke="#1f7a4d" stroke-width="1.2"/>
<rect x="706.54" y="321.94" width="14.41" height="5.67" fill="#1f7a4d" stroke="#1f7a4d" stroke-width="0.8" fill-opacity="0.9"/>
<line x1="738.60" y1="310.60" x2="738.60" y2="378.63" stroke="#1f7a4d" stroke-width="1.2"/>
<rect x="731.40" y="338.95" width="14.41" height="8.50" fill="#1f7a4d" stroke="#1f7a4d" stroke-width="0.8" fill-opacity="0.9"/>
<line x1="763.46" y1="296.42" x2="763.46" y2="347.45" stroke="#c0392b" stroke-width="1.2"/>
<rect x="756.25" y="330.44" width="14.41" height="2.83" fill="#c0392b" stroke="#c0392b" stroke-width="0.8" fill-opacity="0.9"/>
<line x1="788.31" y1="341.78" x2="788.31" y2="421.16" stroke="#1f7a4d" stroke-width="1.2"/>
<rect x="781.10" y="341.78" width="14.41" height="62.37" fill="#1f7a4d" stroke="#1f7a4d" stroke-width="0.8" fill-opacity="0.9"/>
<line x1="813.16" y1="350.29" x2="813.16" y2="421.16" stroke="#c0392b" stroke-width="1.2"/>
<rect x="805.95" y="353.12" width="14.41" height="68.04" fill="#c0392b" stroke="#c0392b" stroke-width="0.8" fill-opacity="0.9"/>
<line x1="838.01" y1="338.95" x2="838.01" y2="381.47" stroke="#1f7a4d" stroke-width="1.2"/>
<rect x="830.81" y="338.95" width="14.41" height="11.34" fill="#1f7a4d" stroke="#1f7a4d" stroke-width="0.8" fill-opacity="0.9"/>
<line x1="862.87" y1="265.24" x2="862.87" y2="313.43" stroke="#c0392b" stroke-width="1.2"/>
<rect x="855.66" y="276.58" width="14.41" height="34.02" fill="#c0392b" stroke="#c0392b" stroke-width="0.8" fill-opacity="0.9"/>
<line x1="887.72" y1="307.76" x2="887.72" y2="370.13" stroke="#1f7a4d" stroke-width="1.2"/>
<rect x="880.51" y="316.27" width="14.41" height="45.36" fill="#1f7a4d" stroke="#1f7a4d" stroke-width="0.8" fill-opacity="0.9"/>
<line x1="912.57" y1="338.95" x2="912.57" y2="389.97" stroke="#1f7a4d" stroke-width="1.2"/>
<rect x="905.37" y="338.95" width="14.41" height="34.02" fill="#1f7a4d" stroke="#1f7a4d" stroke-width="0.8" fill-opacity="0.9"/>
<line x1="937.43" y1="367.29" x2="937.43" y2="480.69" stroke="#1f7a4d" stroke-width="1.2"/>
<rect x="930.22" y="370.13" width="14.41" height="107.72" fill="#1f7a4d" stroke="#1f7a4d" stroke-width="0.8" fill-opacity="0.9"/>
<line x1="962.28" y1="441.00" x2="962.28" y2="477.85" stroke="#c0392b" stroke-width="1.2"/>
<rect x="955.07" y="446.67" width="14.41" height="31.18" fill="#c0392b" stroke="#c0392b" stroke-width="0.8" fill-opacity="0.9"/>
<line x1="987.13" y1="441.00" x2="987.13" y2="503.37" stroke="#c0392b" stroke-width="1.2"/>
<rect x="979.92" y="469.35" width="14.41" height="2.83" fill="#c0392b" stroke="#c0392b" stroke-width="0.8" fill-opacity="0.9"/>
<line x1="1011.99" y1="435.33" x2="1011.99" y2="477.85" stroke="#1f7a4d" stroke-width="1.2"/>
<rect x="1004.78" y="458.01" width="14.41" height="8.50" fill="#1f7a4d" stroke="#1f7a4d" stroke-width="0.8" fill-opacity="0.9"/>
<line x1="1036.84" y1="472.18" x2="1036.84" y2="543.05" stroke="#1f7a4d" stroke-width="1.2"/>
<rect x="1029.63" y="472.18" width="14.41" height="11.34" fill="#1f7a4d" stroke="#1f7a4d" stroke-width="0.8" fill-opacity="0.9"/>
<line x1="1061.69" y1="435.33" x2="1061.69" y2="489.19" stroke="#c0392b" stroke-width="1.2"/>
<rect x="1054.48" y="469.35" width="14.41" height="2.83" fill="#c0392b" stroke="#c0392b" stroke-width="0.8" fill-opacity="0.9"/>
<line x1="1086.54" y1="438.17" x2="1086.54" y2="489.19" stroke="#c0392b" stroke-width="1.2"/>
<rect x="1079.34" y="452.34" width="14.41" height="19.84" fill="#c0392b" stroke="#c0392b" stroke-width="0.8" fill-opacity="0.9"/>
<line x1="1111.40" y1="477.85" x2="1111.40" y2="526.04" stroke="#1f7a4d" stroke-width="1.2"/>
<rect x="1104.19" y="486.36" width="14.41" height="2.83" fill="#1f7a4d" stroke="#1f7a4d" stroke-width="0.8" fill-opacity="0.9"/>
<line x1="1136.25" y1="455.17" x2="1136.25" y2="500.53" stroke="#1f7a4d" stroke-width="1.2"/>
<rect x="1129.04" y="469.35" width="14.41" height="14.17" fill="#1f7a4d" stroke="#1f7a4d" stroke-width="0.8" fill-opacity="0.9"/>
<line x1="1161.10" y1="466.51" x2="1161.10" y2="503.37" stroke="#1f7a4d" stroke-width="1.2"/>
<rect x="1153.90" y="483.52" width="14.41" height="5.67" fill="#1f7a4d" stroke="#1f7a4d" stroke-width="0.8" fill-opacity="0.9"/>
<line x1="1185.96" y1="480.69" x2="1185.96" y2="534.55" stroke="#1f7a4d" stroke-width="1.2"/>
<rect x="1178.75" y="494.86" width="14.41" height="17.01" fill="#1f7a4d" stroke="#1f7a4d" stroke-width="0.8" fill-opacity="0.9"/>
<line x1="1210.81" y1="494.86" x2="1210.81" y2="545.89" stroke="#1f7a4d" stroke-width="1.2"/>
<rect x="1203.60" y="509.04" width="14.41" height="28.35" fill="#1f7a4d" stroke="#1f7a4d" stroke-width="0.8" fill-opacity="0.9"/>
<line x1="1235.66" y1="514.71" x2="1235.66" y2="565.73" stroke="#c0392b" stroke-width="1.2"/>
<rect x="1228.45" y="514.71" width="14.41" height="22.68" fill="#c0392b" stroke="#c0392b" stroke-width="0.8" fill-opacity="0.9"/>
<line x1="1260.51" y1="449.50" x2="1260.51" y2="511.87" stroke="#c0392b" stroke-width="1.2"/>
<rect x="1253.31" y="486.36" width="14.41" height="22.68" fill="#c0392b" stroke="#c0392b" stroke-width="0.8" fill-opacity="0.9"/>
<line x1="1285.37" y1="469.35" x2="1285.37" y2="489.19" stroke="#1f7a4d" stroke-width="1.2"/>
<rect x="1278.16" y="469.35" width="14.41" height="5.67" fill="#1f7a4d" stroke="#1f7a4d" stroke-width="0.8" fill-opacity="0.9"/>
<line x1="1310.22" y1="480.69" x2="1310.22" y2="534.55" stroke="#1f7a4d" stroke-width="1.2"/>
<rect x="1303.01" y="492.03" width="14.41" height="25.51" fill="#1f7a4d" stroke="#1f7a4d" stroke-width="0.8" fill-opacity="0.9"/>
<line x1="1335.07" y1="497.70" x2="1335.07" y2="548.72" stroke="#1f7a4d" stroke-width="1.2"/>
<rect x="1327.87" y="509.04" width="14.41" height="8.50" fill="#1f7a4d" stroke="#1f7a4d" stroke-width="0.8" fill-opacity="0.9"/>
<line x1="1359.93" y1="554.39" x2="1359.93" y2="636.60" stroke="#1f7a4d" stroke-width="1.2"/>
<rect x="1352.72" y="557.23" width="14.41" height="48.19" fill="#1f7a4d" stroke="#1f7a4d" stroke-width="0.8" fill-opacity="0.9"/>
<line x1="1384.78" y1="560.06" x2="1384.78" y2="611.09" stroke="#c0392b" stroke-width="1.2"/>
<rect x="1377.57" y="560.06" width="14.41" height="28.35" fill="#c0392b" stroke="#c0392b" stroke-width="0.8" fill-opacity="0.9"/>
<line x1="1409.63" y1="531.71" x2="1409.63" y2="562.90" stroke="#c0392b" stroke-width="1.2"/>
<rect x="1402.42" y="537.38" width="14.41" height="5.67" fill="#c0392b" stroke="#c0392b" stroke-width="0.8" fill-opacity="0.9"/>
<line x1="1434.49" y1="534.55" x2="1434.49" y2="619.59" stroke="#1f7a4d" stroke-width="1.2"/>
<rect x="1427.28" y="537.38" width="14.41" height="68.04" fill="#1f7a4d" stroke="#1f7a4d" stroke-width="0.8" fill-opacity="0.9"/>
<line x1="1459.34" y1="659.28" x2="1459.34" y2="761.33" stroke="#1f7a4d" stroke-width="1.2"/>
<rect x="1452.13" y="662.12" width="14.41" height="62.37" fill="#1f7a4d" stroke="#1f7a4d" stroke-width="0.8" fill-opacity="0.9"/>
<line x1="1484.19" y1="690.46" x2="1484.19" y2="781.18" stroke="#c0392b" stroke-width="1.2"/>
<rect x="1476.98" y="696.13" width="14.41" height="45.36" fill="#c0392b" stroke="#c0392b" stroke-width="0.8" fill-opacity="0.9"/>
<line x1="1509.04" y1="676.29" x2="1509.04" y2="752.83" stroke="#1f7a4d" stroke-width="1.2"/>
<rect x="1501.84" y="715.98" width="14.41" height="17.01" fill="#1f7a4d" stroke="#1f7a4d" stroke-width="0.8" fill-opacity="0.9"/>
<line x1="1533.90" y1="690.46" x2="1533.90" y2="724.48" stroke="#1f7a4d" stroke-width="1.2"/>
<rect x="1526.69" y="701.80" width="14.41" height="8.50" fill="#1f7a4d" stroke="#1f7a4d" stroke-width="0.8" fill-opacity="0.9"/>
<line x1="1558.75" y1="707.47" x2="1558.75" y2="747.16" stroke="#1f7a4d" stroke-width="1.2"/>
<rect x="1551.54" y="707.47" width="14.41" height="28.35" fill="#1f7a4d" stroke="#1f7a4d" stroke-width="0.8" fill-opacity="0.9"/>
<line x1="1583.60" y1="673.46" x2="1583.60" y2="721.65" stroke="#c0392b" stroke-width="1.2"/>
<rect x="1576.40" y="684.79" width="14.41" height="31.18" fill="#c0392b" stroke="#c0392b" stroke-width="0.8" fill-opacity="0.9"/>
<line x1="1608.46" y1="684.79" x2="1608.46" y2="715.98" stroke="#1f7a4d" stroke-width="1.2"/>
<rect x="1601.25" y="687.63" width="14.41" height="5.67" fill="#1f7a4d" stroke="#1f7a4d" stroke-width="0.8" fill-opacity="0.9"/>
<line x1="1633.31" y1="656.45" x2="1633.31" y2="690.46" stroke="#c0392b" stroke-width="1.2"/>
<rect x="1626.10" y="664.95" width="14.41" height="25.51" fill="#c0392b" stroke="#c0392b" stroke-width="0.8" fill-opacity="0.9"/>
<line x1="1658.16" y1="667.79" x2="1658.16" y2="721.65" stroke="#1f7a4d" stroke-width="1.2"/>
<rect x="1650.95" y="667.79" width="14.41" height="31.18" fill="#1f7a4d" stroke="#1f7a4d" stroke-width="0.8" fill-opacity="0.9"/>
<line x1="1683.01" y1="681.96" x2="1683.01" y2="721.65" stroke="#1f7a4d" stroke-width="1.2"/>
<rect x="1675.81" y="696.13" width="14.41" height="8.50" fill="#1f7a4d" stroke="#1f7a4d" stroke-width="0.8" fill-opacity="0.9"/>
<line x1="1707.87" y1="681.96" x2="1707.87" y2="747.16" stroke="#1f7a4d" stroke-width="1.2"/>
<rect x="1700.66" y="693.30" width="14.41" height="48.19" fill="#1f7a4d" stroke="#1f7a4d" stroke-width="0.8" fill-opacity="0.9"/>
<line x1="1732.72" y1="713.14" x2="1732.72" y2="747.16" stroke="#c0392b" stroke-width="1.2"/>
<rect x="1725.51" y="713.14" width="14.41" height="25.51" fill="#c0392b" stroke="#c0392b" stroke-width="0.8" fill-opacity="0.9"/>
<line x1="1757.57" y1="715.98" x2="1757.57" y2="772.67" stroke="#1f7a4d" stroke-width="1.2"/>
<rect x="1750.37" y="724.48" width="14.41" height="45.36" fill="#1f7a4d" stroke="#1f7a4d" stroke-width="0.8" fill-opacity="0.9"/>
<line x1="80" y1="945.00" x2="1770" y2="945.00" stroke="#94a3b8" stroke-dasharray="4 4" stroke-width="1"/>
<line x1="80" y1="1024.80" x2="1770" y2="1024.80" stroke="#e5e7eb" stroke-dasharray="3 5" stroke-width="1"/>
<text x="70" y="1028.80" text-anchor="end" font-size="11" font-family="Consolas, monospace" fill="#52606d">-0.28</text>
<line x1="80" y1="984.90" x2="1770" y2="984.90" stroke="#e5e7eb" stroke-dasharray="3 5" stroke-width="1"/>
<text x="70" y="988.90" text-anchor="end" font-size="11" font-family="Consolas, monospace" fill="#52606d">-0.14</text>
<line x1="80" y1="905.10" x2="1770" y2="905.10" stroke="#e5e7eb" stroke-dasharray="3 5" stroke-width="1"/>
<text x="70" y="909.10" text-anchor="end" font-size="11" font-family="Consolas, monospace" fill="#52606d">0.14</text>
<line x1="80" y1="865.20" x2="1770" y2="865.20" stroke="#e5e7eb" stroke-dasharray="3 5" stroke-width="1"/>
<text x="70" y="869.20" text-anchor="end" font-size="11" font-family="Consolas, monospace" fill="#52606d">0.28</text>
<rect x="86.66" y="945.00" width="11.53" height="1.00" fill="#ef4444" fill-opacity="0.72"/>
<rect x="111.51" y="943.56" width="11.53" height="1.44" fill="#ef4444" fill-opacity="0.72"/>
<rect x="136.37" y="945.00" width="11.53" height="3.15" fill="#22c55e" fill-opacity="0.72"/>
<rect x="161.22" y="945.00" width="11.53" height="9.83" fill="#22c55e" fill-opacity="0.72"/>
<rect x="186.07" y="945.00" width="11.53" height="19.25" fill="#22c55e" fill-opacity="0.72"/>
<rect x="210.93" y="945.00" width="11.53" height="20.46" fill="#22c55e" fill-opacity="0.72"/>
<rect x="235.78" y="945.00" width="11.53" height="28.70" fill="#22c55e" fill-opacity="0.72"/>
<rect x="260.63" y="945.00" width="11.53" height="37.60" fill="#22c55e" fill-opacity="0.72"/>
<rect x="285.48" y="945.00" width="11.53" height="43.82" fill="#22c55e" fill-opacity="0.72"/>
<rect x="310.34" y="945.00" width="11.53" height="48.67" fill="#22c55e" fill-opacity="0.72"/>
<rect x="335.19" y="945.00" width="11.53" height="45.43" fill="#22c55e" fill-opacity="0.72"/>
<rect x="360.04" y="945.00" width="11.53" height="44.40" fill="#22c55e" fill-opacity="0.72"/>
<rect x="384.90" y="945.00" width="11.53" height="44.00" fill="#22c55e" fill-opacity="0.72"/>
<rect x="409.75" y="945.00" width="11.53" height="44.63" fill="#22c55e" fill-opacity="0.72"/>
<rect x="434.60" y="945.00" width="11.53" height="39.63" fill="#22c55e" fill-opacity="0.72"/>
<rect x="459.45" y="945.00" width="11.53" height="25.86" fill="#22c55e" fill-opacity="0.72"/>
<rect x="484.31" y="945.00" width="11.53" height="12.32" fill="#22c55e" fill-opacity="0.72"/>
<rect x="509.16" y="943.14" width="11.53" height="1.86" fill="#ef4444" fill-opacity="0.72"/>
<rect x="534.01" y="936.19" width="11.53" height="8.81" fill="#ef4444" fill-opacity="0.72"/>
<rect x="558.87" y="939.56" width="11.53" height="5.44" fill="#ef4444" fill-opacity="0.72"/>
<rect x="583.72" y="940.57" width="11.53" height="4.43" fill="#ef4444" fill-opacity="0.72"/>
<rect x="608.57" y="937.89" width="11.53" height="7.11" fill="#ef4444" fill-opacity="0.72"/>
<rect x="633.43" y="933.78" width="11.53" height="11.22" fill="#ef4444" fill-opacity="0.72"/>
<rect x="658.28" y="935.15" width="11.53" height="9.85" fill="#ef4444" fill-opacity="0.72"/>
<rect x="683.13" y="927.27" width="11.53" height="17.73" fill="#ef4444" fill-opacity="0.72"/>
<rect x="707.98" y="921.62" width="11.53" height="23.38" fill="#ef4444" fill-opacity="0.72"/>
<rect x="732.84" y="920.98" width="11.53" height="24.02" fill="#ef4444" fill-opacity="0.72"/>
<rect x="757.69" y="918.87" width="11.53" height="26.13" fill="#ef4444" fill-opacity="0.72"/>
<rect x="782.54" y="927.56" width="11.53" height="17.44" fill="#ef4444" fill-opacity="0.72"/>
<rect x="807.40" y="926.72" width="11.53" height="18.28" fill="#ef4444" fill-opacity="0.72"/>
<rect x="832.25" y="926.12" width="11.53" height="18.88" fill="#ef4444" fill-opacity="0.72"/>
<rect x="857.10" y="916.73" width="11.53" height="28.27" fill="#ef4444" fill-opacity="0.72"/>
<rect x="881.95" y="922.61" width="11.53" height="22.39" fill="#ef4444" fill-opacity="0.72"/>
<rect x="906.81" y="928.40" width="11.53" height="16.60" fill="#ef4444" fill-opacity="0.72"/>
<rect x="931.66" y="945.00" width="11.53" height="1.00" fill="#22c55e" fill-opacity="0.72"/>
<rect x="956.51" y="945.00" width="11.53" height="7.22" fill="#22c55e" fill-opacity="0.72"/>
<rect x="981.37" y="945.00" width="11.53" height="13.27" fill="#22c55e" fill-opacity="0.72"/>
<rect x="1006.22" y="945.00" width="11.53" height="15.50" fill="#22c55e" fill-opacity="0.72"/>
<rect x="1031.07" y="945.00" width="11.53" height="17.69" fill="#22c55e" fill-opacity="0.72"/>
<rect x="1055.93" y="945.00" width="11.53" height="15.75" fill="#22c55e" fill-opacity="0.72"/>
<rect x="1080.78" y="945.00" width="11.53" height="10.91" fill="#22c55e" fill-opacity="0.72"/>
<rect x="1105.63" y="945.00" width="11.53" height="11.35" fill="#22c55e" fill-opacity="0.72"/>
<rect x="1130.48" y="945.00" width="11.53" height="9.63" fill="#22c55e" fill-opacity="0.72"/>
<rect x="1155.34" y="945.00" width="11.53" height="8.07" fill="#22c55e" fill-opacity="0.72"/>
<rect x="1180.19" y="945.00" width="11.53" height="8.84" fill="#22c55e" fill-opacity="0.72"/>
<rect x="1205.04" y="945.00" width="11.53" height="11.37" fill="#22c55e" fill-opacity="0.72"/>
<rect x="1229.90" y="945.00" width="11.53" height="8.71" fill="#22c55e" fill-opacity="0.72"/>
<rect x="1254.75" y="945.00" width="11.53" height="2.20" fill="#22c55e" fill-opacity="0.72"/>
<rect x="1279.60" y="940.76" width="11.53" height="4.24" fill="#ef4444" fill-opacity="0.72"/>
<rect x="1304.45" y="941.59" width="11.53" height="3.41" fill="#ef4444" fill-opacity="0.72"/>
<rect x="1329.31" y="941.52" width="11.53" height="3.48" fill="#ef4444" fill-opacity="0.72"/>
<rect x="1354.16" y="945.00" width="11.53" height="7.08" fill="#22c55e" fill-opacity="0.72"/>
<rect x="1379.01" y="945.00" width="11.53" height="6.78" fill="#22c55e" fill-opacity="0.72"/>
<rect x="1403.87" y="945.00" width="11.53" height="2.55" fill="#22c55e" fill-opacity="0.72"/>
<rect x="1428.72" y="945.00" width="11.53" height="7.63" fill="#22c55e" fill-opacity="0.72"/>
<rect x="1453.57" y="945.00" width="11.53" height="24.77" fill="#22c55e" fill-opacity="0.72"/>
<rect x="1478.43" y="945.00" width="11.53" height="29.72" fill="#22c55e" fill-opacity="0.72"/>
<rect x="1503.28" y="945.00" width="11.53" height="35.02" fill="#22c55e" fill-opacity="0.72"/>
<rect x="1528.13" y="945.00" width="11.53" height="32.60" fill="#22c55e" fill-opacity="0.72"/>
<rect x="1552.98" y="945.00" width="11.53" height="31.52" fill="#22c55e" fill-opacity="0.72"/>
<rect x="1577.84" y="945.00" width="11.53" height="21.53" fill="#22c55e" fill-opacity="0.72"/>
<rect x="1602.69" y="945.00" width="11.53" height="14.01" fill="#22c55e" fill-opacity="0.72"/>
<rect x="1627.54" y="945.00" width="11.53" height="3.69" fill="#22c55e" fill-opacity="0.72"/>
<rect x="1652.40" y="945.00" width="11.53" height="1.00" fill="#22c55e" fill-opacity="0.72"/>
<rect x="1677.25" y="942.33" width="11.53" height="2.67" fill="#ef4444" fill-opacity="0.72"/>
<rect x="1702.10" y="944.17" width="11.53" height="1.00" fill="#ef4444" fill-opacity="0.72"/>
<rect x="1726.95" y="940.50" width="11.53" height="4.50" fill="#ef4444" fill-opacity="0.72"/>
<rect x="1751.81" y="944.42" width="11.53" height="1.00" fill="#ef4444" fill-opacity="0.72"/>
<path d="M92.43,945.00 L117.28,944.10 L142.13,946.79 L166.99,951.35 L191.84,958.47 L216.69,961.64 L241.54,969.34 L266.40,978.49 L291.25,987.08 L316.10,995.59 L340.96,999.64 L365.81,1004.68 L390.66,1009.98 L415.51,1015.87 L440.37,1018.33 L465.22,1014.68 L490.07,1009.44 L514.93,1002.13 L539.78,997.55 L564.63,998.55 L589.49,998.50 L614.34,996.27 L639.19,992.82 L664.04,992.27 L688.90,986.11 L713.75,980.37 L738.60,977.05 L763.46,972.72 L788.31,974.89 L813.16,972.18 L838.01,969.52 L862.87,961.30 L887.72,961.43 L912.57,962.26 L937.43,971.06 L962.28,975.17 L987.13,979.85 L1011.99,982.90 L1036.84,986.21 L1061.69,987.21 L1086.54,986.15 L1111.40,987.79 L1136.25,988.13 L1161.10,988.36 L1185.96,989.85 L1210.81,992.54 L1235.66,992.30 L1260.51,989.32 L1285.37,985.57 L1310.22,985.56 L1335.07,985.09 L1359.93,991.26 L1384.78,991.95 L1409.63,990.16 L1434.49,993.65 L1459.34,1005.31 L1484.19,1011.51 L1509.04,1018.53 L1533.90,1021.40 L1558.75,1024.80 L1583.60,1022.49 L1608.46,1020.48 L1633.31,1015.79 L1658.16,1014.01 L1683.01,1012.29 L1707.87,1013.10 L1732.72,1010.71 L1757.57,1012.60" fill="none" stroke="#2563eb" stroke-width="1.8"/>
<path d="M92.43,945.00 L117.28,944.82 L142.13,945.21 L166.99,946.44 L191.84,948.85 L216.69,951.40 L241.54,954.99 L266.40,959.69 L291.25,965.17 L316.10,971.25 L340.96,976.93 L365.81,982.48 L390.66,987.98 L415.51,993.56 L440.37,998.51 L465.22,1001.75 L490.07,1003.29 L514.93,1003.05 L539.78,1001.95 L564.63,1001.27 L589.49,1000.72 L614.34,999.83 L639.19,998.43 L664.04,997.20 L688.90,994.98 L713.75,992.06 L738.60,989.05 L763.46,985.79 L788.31,983.61 L813.16,981.32 L838.01,978.96 L862.87,975.43 L887.72,972.63 L912.57,970.56 L937.43,970.66 L962.28,971.56 L987.13,973.22 L1011.99,975.15 L1036.84,977.37 L1061.69,979.33 L1086.54,980.70 L1111.40,982.12 L1136.25,983.32 L1161.10,984.33 L1185.96,985.43 L1210.81,986.86 L1235.66,987.94 L1260.51,988.22 L1285.37,987.69 L1310.22,987.26 L1335.07,986.83 L1359.93,987.71 L1384.78,988.56 L1409.63,988.88 L1434.49,989.83 L1459.34,992.93 L1484.19,996.65 L1509.04,1001.02 L1533.90,1005.10 L1558.75,1009.04 L1583.60,1011.73 L1608.46,1013.48 L1633.31,1013.94 L1658.16,1013.96 L1683.01,1013.62 L1707.87,1013.52 L1732.72,1012.96 L1757.57,1012.88" fill="none" stroke="#f59e0b" stroke-width="1.8"/>
<text x="80" y="842.00" font-size="13" font-family="Segoe UI, Arial, sans-serif" fill="#334155">MACD (12, 26, 9)</text>
<polygon points="110.28,90.82 124.28,90.82 117.28,108.82" fill="#e74c3c" stroke="#e74c3c" stroke-width="1"/>
<polygon points="433.37,462.34 447.37,462.34 440.37,444.34" fill="#27ae60" stroke="#27ae60" stroke-width="1"/>
<polygon points="855.87,255.24 869.87,255.24 862.87,273.24" fill="#e74c3c" stroke="#e74c3c" stroke-width="1"/>
<polygon points="1477.19,791.18 1491.19,791.18 1484.19,773.18" fill="#27ae60" stroke="#27ae60" stroke-width="1"/>
<line x1="117.28" y1="100.82" x2="440.37" y2="452.34" stroke="#d68910" stroke-width="2.2"/>
<line x1="440.37" y1="452.34" x2="862.87" y2="265.24" stroke="#2874a6" stroke-width="2.2"/>
<line x1="862.87" y1="265.24" x2="1484.19" y2="781.18" stroke="#d68910" stroke-width="2.2"/>
<line x1="1484.19" y1="781.18" x2="1633.31" y2="656.45" stroke="#2874a6" stroke-width="1.5" stroke-dasharray="5 5"/>
<line x1="92.43" y1="1040.00" x2="92.43" y2="1046.00" stroke="#7b8794" stroke-width="1"/>
<text x="92.43" y="1064.00" text-anchor="middle" font-size="10" font-family="Consolas, monospace" fill="#52606d">01-06 00:00</text>
<line x1="241.54" y1="1040.00" x2="241.54" y2="1046.00" stroke="#7b8794" stroke-width="1"/>
<text x="241.54" y="1064.00" text-anchor="middle" font-size="10" font-family="Consolas, monospace" fill="#52606d">01-14 00:00</text>
<line x1="390.66" y1="1040.00" x2="390.66" y2="1046.00" stroke="#7b8794" stroke-width="1"/>
<text x="390.66" y="1064.00" text-anchor="middle" font-size="10" font-family="Consolas, monospace" fill="#52606d">01-22 00:00</text>
<line x1="539.78" y1="1040.00" x2="539.78" y2="1046.00" stroke="#7b8794" stroke-width="1"/>
<text x="539.78" y="1064.00" text-anchor="middle" font-size="10" font-family="Consolas, monospace" fill="#52606d">01-30 00:00</text>
<line x1="688.90" y1="1040.00" x2="688.90" y2="1046.00" stroke="#7b8794" stroke-width="1"/>
<text x="688.90" y="1064.00" text-anchor="middle" font-size="10" font-family="Consolas, monospace" fill="#52606d">02-09 00:00</text>
<line x1="838.01" y1="1040.00" x2="838.01" y2="1046.00" stroke="#7b8794" stroke-width="1"/>
<text x="838.01" y="1064.00" text-anchor="middle" font-size="10" font-family="Consolas, monospace" fill="#52606d">02-20 00:00</text>
<line x1="987.13" y1="1040.00" x2="987.13" y2="1046.00" stroke="#7b8794" stroke-width="1"/>
<text x="987.13" y="1064.00" text-anchor="middle" font-size="10" font-family="Consolas, monospace" fill="#52606d">03-02 00:00</text>
<line x1="1136.25" y1="1040.00" x2="1136.25" y2="1046.00" stroke="#7b8794" stroke-width="1"/>
<text x="1136.25" y="1064.00" text-anchor="middle" font-size="10" font-family="Consolas, monospace" fill="#52606d">03-10 00:00</text>
<line x1="1285.37" y1="1040.00" x2="1285.37" y2="1046.00" stroke="#7b8794" stroke-width="1"/>
<text x="1285.37" y="1064.00" text-anchor="middle" font-size="10" font-family="Consolas, monospace" fill="#52606d">03-18 00:00</text>
<line x1="1434.49" y1="1040.00" x2="1434.49" y2="1046.00" stroke="#7b8794" stroke-width="1"/>
<text x="1434.49" y="1064.00" text-anchor="middle" font-size="10" font-family="Consolas, monospace" fill="#52606d">03-26 00:00</text>
<line x1="1583.60" y1="1040.00" x2="1583.60" y2="1046.00" stroke="#7b8794" stroke-width="1"/>
<text x="1583.60" y="1064.00" text-anchor="middle" font-size="10" font-family="Consolas, monospace" fill="#52606d">04-08 00:00</text>
<line x1="1732.72" y1="1040.00" x2="1732.72" y2="1046.00" stroke="#7b8794" stroke-width="1"/>
<text x="1732.72" y="1064.00" text-anchor="middle" font-size="10" font-family="Consolas, monospace" fill="#52606d">04-16 00:00</text>
<rect x="1520" y="74" width="240" height="146" rx="8" fill="#ffffff" stroke="#d9e2ec"/>
<rect x="1532" y="88" width="22" height="12" fill="#5dade2" fill-opacity="0.12" stroke="#1f618d" stroke-dasharray="6 4"/>
<text x="1564" y="98" font-size="12" font-family="Segoe UI, Arial, sans-serif" fill="#1f2d3d">Inclusion box</text>
<rect x="1532" y="108" width="22" height="12" fill="#f5b041" fill-opacity="0.18" stroke="#b9770e"/>
<text x="1564" y="118" font-size="12" font-family="Segoe UI, Arial, sans-serif" fill="#1f2d3d">Bi zhongshu</text>
<line x1="1532" y1="136" x2="1554" y2="136" stroke="#2874a6" stroke-width="2.2"/>
<text x="1564" y="140" font-size="12" font-family="Segoe UI, Arial, sans-serif" fill="#1f2d3d">Confirmed bi</text>
<line x1="1532" y1="154" x2="1554" y2="154" stroke="#d68910" stroke-width="1.5" stroke-dasharray="5 5"/>
<text x="1564" y="158" font-size="12" font-family="Segoe UI, Arial, sans-serif" fill="#1f2d3d">Unconfirmed bi</text>
<rect x="1532" y="170" width="22" height="12" fill="#ef4444" fill-opacity="0.72"/>
<text x="1564" y="180" font-size="12" font-family="Segoe UI, Arial, sans-serif" fill="#1f2d3d">MACD histogram+</text>
<rect x="1532" y="188" width="22" height="12" fill="#22c55e" fill-opacity="0.72"/>
<text x="1564" y="198" font-size="12" font-family="Segoe UI, Arial, sans-serif" fill="#1f2d3d">MACD histogram-</text>
<line x1="1532" y1="212" x2="1554" y2="212" stroke="#2563eb" stroke-width="1.8"/>
<text x="1564" y="216" font-size="12" font-family="Segoe UI, Arial, sans-serif" fill="#1f2d3d">DIF / DEA</text>
</svg>