<svg xmlns="http://www.w3.org/2000/svg" width="1800" height="1120" viewBox="0 0 1800 1120">
<rect width="100%" height="100%" fill="#fbfcfe"/>
<text x="900.0" y="34" text-anchor="middle" font-size="24" font-family="Segoe UI, Arial, sans-serif" fill="#1f2d3d">03690 美团 日线</text>
<line x1="80" y1="822.00" x2="1770" y2="822.00" stroke="#d9e2ec" stroke-dasharray="4 6" stroke-width="1"/>
<text x="70" y="826.00" text-anchor="end" font-size="11" font-family="Consolas, monospace" fill="#52606d">72.52</text>
<line x1="80" y1="669.60" x2="1770" y2="669.60" stroke="#d9e2ec" stroke-dasharray="4 6" stroke-width="1"/>
<text x="70" y="673.60" text-anchor="end" font-size="11" font-family="Consolas, monospace" fill="#52606d">76.54</text>
<line x1="80" y1="517.20" x2="1770" y2="517.20" stroke="#d9e2ec" stroke-dasharray="4 6" stroke-width="1"/>
<text x="70" y="521.20" text-anchor="end" font-size="11" font-family="Consolas, monospace" fill="#52606d">80.56</text>
<line x1="80" y1="364.80" x2="1770" y2="364.80" stroke="#d9e2ec" stroke-dasharray="4 6" stroke-width="1"/>
<text x="70" y="368.80" text-anchor="end" font-size="11" font-family="Consolas, monospace" fill="#52606d">84.59</text>
<line x1="80" y1="212.40" x2="1770" y2="212.40" stroke="#d9e2ec" stroke-dasharray="4 6" stroke-width="1"/>
<text x="70" y="216.40" text-anchor="end" font-size="11" font-family="Consolas, monospace" fill="#52606d">88.61</text>
<line x1="80" y1="60.00" x2="1770" y2="60.00" stroke="#d9e2ec" stroke-dasharray="4 6" stroke-width="1"/>
<text x="70" y="64.00" text-anchor="end" font-size="11" font-family="Consolas, monospace" fill="#52606d">92.63</text>
<line x1="80" y1="850.00" x2="1770" y2="850.00" stroke="#cbd2d9" stroke-width="1"/>
<rect x="210.00" y="616.30" width="130.00" height="155.40" fill="#5dade2" fill-opacity="0.12" stroke="#1f618d" stroke-width="1.2" stroke-dasharray="6 4"/>
<rect x="730.00" y="455.21" width="130.00" height="98.55" fill="#5dade2" fill-opacity="0.12" stroke="#1f618d" stroke-width="1.2" stroke-dasharray="6 4"/>
<rect x="860.00" y="479.85" width="130.00" height="128.87" fill="#5dade2" fill-opacity="0.12" stroke="#1f618d" stroke-width="1.2" stroke-dasharray="6 4"/>
<rect x="1120.00" y="100.82" width="130.00" height="229.31" fill="#5dade2" fill-opacity="0.12" stroke="#1f618d" stroke-width="1.2" stroke-dasharray="6 4"/>
<rect x="1380.00" y="356.67" width="130.00" height="145.93" fill="#5dade2" fill-opacity="0.12" stroke="#1f618d" stroke-width="1.2" stroke-dasharray="6 4"/>
<rect x="1575.00" y="163.36" width="130.00" height="113.71" fill="#5dade2" fill-opacity="0.12" stroke="#1f618d" stroke-width="1.2" stroke-dasharray="6 4"/>
<line x1="112.50" y1="608.72" x2="112.50" y2="714.85" stroke="#1f7a4d" stroke-width="1.2"/>
<rect x="93.65" y="642.83" width="37.70" height="60.64" fill="#1f7a4d" stroke="#1f7a4d" stroke-width="0.8" fill-opacity="0.9"/>
<line x1="177.50" y1="703.48" x2="177.50" y2="781.18" stroke="#c0392b" stroke-width="1.2"/>
<rect x="158.65" y="712.95" width="37.70" height="28.43" fill="#c0392b" stroke="#c0392b" stroke-width="0.8" fill-opacity="0.9"/>
<line x1="242.50" y1="665.57" x2="242.50" y2="771.70" stroke="#1f7a4d" stroke-width="1.2"/>
<rect x="223.65" y="665.57" width="37.70" height="81.49" fill="#1f7a4d" stroke="#1f7a4d" stroke-width="0.8" fill-opacity="0.9"/>
<line x1="307.50" y1="616.30" x2="307.50" y2="779.28" stroke="#c0392b" stroke-width="1.2"/>
<rect x="288.65" y="657.99" width="37.70" height="89.07" fill="#c0392b" stroke="#c0392b" stroke-width="0.8" fill-opacity="0.9"/>
<line x1="372.50" y1="576.50" x2="372.50" y2="766.02" stroke="#c0392b" stroke-width="1.2"/>
<rect x="353.65" y="587.87" width="37.70" height="162.98" fill="#c0392b" stroke="#c0392b" stroke-width="0.8" fill-opacity="0.9"/>
<line x1="437.50" y1="517.75" x2="437.50" y2="631.46" stroke="#1f7a4d" stroke-width="1.2"/>
<rect x="418.65" y="538.60" width="37.70" height="34.11" fill="#1f7a4d" stroke="#1f7a4d" stroke-width="0.8" fill-opacity="0.9"/>
<line x1="502.50" y1="553.76" x2="502.50" y2="665.57" stroke="#1f7a4d" stroke-width="1.2"/>
<rect x="483.65" y="570.82" width="37.70" height="66.33" fill="#1f7a4d" stroke="#1f7a4d" stroke-width="0.8" fill-opacity="0.9"/>
<line x1="567.50" y1="644.73" x2="567.50" y2="712.95" stroke="#c0392b" stroke-width="1.2"/>
<rect x="548.65" y="663.68" width="37.70" height="7.58" fill="#c0392b" stroke="#c0392b" stroke-width="0.8" fill-opacity="0.9"/>
<line x1="632.50" y1="637.15" x2="632.50" y2="695.90" stroke="#1f7a4d" stroke-width="1.2"/>
<rect x="613.65" y="690.21" width="37.70" height="1.90" fill="#1f7a4d" stroke="#1f7a4d" stroke-width="0.8" fill-opacity="0.9"/>
<line x1="697.50" y1="576.50" x2="697.50" y2="671.26" stroke="#c0392b" stroke-width="1.2"/>
<rect x="678.65" y="603.03" width="37.70" height="53.06" fill="#c0392b" stroke="#c0392b" stroke-width="0.8" fill-opacity="0.9"/>
<line x1="762.50" y1="455.21" x2="762.50" y2="599.24" stroke="#c0392b" stroke-width="1.2"/>
<rect x="743.65" y="538.60" width="37.70" height="58.75" fill="#c0392b" stroke="#c0392b" stroke-width="0.8" fill-opacity="0.9"/>
<line x1="827.50" y1="485.54" x2="827.50" y2="553.76" stroke="#1f7a4d" stroke-width="1.2"/>
<rect x="808.65" y="517.75" width="37.70" height="9.48" fill="#1f7a4d" stroke="#1f7a4d" stroke-width="0.8" fill-opacity="0.9"/>
<line x1="892.50" y1="479.85" x2="892.50" y2="595.45" stroke="#c0392b" stroke-width="1.2"/>
<rect x="873.65" y="512.07" width="37.70" height="75.81" fill="#c0392b" stroke="#c0392b" stroke-width="0.8" fill-opacity="0.9"/>
<line x1="957.50" y1="438.16" x2="957.50" y2="608.72" stroke="#1f7a4d" stroke-width="1.2"/>
<rect x="938.65" y="479.85" width="37.70" height="90.97" fill="#1f7a4d" stroke="#1f7a4d" stroke-width="0.8" fill-opacity="0.9"/>
<line x1="1022.50" y1="595.45" x2="1022.50" y2="695.90" stroke="#1f7a4d" stroke-width="1.2"/>
<rect x="1003.65" y="621.99" width="37.70" height="47.38" fill="#1f7a4d" stroke="#1f7a4d" stroke-width="0.8" fill-opacity="0.9"/>
<line x1="1087.50" y1="568.92" x2="1087.50" y2="661.78" stroke="#c0392b" stroke-width="1.2"/>
<rect x="1068.65" y="576.50" width="37.70" height="85.28" fill="#c0392b" stroke="#c0392b" stroke-width="0.8" fill-opacity="0.9"/>
<line x1="1152.50" y1="100.82" x2="1152.50" y2="593.56" stroke="#c0392b" stroke-width="1.2"/>
<rect x="1133.65" y="159.57" width="37.70" height="380.92" fill="#c0392b" stroke="#c0392b" stroke-width="0.8" fill-opacity="0.9"/>
<line x1="1217.50" y1="134.93" x2="1217.50" y2="330.13" stroke="#1f7a4d" stroke-width="1.2"/>
<rect x="1198.65" y="159.57" width="37.70" height="125.08" fill="#1f7a4d" stroke="#1f7a4d" stroke-width="0.8" fill-opacity="0.9"/>
<line x1="1282.50" y1="133.04" x2="1282.50" y2="360.46" stroke="#1f7a4d" stroke-width="1.2"/>
<rect x="1263.65" y="305.50" width="37.70" height="9.48" fill="#1f7a4d" stroke="#1f7a4d" stroke-width="0.8" fill-opacity="0.9"/>
<line x1="1347.50" y1="288.44" x2="1347.50" y2="436.26" stroke="#c0392b" stroke-width="1.2"/>
<rect x="1328.65" y="379.41" width="37.70" height="18.95" fill="#c0392b" stroke="#c0392b" stroke-width="0.8" fill-opacity="0.9"/>
<line x1="1412.50" y1="356.67" x2="1412.50" y2="443.84" stroke="#1f7a4d" stroke-width="1.2"/>
<rect x="1393.65" y="394.57" width="37.70" height="32.22" fill="#1f7a4d" stroke="#1f7a4d" stroke-width="0.8" fill-opacity="0.9"/>
<line x1="1477.50" y1="326.34" x2="1477.50" y2="502.59" stroke="#1f7a4d" stroke-width="1.2"/>
<rect x="1458.65" y="349.09" width="37.70" height="115.60" fill="#1f7a4d" stroke="#1f7a4d" stroke-width="0.8" fill-opacity="0.9"/>
<line x1="1542.50" y1="481.75" x2="1542.50" y2="587.87" stroke="#1f7a4d" stroke-width="1.2"/>
<rect x="1523.65" y="489.33" width="37.70" height="39.80" fill="#1f7a4d" stroke="#1f7a4d" stroke-width="0.8" fill-opacity="0.9"/>
<line x1="1607.50" y1="163.36" x2="1607.50" y2="443.84" stroke="#c0392b" stroke-width="1.2"/>
<rect x="1588.65" y="216.43" width="37.70" height="225.52" fill="#c0392b" stroke="#c0392b" stroke-width="0.8" fill-opacity="0.9"/>
<line x1="1672.50" y1="170.94" x2="1672.50" y2="277.07" stroke="#c0392b" stroke-width="1.2"/>
<rect x="1653.65" y="235.38" width="37.70" height="28.43" fill="#c0392b" stroke="#c0392b" stroke-width="0.8" fill-opacity="0.9"/>
<line x1="1737.50" y1="127.35" x2="1737.50" y2="261.91" stroke="#1f7a4d" stroke-width="1.2"/>
<rect x="1718.65" y="225.90" width="37.70" height="24.64" fill="#1f7a4d" stroke="#1f7a4d" stroke-width="0.8" fill-opacity="0.9"/>
<line x1="80" y1="945.00" x2="1770" y2="945.00" stroke="#94a3b8" stroke-dasharray="4 4" stroke-width="1"/>
<line x1="80" y1="1024.80" x2="1770" y2="1024.80" stroke="#e5e7eb" stroke-dasharray="3 5" stroke-width="1"/>
<text x="70" y="1028.80" text-anchor="end" font-size="11" font-family="Consolas, monospace" fill="#52606d">-2.51</text>
<line x1="80" y1="984.90" x2="1770" y2="984.90" stroke="#e5e7eb" stroke-dasharray="3 5" stroke-width="1"/>
<text x="70" y="988.90" text-anchor="end" font-size="11" font-family="Consolas, monospace" fill="#52606d">-1.26</text>
<line x1="80" y1="905.10" x2="1770" y2="905.10" stroke="#e5e7eb" stroke-dasharray="3 5" stroke-width="1"/>
<text x="70" y="909.10" text-anchor="end" font-size="11" font-family="Consolas, monospace" fill="#52606d">1.26</text>
<line x1="80" y1="865.20" x2="1770" y2="865.20" stroke="#e5e7eb" stroke-dasharray="3 5" stroke-width="1"/>
<text x="70" y="869.20" text-anchor="end" font-size="11" font-family="Consolas, monospace" fill="#52606d">2.51</text>
<rect x="97.42" y="945.00" width="30.16" height="1.00" fill="#ef4444" fill-opacity="0.72"/>
<rect x="162.42" y="945.00" width="30.16" height="1.01" fill="#22c55e" fill-opacity="0.72"/>
<rect x="227.42" y="945.00" width="30.16" height="5.24" fill="#22c55e" fill-opacity="0.72"/>
<rect x="292.42" y="943.08" width="30.16" height="1.92" fill="#ef4444" fill-opacity="0.72"/>
<rect x="357.42" y="931.17" width="30.16" height="13.83" fill="#ef4444" fill-opacity="0.72"/>
<rect x="422.42" y="922.83" width="30.16" height="22.17" fill="#ef4444" fill-opacity="0.72"/>
<rect x="487.42" y="925.73" width="30.16" height="19.27" fill="#ef4444" fill-opacity="0.72"/>
<rect x="552.42" y="931.52" width="30.16" height="13.48" fill="#ef4444" fill-opacity="0.72"/>
<rect x="617.42" y="939.04" width="30.16" height="5.96" fill="#ef4444" fill-opacity="0.72"/>
<rect x="682.42" y="934.70" width="30.16" height="10.30" fill="#ef4444" fill-opacity="0.72"/>
<rect x="747.42" y="925.80" width="30.16" height="19.20" fill="#ef4444" fill-opacity="0.72"/>
<rect x="812.42" y="920.24" width="30.16" height="24.76" fill="#ef4444" fill-opacity="0.72"/>
<rect x="877.42" y="916.72" width="30.16" height="28.28" fill="#ef4444" fill-opacity="0.72"/>
<rect x="942.42" y="922.63" width="30.16" height="22.37" fill="#ef4444" fill-opacity="0.72"/>
<rect x="1007.42" y="938.45" width="30.16" height="6.55" fill="#ef4444" fill-opacity="0.72"/>
<rect x="1072.42" y="939.19" width="30.16" height="5.81" fill="#ef4444" fill-opacity="0.72"/>
<rect x="1137.42" y="895.76" width="30.16" height="49.24" fill="#ef4444" fill-opacity="0.72"/>
<rect x="1202.42" y="885.05" width="30.16" height="59.95" fill="#ef4444" fill-opacity="0.72"/>
<rect x="1267.42" y="885.40" width="30.16" height="59.60" fill="#ef4444" fill-opacity="0.72"/>
<rect x="1332.42" y="896.46" width="30.16" height="48.54" fill="#ef4444" fill-opacity="0.72"/>
<rect x="1397.42" y="911.92" width="30.16" height="33.08" fill="#ef4444" fill-opacity="0.72"/>
<rect x="1462.42" y="928.40" width="30.16" height="16.60" fill="#ef4444" fill-opacity="0.72"/>
<rect x="1527.42" y="945.00" width="30.16" height="2.54" fill="#22c55e" fill-opacity="0.72"/>
<rect x="1592.42" y="926.96" width="30.16" height="18.04" fill="#ef4444" fill-opacity="0.72"/>
<rect x="1657.42" y="918.11" width="30.16" height="26.89" fill="#ef4444" fill-opacity="0.72"/>
<rect x="1722.42" y="916.73" width="30.16" height="28.27" fill="#ef4444" fill-opacity="0.72"/>
<path d="M112.50,945.00 L177.50,945.63 L242.50,948.40 L307.50,944.58 L372.50,936.90 L437.50,929.96 L502.50,929.00 L567.50,930.21 L632.50,933.22 L697.50,929.76 L762.50,922.92 L827.50,917.04 L892.50,911.74 L957.50,911.90 L1022.50,919.00 L1087.50,918.64 L1152.50,890.77 L1217.50,877.92 L1282.50,870.65 L1347.50,870.11 L1412.50,873.70 L1477.50,879.87 L1542.50,889.75 L1607.50,877.21 L1672.50,869.43 L1737.50,865.20" fill="none" stroke="#2563eb" stroke-width="1.8"/>
<path d="M112.50,945.00 L177.50,945.13 L242.50,945.78 L307.50,945.54 L372.50,943.81 L437.50,941.04 L502.50,938.63 L567.50,936.95 L632.50,936.20 L697.50,934.92 L762.50,932.52 L827.50,929.42 L892.50,925.89 L957.50,923.09 L1022.50,922.27 L1087.50,921.54 L1152.50,915.39 L1217.50,907.90 L1282.50,900.45 L1347.50,894.38 L1412.50,890.24 L1477.50,888.17 L1542.50,888.49 L1607.50,886.23 L1672.50,882.87 L1737.50,879.34" fill="none" stroke="#f59e0b" stroke-width="1.8"/>
<text x="80" y="842.00" font-size="13" font-family="Segoe UI, Arial, sans-serif" fill="#334155">MACD (12, 26, 9)</text>
<line x1="177.50" y1="781.18" x2="1152.50" y2="100.82" stroke="#2874a6" stroke-width="1.5" stroke-dasharray="5 5"/>
<line x1="112.50" y1="1040.00" x2="112.50" y2="1046.00" stroke="#7b8794" stroke-width="1"/>
<text x="112.50" y="1064.00" text-anchor="middle" font-size="10" font-family="Consolas, monospace" fill="#52606d">03-03 00:00</text>
<line x1="307.50" y1="1040.00" x2="307.50" y2="1046.00" stroke="#7b8794" stroke-width="1"/>
<text x="307.50" y="1064.00" text-anchor="middle" font-size="10" font-family="Consolas, monospace" fill="#52606d">03-06 00:00</text>
<line x1="502.50" y1="1040.00" x2="502.50" y2="1046.00" stroke="#7b8794" stroke-width="1"/>
<text x="502.50" y="1064.00" text-anchor="middle" font-size="10" font-family="Consolas, monospace" fill="#52606d">03-11 00:00</text>
<line x1="697.50" y1="1040.00" x2="697.50" y2="1046.00" stroke="#7b8794" stroke-width="1"/>
<text x="697.50" y="1064.00" text-anchor="middle" font-size="10" font-family="Consolas, monospace" fill="#52606d">03-16 00:00</text>
<line x1="892.50" y1="1040.00" x2="892.50" y2="1046.00" stroke="#7b8794" stroke-width="1"/>
<text x="892.50" y="1064.00" text-anchor="middle" font-size="10" font-family="Consolas, monospace" fill="#52606d">03-19 00:00</text>
<line x1="1087.50" y1="1040.00" x2="1087.50" y2="1046.00" stroke="#7b8794" stroke-width="1"/>
<text x="1087.50" y="1064.00" text-anchor="middle" font-size="10" font-family="Consolas, monospace" fill="#52606d">03-24 00:00</text>
<line x1="1282.50" y1="1040.00" x2="1282.50" y2="1046.00" stroke="#7b8794" stroke-width="1"/>
<text x="1282.50" y="1064.00" text-anchor="middle" font-size="10" font-family="Consolas, monospace" fill="#52606d">03-27 00:00</text>
<line x1="1477.50" y1="1040.00" x2="1477.50" y2="1046.00" stroke="#7b8794" stroke-width="1"/>
<text x="1477.50" y="1064.00" text-anchor="middle" font-size="10" font-family="Consolas, monospace" fill="#52606d">04-01 00:00</text>
<line x1="1672.50" y1="1040.00" x2="1672.50" y2="1046.00" stroke="#7b8794" stroke-width="1"/>
<text x="1672.50" y="1064.00" text-anchor="middle" font-size="10" font-family="Consolas, monospace" fill="#52606d">04-09 00:00</text>
<rect x="1520" y="74" width="240" height="146" rx="8" fill="#ffffff" stroke="#d9e2ec"/>
<rect x="1532" y="88" width="22" height="12" fill="#5dade2" fill-opacity="0.12" stroke="#1f618d" stroke-dasharray="6 4"/>
<text x="1564" y="98" font-size="12" font-family="Segoe UI, Arial, sans-serif" fill="#1f2d3d">Inclusion box</text>
<rect x="1532" y="108" width="22" height="12" fill="#f5b041" fill-opacity="0.18" stroke="#b9770e"/>
<text x="1564" y="118" font-size="12" font-family="Segoe UI, Arial, sans-serif" fill="#1f2d3d">Bi zhongshu</text>
<line x1="1532" y1="136" x2="1554" y2="136" stroke="#2874a6" stroke-width="2.2"/>
<text x="1564" y="140" font-size="12" font-family="Segoe UI, Arial, sans-serif" fill="#1f2d3d">Confirmed bi</text>
<line x1="1532" y1="154" x2="1554" y2="154" stroke="#d68910" stroke-width="1.5" stroke-dasharray="5 5"/>
<text x="1564" y="158" font-size="12" font-family="Segoe UI, Arial, sans-serif" fill="#1f2d3d">Unconfirmed bi</text>
<rect x="1532" y="170" width="22" height="12" fill="#ef4444" fill-opacity="0.72"/>
<text x="1564" y="180" font-size="12" font-family="Segoe UI, Arial, sans-serif" fill="#1f2d3d">MACD histogram+</text>
<rect x="1532" y="188" width="22" height="12" fill="#22c55e" fill-opacity="0.72"/>
<text x="1564" y="198" font-size="12" font-family="Segoe UI, Arial, sans-serif" fill="#1f2d3d">MACD histogram-</text>
<line x1="1532" y1="212" x2="1554" y2="212" stroke="#2563eb" stroke-width="1.8"/>
<text x="1564" y="216" font-size="12" font-family="Segoe UI, Arial, sans-serif" fill="#1f2d3d">DIF / DEA</text>
</svg>