<svg xmlns="http://www.w3.org/2000/svg" width="1800" height="1120" viewBox="0 0 1800 1120">
<rect width="100%" height="100%" fill="#fbfcfe"/>
<text x="900.0" y="34" text-anchor="middle" font-size="24" font-family="Segoe UI, Arial, sans-serif" fill="#1f2d3d">Meituan 03690 60m - Inclusion/Fractals/Bis/Zhongshu/MACD</text>
<line x1="80" y1="822.00" x2="1770" y2="822.00" stroke="#d9e2ec" stroke-dasharray="4 6" stroke-width="1"/>
<text x="70" y="826.00" text-anchor="end" font-size="11" font-family="Consolas, monospace" fill="#52606d">77.97</text>
<line x1="80" y1="669.60" x2="1770" y2="669.60" stroke="#d9e2ec" stroke-dasharray="4 6" stroke-width="1"/>
<text x="70" y="673.60" text-anchor="end" font-size="11" font-family="Consolas, monospace" fill="#52606d">80.69</text>
<line x1="80" y1="517.20" x2="1770" y2="517.20" stroke="#d9e2ec" stroke-dasharray="4 6" stroke-width="1"/>
<text x="70" y="521.20" text-anchor="end" font-size="11" font-family="Consolas, monospace" fill="#52606d">83.41</text>
<line x1="80" y1="364.80" x2="1770" y2="364.80" stroke="#d9e2ec" stroke-dasharray="4 6" stroke-width="1"/>
<text x="70" y="368.80" text-anchor="end" font-size="11" font-family="Consolas, monospace" fill="#52606d">86.14</text>
<line x1="80" y1="212.40" x2="1770" y2="212.40" stroke="#d9e2ec" stroke-dasharray="4 6" stroke-width="1"/>
<text x="70" y="216.40" text-anchor="end" font-size="11" font-family="Consolas, monospace" fill="#52606d">88.86</text>
<line x1="80" y1="60.00" x2="1770" y2="60.00" stroke="#d9e2ec" stroke-dasharray="4 6" stroke-width="1"/>
<text x="70" y="64.00" text-anchor="end" font-size="11" font-family="Consolas, monospace" fill="#52606d">91.58</text>
<line x1="80" y1="850.00" x2="1770" y2="850.00" stroke="#cbd2d9" stroke-width="1"/>
<rect x="249.00" y="694.38" width="37.56" height="39.20" fill="#5dade2" fill-opacity="0.12" stroke="#1f618d" stroke-width="1.2" stroke-dasharray="6 4"/>
<rect x="380.44" y="218.41" width="37.56" height="42.00" fill="#5dade2" fill-opacity="0.12" stroke="#1f618d" stroke-width="1.2" stroke-dasharray="6 4"/>
<rect x="418.00" y="235.21" width="37.56" height="86.79" fill="#5dade2" fill-opacity="0.12" stroke="#1f618d" stroke-width="1.2" stroke-dasharray="6 4"/>
<rect x="530.67" y="100.82" width="37.56" height="123.19" fill="#5dade2" fill-opacity="0.12" stroke="#1f618d" stroke-width="1.2" stroke-dasharray="6 4"/>
<rect x="680.89" y="364.00" width="37.56" height="33.60" fill="#5dade2" fill-opacity="0.12" stroke="#1f618d" stroke-width="1.2" stroke-dasharray="6 4"/>
<rect x="737.22" y="266.01" width="37.56" height="95.19" fill="#5dade2" fill-opacity="0.12" stroke="#1f618d" stroke-width="1.2" stroke-dasharray="6 4"/>
<rect x="793.56" y="450.80" width="37.56" height="47.60" fill="#5dade2" fill-opacity="0.12" stroke="#1f618d" stroke-width="1.2" stroke-dasharray="6 4"/>
<rect x="831.11" y="406.00" width="37.56" height="25.20" fill="#5dade2" fill-opacity="0.12" stroke="#1f618d" stroke-width="1.2" stroke-dasharray="6 4"/>
<rect x="868.67" y="249.21" width="37.56" height="95.19" fill="#5dade2" fill-opacity="0.12" stroke="#1f618d" stroke-width="1.2" stroke-dasharray="6 4"/>
<rect x="1018.89" y="215.61" width="37.56" height="50.40" fill="#5dade2" fill-opacity="0.12" stroke="#1f618d" stroke-width="1.2" stroke-dasharray="6 4"/>
<rect x="1056.44" y="179.22" width="37.56" height="47.60" fill="#5dade2" fill-opacity="0.12" stroke="#1f618d" stroke-width="1.2" stroke-dasharray="6 4"/>
<rect x="1112.78" y="389.20" width="37.56" height="61.60" fill="#5dade2" fill-opacity="0.12" stroke="#1f618d" stroke-width="1.2" stroke-dasharray="6 4"/>
<rect x="1206.67" y="389.20" width="37.56" height="75.60" fill="#5dade2" fill-opacity="0.12" stroke="#1f618d" stroke-width="1.2" stroke-dasharray="6 4"/>
<rect x="1300.56" y="347.21" width="75.11" height="81.19" fill="#5dade2" fill-opacity="0.12" stroke="#1f618d" stroke-width="1.2" stroke-dasharray="6 4"/>
<rect x="1375.67" y="305.21" width="56.33" height="56.00" fill="#5dade2" fill-opacity="0.12" stroke="#1f618d" stroke-width="1.2" stroke-dasharray="6 4"/>
<rect x="1544.67" y="526.39" width="56.33" height="50.40" fill="#5dade2" fill-opacity="0.12" stroke="#1f618d" stroke-width="1.2" stroke-dasharray="6 4"/>
<rect x="1619.78" y="529.19" width="37.56" height="19.60" fill="#5dade2" fill-opacity="0.12" stroke="#1f618d" stroke-width="1.2" stroke-dasharray="6 4"/>
<rect x="1694.89" y="512.40" width="37.56" height="81.19" fill="#5dade2" fill-opacity="0.12" stroke="#1f618d" stroke-width="1.2" stroke-dasharray="6 4"/>
<rect x="530.67" y="179.22" width="863.78" height="285.58" fill="#f5b041" fill-opacity="0.18" stroke="#b9770e" stroke-width="1.4"/>
<text x="536.67" y="173.22" font-size="11" font-family="Consolas, monospace" fill="#935116">ZS0</text>
<line x1="89.39" y1="394.80" x2="89.39" y2="596.39" stroke="#1f7a4d" stroke-width="1.2"/>
<rect x="83.94" y="428.40" width="10.89" height="159.59" fill="#1f7a4d" stroke="#1f7a4d" stroke-width="0.8" fill-opacity="0.9"/>
<line x1="108.17" y1="571.19" x2="108.17" y2="618.79" stroke="#1f7a4d" stroke-width="1.2"/>
<rect x="102.72" y="587.99" width="10.89" height="19.60" fill="#1f7a4d" stroke="#1f7a4d" stroke-width="0.8" fill-opacity="0.9"/>
<line x1="126.94" y1="599.19" x2="126.94" y2="655.19" stroke="#c0392b" stroke-width="1.2"/>
<rect x="121.50" y="607.59" width="10.89" height="2.80" fill="#c0392b" stroke="#c0392b" stroke-width="0.8" fill-opacity="0.9"/>
<line x1="145.72" y1="582.39" x2="145.72" y2="624.39" stroke="#c0392b" stroke-width="1.2"/>
<rect x="140.28" y="582.39" width="10.89" height="28.00" fill="#c0392b" stroke="#c0392b" stroke-width="0.8" fill-opacity="0.9"/>
<line x1="164.50" y1="554.39" x2="164.50" y2="587.99" stroke="#c0392b" stroke-width="1.2"/>
<rect x="159.05" y="573.99" width="10.89" height="11.20" fill="#c0392b" stroke="#c0392b" stroke-width="0.8" fill-opacity="0.9"/>
<line x1="183.28" y1="573.99" x2="183.28" y2="613.19" stroke="#1f7a4d" stroke-width="1.2"/>
<rect x="177.83" y="573.99" width="10.89" height="25.20" fill="#1f7a4d" stroke="#1f7a4d" stroke-width="0.8" fill-opacity="0.9"/>
<line x1="202.06" y1="624.39" x2="202.06" y2="778.38" stroke="#1f7a4d" stroke-width="1.2"/>
<rect x="196.61" y="638.39" width="10.89" height="114.79" fill="#1f7a4d" stroke="#1f7a4d" stroke-width="0.8" fill-opacity="0.9"/>
<line x1="220.83" y1="725.18" x2="220.83" y2="781.18" stroke="#c0392b" stroke-width="1.2"/>
<rect x="215.39" y="725.18" width="10.89" height="30.80" fill="#c0392b" stroke="#c0392b" stroke-width="0.8" fill-opacity="0.9"/>
<line x1="239.61" y1="725.18" x2="239.61" y2="761.58" stroke="#1f7a4d" stroke-width="1.2"/>
<rect x="234.17" y="727.98" width="10.89" height="2.80" fill="#1f7a4d" stroke="#1f7a4d" stroke-width="0.8" fill-opacity="0.9"/>
<line x1="258.39" y1="713.98" x2="258.39" y2="733.58" stroke="#c0392b" stroke-width="1.2"/>
<rect x="252.94" y="722.38" width="10.89" height="8.40" fill="#c0392b" stroke="#c0392b" stroke-width="0.8" fill-opacity="0.9"/>
<line x1="277.17" y1="694.38" x2="277.17" y2="739.18" stroke="#c0392b" stroke-width="1.2"/>
<rect x="271.72" y="694.38" width="10.89" height="28.00" fill="#c0392b" stroke="#c0392b" stroke-width="0.8" fill-opacity="0.9"/>
<line x1="295.94" y1="694.38" x2="295.94" y2="711.18" stroke="#c0392b" stroke-width="1.2"/>
<rect x="290.50" y="694.38" width="10.89" height="1.20" fill="#c0392b" stroke="#c0392b" stroke-width="0.8" fill-opacity="0.9"/>
<line x1="314.72" y1="352.81" x2="314.72" y2="568.39" stroke="#c0392b" stroke-width="1.2"/>
<rect x="309.28" y="378.00" width="10.89" height="176.39" fill="#c0392b" stroke="#c0392b" stroke-width="0.8" fill-opacity="0.9"/>
<line x1="333.50" y1="294.01" x2="333.50" y2="378.00" stroke="#c0392b" stroke-width="1.2"/>
<rect x="328.05" y="296.81" width="10.89" height="78.40" fill="#c0392b" stroke="#c0392b" stroke-width="0.8" fill-opacity="0.9"/>
<line x1="352.28" y1="154.02" x2="352.28" y2="302.41" stroke="#c0392b" stroke-width="1.2"/>
<rect x="346.83" y="190.42" width="10.89" height="109.19" fill="#c0392b" stroke="#c0392b" stroke-width="0.8" fill-opacity="0.9"/>
<line x1="371.06" y1="154.02" x2="371.06" y2="235.21" stroke="#1f7a4d" stroke-width="1.2"/>
<rect x="365.61" y="190.42" width="10.89" height="8.40" fill="#1f7a4d" stroke="#1f7a4d" stroke-width="0.8" fill-opacity="0.9"/>
<line x1="389.83" y1="182.02" x2="389.83" y2="260.41" stroke="#1f7a4d" stroke-width="1.2"/>
<rect x="384.39" y="198.82" width="10.89" height="39.20" fill="#1f7a4d" stroke="#1f7a4d" stroke-width="0.8" fill-opacity="0.9"/>
<line x1="408.61" y1="218.41" x2="408.61" y2="257.61" stroke="#c0392b" stroke-width="1.2"/>
<rect x="403.17" y="232.41" width="10.89" height="5.60" fill="#c0392b" stroke="#c0392b" stroke-width="0.8" fill-opacity="0.9"/>
<line x1="427.39" y1="232.41" x2="427.39" y2="322.01" stroke="#c0392b" stroke-width="1.2"/>
<rect x="421.94" y="268.81" width="10.89" height="33.60" fill="#c0392b" stroke="#c0392b" stroke-width="0.8" fill-opacity="0.9"/>
<line x1="446.17" y1="235.21" x2="446.17" y2="285.61" stroke="#c0392b" stroke-width="1.2"/>
<rect x="440.72" y="240.81" width="10.89" height="30.80" fill="#c0392b" stroke="#c0392b" stroke-width="0.8" fill-opacity="0.9"/>
<line x1="464.94" y1="187.62" x2="464.94" y2="243.61" stroke="#c0392b" stroke-width="1.2"/>
<rect x="459.50" y="190.42" width="10.89" height="53.20" fill="#c0392b" stroke="#c0392b" stroke-width="0.8" fill-opacity="0.9"/>
<line x1="483.72" y1="165.22" x2="483.72" y2="221.21" stroke="#1f7a4d" stroke-width="1.2"/>
<rect x="478.28" y="193.22" width="10.89" height="22.40" fill="#1f7a4d" stroke="#1f7a4d" stroke-width="0.8" fill-opacity="0.9"/>
<line x1="502.50" y1="201.62" x2="502.50" y2="266.01" stroke="#1f7a4d" stroke-width="1.2"/>
<rect x="497.05" y="215.61" width="10.89" height="44.80" fill="#1f7a4d" stroke="#1f7a4d" stroke-width="0.8" fill-opacity="0.9"/>
<line x1="521.28" y1="260.41" x2="521.28" y2="277.21" stroke="#c0392b" stroke-width="1.2"/>
<rect x="515.83" y="260.41" width="10.89" height="1.20" fill="#c0392b" stroke="#c0392b" stroke-width="0.8" fill-opacity="0.9"/>
<line x1="540.06" y1="100.82" x2="540.06" y2="271.61" stroke="#c0392b" stroke-width="1.2"/>
<rect x="534.61" y="162.42" width="10.89" height="86.79" fill="#c0392b" stroke="#c0392b" stroke-width="0.8" fill-opacity="0.9"/>
<line x1="558.83" y1="154.02" x2="558.83" y2="224.01" stroke="#1f7a4d" stroke-width="1.2"/>
<rect x="553.39" y="162.42" width="10.89" height="50.40" fill="#1f7a4d" stroke="#1f7a4d" stroke-width="0.8" fill-opacity="0.9"/>
<line x1="577.61" y1="201.62" x2="577.61" y2="271.61" stroke="#1f7a4d" stroke-width="1.2"/>
<rect x="572.17" y="212.81" width="10.89" height="56.00" fill="#1f7a4d" stroke="#1f7a4d" stroke-width="0.8" fill-opacity="0.9"/>
<line x1="596.39" y1="232.41" x2="596.39" y2="285.61" stroke="#1f7a4d" stroke-width="1.2"/>
<rect x="590.94" y="271.61" width="10.89" height="5.60" fill="#1f7a4d" stroke="#1f7a4d" stroke-width="0.8" fill-opacity="0.9"/>
<line x1="615.17" y1="263.21" x2="615.17" y2="285.61" stroke="#c0392b" stroke-width="1.2"/>
<rect x="609.72" y="268.81" width="10.89" height="5.60" fill="#c0392b" stroke="#c0392b" stroke-width="0.8" fill-opacity="0.9"/>
<line x1="633.94" y1="268.81" x2="633.94" y2="299.61" stroke="#1f7a4d" stroke-width="1.2"/>
<rect x="628.50" y="268.81" width="10.89" height="14.00" fill="#1f7a4d" stroke="#1f7a4d" stroke-width="0.8" fill-opacity="0.9"/>
<line x1="652.72" y1="310.81" x2="652.72" y2="386.40" stroke="#1f7a4d" stroke-width="1.2"/>
<rect x="647.28" y="327.61" width="10.89" height="56.00" fill="#1f7a4d" stroke="#1f7a4d" stroke-width="0.8" fill-opacity="0.9"/>
<line x1="671.50" y1="372.40" x2="671.50" y2="411.60" stroke="#1f7a4d" stroke-width="1.2"/>
<rect x="666.05" y="380.80" width="10.89" height="8.40" fill="#1f7a4d" stroke="#1f7a4d" stroke-width="0.8" fill-opacity="0.9"/>
<line x1="690.28" y1="364.00" x2="690.28" y2="406.00" stroke="#1f7a4d" stroke-width="1.2"/>
<rect x="684.83" y="392.00" width="10.89" height="2.80" fill="#1f7a4d" stroke="#1f7a4d" stroke-width="0.8" fill-opacity="0.9"/>
<line x1="709.06" y1="375.20" x2="709.06" y2="397.60" stroke="#c0392b" stroke-width="1.2"/>
<rect x="703.61" y="380.80" width="10.89" height="14.00" fill="#c0392b" stroke="#c0392b" stroke-width="0.8" fill-opacity="0.9"/>
<line x1="727.83" y1="347.21" x2="727.83" y2="392.00" stroke="#c0392b" stroke-width="1.2"/>
<rect x="722.39" y="361.21" width="10.89" height="22.40" fill="#c0392b" stroke="#c0392b" stroke-width="0.8" fill-opacity="0.9"/>
<line x1="746.61" y1="344.41" x2="746.61" y2="361.21" stroke="#c0392b" stroke-width="1.2"/>
<rect x="741.17" y="347.21" width="10.89" height="14.00" fill="#c0392b" stroke="#c0392b" stroke-width="0.8" fill-opacity="0.9"/>
<line x1="765.39" y1="266.01" x2="765.39" y2="442.40" stroke="#1f7a4d" stroke-width="1.2"/>
<rect x="759.94" y="294.01" width="10.89" height="142.79" fill="#1f7a4d" stroke="#1f7a4d" stroke-width="0.8" fill-opacity="0.9"/>
<line x1="784.17" y1="425.60" x2="784.17" y2="470.40" stroke="#1f7a4d" stroke-width="1.2"/>
<rect x="778.72" y="439.60" width="10.89" height="16.80" fill="#1f7a4d" stroke="#1f7a4d" stroke-width="0.8" fill-opacity="0.9"/>
<line x1="802.94" y1="448.00" x2="802.94" y2="498.40" stroke="#1f7a4d" stroke-width="1.2"/>
<rect x="797.50" y="456.40" width="10.89" height="36.40" fill="#1f7a4d" stroke="#1f7a4d" stroke-width="0.8" fill-opacity="0.9"/>
<line x1="821.72" y1="450.80" x2="821.72" y2="492.80" stroke="#c0392b" stroke-width="1.2"/>
<rect x="816.28" y="464.80" width="10.89" height="25.20" fill="#c0392b" stroke="#c0392b" stroke-width="0.8" fill-opacity="0.9"/>
<line x1="840.50" y1="406.00" x2="840.50" y2="464.80" stroke="#c0392b" stroke-width="1.2"/>
<rect x="835.05" y="414.40" width="10.89" height="50.40" fill="#c0392b" stroke="#c0392b" stroke-width="0.8" fill-opacity="0.9"/>
<line x1="859.28" y1="411.60" x2="859.28" y2="431.20" stroke="#1f7a4d" stroke-width="1.2"/>
<rect x="853.83" y="414.40" width="10.89" height="8.40" fill="#1f7a4d" stroke="#1f7a4d" stroke-width="0.8" fill-opacity="0.9"/>
<line x1="878.06" y1="249.21" x2="878.06" y2="372.40" stroke="#c0392b" stroke-width="1.2"/>
<rect x="872.61" y="316.41" width="10.89" height="53.20" fill="#c0392b" stroke="#c0392b" stroke-width="0.8" fill-opacity="0.9"/>
<line x1="896.83" y1="299.61" x2="896.83" y2="344.41" stroke="#1f7a4d" stroke-width="1.2"/>
<rect x="891.39" y="316.41" width="10.89" height="2.80" fill="#1f7a4d" stroke="#1f7a4d" stroke-width="0.8" fill-opacity="0.9"/>
<line x1="915.61" y1="316.41" x2="915.61" y2="400.40" stroke="#1f7a4d" stroke-width="1.2"/>
<rect x="910.17" y="319.21" width="10.89" height="81.19" fill="#1f7a4d" stroke="#1f7a4d" stroke-width="0.8" fill-opacity="0.9"/>
<line x1="934.39" y1="386.40" x2="934.39" y2="411.60" stroke="#c0392b" stroke-width="1.2"/>
<rect x="928.94" y="400.40" width="10.89" height="1.20" fill="#c0392b" stroke="#c0392b" stroke-width="0.8" fill-opacity="0.9"/>
<line x1="953.17" y1="386.40" x2="953.17" y2="411.60" stroke="#c0392b" stroke-width="1.2"/>
<rect x="947.72" y="394.80" width="10.89" height="5.60" fill="#c0392b" stroke="#c0392b" stroke-width="0.8" fill-opacity="0.9"/>
<line x1="971.94" y1="333.21" x2="971.94" y2="403.20" stroke="#c0392b" stroke-width="1.2"/>
<rect x="966.50" y="355.61" width="10.89" height="42.00" fill="#c0392b" stroke="#c0392b" stroke-width="0.8" fill-opacity="0.9"/>
<line x1="990.72" y1="243.61" x2="990.72" y2="372.40" stroke="#c0392b" stroke-width="1.2"/>
<rect x="985.28" y="254.81" width="10.89" height="61.60" fill="#c0392b" stroke="#c0392b" stroke-width="0.8" fill-opacity="0.9"/>
<line x1="1009.50" y1="196.02" x2="1009.50" y2="257.61" stroke="#c0392b" stroke-width="1.2"/>
<rect x="1004.05" y="215.61" width="10.89" height="42.00" fill="#c0392b" stroke="#c0392b" stroke-width="0.8" fill-opacity="0.9"/>
<line x1="1028.28" y1="204.41" x2="1028.28" y2="266.01" stroke="#1f7a4d" stroke-width="1.2"/>
<rect x="1022.83" y="215.61" width="10.89" height="19.60" fill="#1f7a4d" stroke="#1f7a4d" stroke-width="0.8" fill-opacity="0.9"/>
<line x1="1047.06" y1="215.61" x2="1047.06" y2="263.21" stroke="#c0392b" stroke-width="1.2"/>
<rect x="1041.61" y="215.61" width="10.89" height="22.40" fill="#c0392b" stroke="#c0392b" stroke-width="0.8" fill-opacity="0.9"/>
<line x1="1065.83" y1="179.22" x2="1065.83" y2="240.81" stroke="#1f7a4d" stroke-width="1.2"/>
<rect x="1060.39" y="215.61" width="10.89" height="5.60" fill="#1f7a4d" stroke="#1f7a4d" stroke-width="0.8" fill-opacity="0.9"/>
<line x1="1084.61" y1="204.41" x2="1084.61" y2="226.81" stroke="#c0392b" stroke-width="1.2"/>
<rect x="1079.17" y="218.41" width="10.89" height="1.20" fill="#c0392b" stroke="#c0392b" stroke-width="0.8" fill-opacity="0.9"/>
<line x1="1103.39" y1="266.01" x2="1103.39" y2="420.00" stroke="#1f7a4d" stroke-width="1.2"/>
<rect x="1097.94" y="288.41" width="10.89" height="114.79" fill="#1f7a4d" stroke="#1f7a4d" stroke-width="0.8" fill-opacity="0.9"/>
<line x1="1122.17" y1="386.40" x2="1122.17" y2="450.80" stroke="#1f7a4d" stroke-width="1.2"/>
<rect x="1116.72" y="403.20" width="10.89" height="22.40" fill="#1f7a4d" stroke="#1f7a4d" stroke-width="0.8" fill-opacity="0.9"/>
<line x1="1140.94" y1="389.20" x2="1140.94" y2="434.00" stroke="#c0392b" stroke-width="1.2"/>
<rect x="1135.50" y="400.40" width="10.89" height="25.20" fill="#c0392b" stroke="#c0392b" stroke-width="0.8" fill-opacity="0.9"/>
<line x1="1159.72" y1="361.21" x2="1159.72" y2="406.00" stroke="#c0392b" stroke-width="1.2"/>
<rect x="1154.28" y="392.00" width="10.89" height="5.60" fill="#c0392b" stroke="#c0392b" stroke-width="0.8" fill-opacity="0.9"/>
<line x1="1178.50" y1="355.61" x2="1178.50" y2="394.80" stroke="#c0392b" stroke-width="1.2"/>
<rect x="1173.05" y="369.60" width="10.89" height="22.40" fill="#c0392b" stroke="#c0392b" stroke-width="0.8" fill-opacity="0.9"/>
<line x1="1197.28" y1="341.61" x2="1197.28" y2="369.60" stroke="#c0392b" stroke-width="1.2"/>
<rect x="1191.83" y="344.41" width="10.89" height="22.40" fill="#c0392b" stroke="#c0392b" stroke-width="0.8" fill-opacity="0.9"/>
<line x1="1216.06" y1="375.20" x2="1216.06" y2="464.80" stroke="#1f7a4d" stroke-width="1.2"/>
<rect x="1210.61" y="400.40" width="10.89" height="16.80" fill="#1f7a4d" stroke="#1f7a4d" stroke-width="0.8" fill-opacity="0.9"/>
<line x1="1234.83" y1="389.20" x2="1234.83" y2="436.80" stroke="#c0392b" stroke-width="1.2"/>
<rect x="1229.39" y="408.80" width="10.89" height="8.40" fill="#c0392b" stroke="#c0392b" stroke-width="0.8" fill-opacity="0.9"/>
<line x1="1253.61" y1="389.20" x2="1253.61" y2="428.40" stroke="#1f7a4d" stroke-width="1.2"/>
<rect x="1248.17" y="406.00" width="10.89" height="22.40" fill="#1f7a4d" stroke="#1f7a4d" stroke-width="0.8" fill-opacity="0.9"/>
<line x1="1272.39" y1="408.80" x2="1272.39" y2="434.00" stroke="#c0392b" stroke-width="1.2"/>
<rect x="1266.94" y="420.00" width="10.89" height="8.40" fill="#c0392b" stroke="#c0392b" stroke-width="0.8" fill-opacity="0.9"/>
<line x1="1291.17" y1="403.20" x2="1291.17" y2="428.40" stroke="#c0392b" stroke-width="1.2"/>
<rect x="1285.72" y="414.40" width="10.89" height="1.20" fill="#c0392b" stroke="#c0392b" stroke-width="0.8" fill-opacity="0.9"/>
<line x1="1309.94" y1="414.40" x2="1309.94" y2="428.40" stroke="#1f7a4d" stroke-width="1.2"/>
<rect x="1304.50" y="417.20" width="10.89" height="2.80" fill="#1f7a4d" stroke="#1f7a4d" stroke-width="0.8" fill-opacity="0.9"/>
<line x1="1328.72" y1="350.01" x2="1328.72" y2="442.40" stroke="#1f7a4d" stroke-width="1.2"/>
<rect x="1323.28" y="383.60" width="10.89" height="44.80" fill="#1f7a4d" stroke="#1f7a4d" stroke-width="0.8" fill-opacity="0.9"/>
<line x1="1347.50" y1="403.20" x2="1347.50" y2="439.60" stroke="#1f7a4d" stroke-width="1.2"/>
<rect x="1342.05" y="428.40" width="10.89" height="5.60" fill="#1f7a4d" stroke="#1f7a4d" stroke-width="0.8" fill-opacity="0.9"/>
<line x1="1366.28" y1="347.21" x2="1366.28" y2="448.00" stroke="#c0392b" stroke-width="1.2"/>
<rect x="1360.83" y="378.00" width="10.89" height="56.00" fill="#c0392b" stroke="#c0392b" stroke-width="0.8" fill-opacity="0.9"/>
<line x1="1385.06" y1="305.21" x2="1385.06" y2="380.80" stroke="#c0392b" stroke-width="1.2"/>
<rect x="1379.61" y="347.21" width="10.89" height="30.80" fill="#c0392b" stroke="#c0392b" stroke-width="0.8" fill-opacity="0.9"/>
<line x1="1403.83" y1="344.41" x2="1403.83" y2="366.80" stroke="#1f7a4d" stroke-width="1.2"/>
<rect x="1398.39" y="347.21" width="10.89" height="8.40" fill="#1f7a4d" stroke="#1f7a4d" stroke-width="0.8" fill-opacity="0.9"/>
<line x1="1422.61" y1="333.21" x2="1422.61" y2="361.21" stroke="#c0392b" stroke-width="1.2"/>
<rect x="1417.17" y="347.21" width="10.89" height="11.20" fill="#c0392b" stroke="#c0392b" stroke-width="0.8" fill-opacity="0.9"/>
<line x1="1441.39" y1="411.60" x2="1441.39" y2="470.40" stroke="#1f7a4d" stroke-width="1.2"/>
<rect x="1435.94" y="411.60" width="10.89" height="56.00" fill="#1f7a4d" stroke="#1f7a4d" stroke-width="0.8" fill-opacity="0.9"/>
<line x1="1460.17" y1="464.80" x2="1460.17" y2="495.60" stroke="#1f7a4d" stroke-width="1.2"/>
<rect x="1454.72" y="467.60" width="10.89" height="16.80" fill="#1f7a4d" stroke="#1f7a4d" stroke-width="0.8" fill-opacity="0.9"/>
<line x1="1478.94" y1="456.40" x2="1478.94" y2="492.80" stroke="#c0392b" stroke-width="1.2"/>
<rect x="1473.50" y="462.00" width="10.89" height="19.60" fill="#c0392b" stroke="#c0392b" stroke-width="0.8" fill-opacity="0.9"/>
<line x1="1497.72" y1="442.40" x2="1497.72" y2="473.20" stroke="#1f7a4d" stroke-width="1.2"/>
<rect x="1492.28" y="462.00" width="10.89" height="5.60" fill="#1f7a4d" stroke="#1f7a4d" stroke-width="0.8" fill-opacity="0.9"/>
<line x1="1516.50" y1="453.60" x2="1516.50" y2="473.20" stroke="#c0392b" stroke-width="1.2"/>
<rect x="1511.05" y="462.00" width="10.89" height="1.20" fill="#c0392b" stroke="#c0392b" stroke-width="0.8" fill-opacity="0.9"/>
<line x1="1535.28" y1="459.20" x2="1535.28" y2="473.20" stroke="#1f7a4d" stroke-width="1.2"/>
<rect x="1529.83" y="462.00" width="10.89" height="8.40" fill="#1f7a4d" stroke="#1f7a4d" stroke-width="0.8" fill-opacity="0.9"/>
<line x1="1554.06" y1="473.20" x2="1554.06" y2="576.79" stroke="#1f7a4d" stroke-width="1.2"/>
<rect x="1548.61" y="473.20" width="10.89" height="72.80" fill="#1f7a4d" stroke="#1f7a4d" stroke-width="0.8" fill-opacity="0.9"/>
<line x1="1572.83" y1="520.79" x2="1572.83" y2="565.59" stroke="#1f7a4d" stroke-width="1.2"/>
<rect x="1567.39" y="545.99" width="10.89" height="8.40" fill="#1f7a4d" stroke="#1f7a4d" stroke-width="0.8" fill-opacity="0.9"/>
<line x1="1591.61" y1="526.39" x2="1591.61" y2="565.59" stroke="#c0392b" stroke-width="1.2"/>
<rect x="1586.17" y="529.19" width="10.89" height="25.20" fill="#c0392b" stroke="#c0392b" stroke-width="0.8" fill-opacity="0.9"/>
<line x1="1610.39" y1="512.40" x2="1610.39" y2="537.59" stroke="#1f7a4d" stroke-width="1.2"/>
<rect x="1604.94" y="526.39" width="10.89" height="2.80" fill="#1f7a4d" stroke="#1f7a4d" stroke-width="0.8" fill-opacity="0.9"/>
<line x1="1629.17" y1="523.59" x2="1629.17" y2="548.79" stroke="#1f7a4d" stroke-width="1.2"/>
<rect x="1623.72" y="531.99" width="10.89" height="2.80" fill="#1f7a4d" stroke="#1f7a4d" stroke-width="0.8" fill-opacity="0.9"/>
<line x1="1647.94" y1="529.19" x2="1647.94" y2="545.99" stroke="#c0392b" stroke-width="1.2"/>
<rect x="1642.50" y="534.79" width="10.89" height="2.80" fill="#c0392b" stroke="#c0392b" stroke-width="0.8" fill-opacity="0.9"/>
<line x1="1666.72" y1="540.39" x2="1666.72" y2="607.59" stroke="#1f7a4d" stroke-width="1.2"/>
<rect x="1661.28" y="545.99" width="10.89" height="36.40" fill="#1f7a4d" stroke="#1f7a4d" stroke-width="0.8" fill-opacity="0.9"/>
<line x1="1685.50" y1="571.19" x2="1685.50" y2="613.19" stroke="#1f7a4d" stroke-width="1.2"/>
<rect x="1680.05" y="585.19" width="10.89" height="22.40" fill="#1f7a4d" stroke="#1f7a4d" stroke-width="0.8" fill-opacity="0.9"/>
<line x1="1704.28" y1="512.40" x2="1704.28" y2="610.39" stroke="#c0392b" stroke-width="1.2"/>
<rect x="1698.83" y="590.79" width="10.89" height="19.60" fill="#c0392b" stroke="#c0392b" stroke-width="0.8" fill-opacity="0.9"/>
<line x1="1723.06" y1="571.19" x2="1723.06" y2="593.59" stroke="#c0392b" stroke-width="1.2"/>
<rect x="1717.61" y="582.39" width="10.89" height="8.40" fill="#c0392b" stroke="#c0392b" stroke-width="0.8" fill-opacity="0.9"/>
<line x1="1741.83" y1="576.79" x2="1741.83" y2="593.59" stroke="#c0392b" stroke-width="1.2"/>
<rect x="1736.39" y="582.39" width="10.89" height="1.20" fill="#c0392b" stroke="#c0392b" stroke-width="0.8" fill-opacity="0.9"/>
<line x1="1760.61" y1="565.59" x2="1760.61" y2="590.79" stroke="#c0392b" stroke-width="1.2"/>
<rect x="1755.17" y="571.19" width="10.89" height="11.20" fill="#c0392b" stroke="#c0392b" stroke-width="0.8" fill-opacity="0.9"/>
<line x1="80" y1="945.00" x2="1770" y2="945.00" stroke="#94a3b8" stroke-dasharray="4 4" stroke-width="1"/>
<line x1="80" y1="1024.80" x2="1770" y2="1024.80" stroke="#e5e7eb" stroke-dasharray="3 5" stroke-width="1"/>
<text x="70" y="1028.80" text-anchor="end" font-size="11" font-family="Consolas, monospace" fill="#52606d">-1.99</text>
<line x1="80" y1="984.90" x2="1770" y2="984.90" stroke="#e5e7eb" stroke-dasharray="3 5" stroke-width="1"/>
<text x="70" y="988.90" text-anchor="end" font-size="11" font-family="Consolas, monospace" fill="#52606d">-0.99</text>
<line x1="80" y1="905.10" x2="1770" y2="905.10" stroke="#e5e7eb" stroke-dasharray="3 5" stroke-width="1"/>
<text x="70" y="909.10" text-anchor="end" font-size="11" font-family="Consolas, monospace" fill="#52606d">0.99</text>
<line x1="80" y1="865.20" x2="1770" y2="865.20" stroke="#e5e7eb" stroke-dasharray="3 5" stroke-width="1"/>
<text x="70" y="869.20" text-anchor="end" font-size="11" font-family="Consolas, monospace" fill="#52606d">1.99</text>
<rect x="85.03" y="945.00" width="8.71" height="1.00" fill="#ef4444" fill-opacity="0.72"/>
<rect x="103.81" y="945.00" width="8.71" height="1.80" fill="#22c55e" fill-opacity="0.72"/>
<rect x="122.59" y="945.00" width="8.71" height="2.82" fill="#22c55e" fill-opacity="0.72"/>
<rect x="141.37" y="945.00" width="8.71" height="1.00" fill="#22c55e" fill-opacity="0.72"/>
<rect x="160.14" y="944.02" width="8.71" height="1.00" fill="#ef4444" fill-opacity="0.72"/>
<rect x="178.92" y="945.00" width="8.71" height="1.00" fill="#22c55e" fill-opacity="0.72"/>
<rect x="197.70" y="945.00" width="8.71" height="14.92" fill="#22c55e" fill-opacity="0.72"/>
<rect x="216.48" y="945.00" width="8.71" height="20.79" fill="#22c55e" fill-opacity="0.72"/>
<rect x="235.25" y="945.00" width="8.71" height="23.81" fill="#22c55e" fill-opacity="0.72"/>
<rect x="254.03" y="945.00" width="8.71" height="23.53" fill="#22c55e" fill-opacity="0.72"/>
<rect x="272.81" y="945.00" width="8.71" height="19.36" fill="#22c55e" fill-opacity="0.72"/>
<rect x="291.59" y="945.00" width="8.71" height="15.49" fill="#22c55e" fill-opacity="0.72"/>
<rect x="310.37" y="927.98" width="8.71" height="17.02" fill="#ef4444" fill-opacity="0.72"/>
<rect x="329.14" y="900.82" width="8.71" height="44.18" fill="#ef4444" fill-opacity="0.72"/>
<rect x="347.92" y="876.22" width="8.71" height="68.78" fill="#ef4444" fill-opacity="0.72"/>
<rect x="366.70" y="865.20" width="8.71" height="79.80" fill="#ef4444" fill-opacity="0.72"/>
<rect x="385.48" y="866.26" width="8.71" height="78.74" fill="#ef4444" fill-opacity="0.72"/>
<rect x="404.25" y="870.92" width="8.71" height="74.08" fill="#ef4444" fill-opacity="0.72"/>
<rect x="423.03" y="881.61" width="8.71" height="63.39" fill="#ef4444" fill-opacity="0.72"/>
<rect x="441.81" y="889.75" width="8.71" height="55.25" fill="#ef4444" fill-opacity="0.72"/>
<rect x="460.59" y="893.96" width="8.71" height="51.04" fill="#ef4444" fill-opacity="0.72"/>
<rect x="479.37" y="902.51" width="8.71" height="42.49" fill="#ef4444" fill-opacity="0.72"/>
<rect x="498.14" y="915.23" width="8.71" height="29.77" fill="#ef4444" fill-opacity="0.72"/>
<rect x="516.92" y="925.86" width="8.71" height="19.14" fill="#ef4444" fill-opacity="0.72"/>
<rect x="535.70" y="925.69" width="8.71" height="19.31" fill="#ef4444" fill-opacity="0.72"/>
<rect x="554.48" y="932.40" width="8.71" height="12.60" fill="#ef4444" fill-opacity="0.72"/>
<rect x="573.25" y="943.61" width="8.71" height="1.39" fill="#ef4444" fill-opacity="0.72"/>
<rect x="592.03" y="945.00" width="8.71" height="7.70" fill="#22c55e" fill-opacity="0.72"/>
<rect x="610.81" y="945.00" width="8.71" height="13.42" fill="#22c55e" fill-opacity="0.72"/>
<rect x="629.59" y="945.00" width="8.71" height="18.76" fill="#22c55e" fill-opacity="0.72"/>
<rect x="648.37" y="945.00" width="8.71" height="31.48" fill="#22c55e" fill-opacity="0.72"/>
<rect x="667.14" y="945.00" width="8.71" height="39.37" fill="#22c55e" fill-opacity="0.72"/>
<rect x="685.92" y="945.00" width="8.71" height="43.73" fill="#22c55e" fill-opacity="0.72"/>
<rect x="704.70" y="945.00" width="8.71" height="43.76" fill="#22c55e" fill-opacity="0.72"/>
<rect x="723.48" y="945.00" width="8.71" height="40.45" fill="#22c55e" fill-opacity="0.72"/>
<rect x="742.25" y="945.00" width="8.71" height="35.65" fill="#22c55e" fill-opacity="0.72"/>
<rect x="761.03" y="945.00" width="8.71" height="39.57" fill="#22c55e" fill-opacity="0.72"/>
<rect x="779.81" y="945.00" width="8.71" height="42.25" fill="#22c55e" fill-opacity="0.72"/>
<rect x="798.59" y="945.00" width="8.71" height="45.46" fill="#22c55e" fill-opacity="0.72"/>
<rect x="817.37" y="945.00" width="8.71" height="42.82" fill="#22c55e" fill-opacity="0.72"/>
<rect x="836.14" y="945.00" width="8.71" height="34.51" fill="#22c55e" fill-opacity="0.72"/>
<rect x="854.92" y="945.00" width="8.71" height="28.39" fill="#22c55e" fill-opacity="0.72"/>
<rect x="873.70" y="945.00" width="8.71" height="13.38" fill="#22c55e" fill-opacity="0.72"/>
<rect x="892.48" y="945.00" width="8.71" height="3.56" fill="#22c55e" fill-opacity="0.72"/>
<rect x="911.25" y="945.00" width="8.71" height="4.68" fill="#22c55e" fill-opacity="0.72"/>
<rect x="930.03" y="945.00" width="8.71" height="5.14" fill="#22c55e" fill-opacity="0.72"/>
<rect x="948.81" y="945.00" width="8.71" height="4.66" fill="#22c55e" fill-opacity="0.72"/>
<rect x="967.59" y="945.00" width="8.71" height="1.00" fill="#22c55e" fill-opacity="0.72"/>
<rect x="986.37" y="933.63" width="8.71" height="11.37" fill="#ef4444" fill-opacity="0.72"/>
<rect x="1005.14" y="923.21" width="8.71" height="21.79" fill="#ef4444" fill-opacity="0.72"/>
<rect x="1023.92" y="919.68" width="8.71" height="25.32" fill="#ef4444" fill-opacity="0.72"/>
<rect x="1042.70" y="917.12" width="8.71" height="27.88" fill="#ef4444" fill-opacity="0.72"/>
<rect x="1061.48" y="917.67" width="8.71" height="27.33" fill="#ef4444" fill-opacity="0.72"/>
<rect x="1080.25" y="919.45" width="8.71" height="25.55" fill="#ef4444" fill-opacity="0.72"/>
<rect x="1099.03" y="939.13" width="8.71" height="5.87" fill="#ef4444" fill-opacity="0.72"/>
<rect x="1117.81" y="945.00" width="8.71" height="9.15" fill="#22c55e" fill-opacity="0.72"/>
<rect x="1136.59" y="945.00" width="8.71" height="16.07" fill="#22c55e" fill-opacity="0.72"/>
<rect x="1155.37" y="945.00" width="8.71" height="19.06" fill="#22c55e" fill-opacity="0.72"/>
<rect x="1174.14" y="945.00" width="8.71" height="18.10" fill="#22c55e" fill-opacity="0.72"/>
<rect x="1192.92" y="945.00" width="8.71" height="14.42" fill="#22c55e" fill-opacity="0.72"/>
<rect x="1211.70" y="945.00" width="8.71" height="18.17" fill="#22c55e" fill-opacity="0.72"/>
<rect x="1230.48" y="945.00" width="8.71" height="18.90" fill="#22c55e" fill-opacity="0.72"/>
<rect x="1249.25" y="945.00" width="8.71" height="20.23" fill="#22c55e" fill-opacity="0.72"/>
<rect x="1268.03" y="945.00" width="8.71" height="19.24" fill="#22c55e" fill-opacity="0.72"/>
<rect x="1286.81" y="945.00" width="8.71" height="17.07" fill="#22c55e" fill-opacity="0.72"/>
<rect x="1305.59" y="945.00" width="8.71" height="15.26" fill="#22c55e" fill-opacity="0.72"/>
<rect x="1324.37" y="945.00" width="8.71" height="13.99" fill="#22c55e" fill-opacity="0.72"/>
<rect x="1343.14" y="945.00" width="8.71" height="12.84" fill="#22c55e" fill-opacity="0.72"/>
<rect x="1361.92" y="945.00" width="8.71" height="6.15" fill="#22c55e" fill-opacity="0.72"/>
<rect x="1380.70" y="943.63" width="8.71" height="1.37" fill="#ef4444" fill-opacity="0.72"/>
<rect x="1399.48" y="939.59" width="8.71" height="5.41" fill="#ef4444" fill-opacity="0.72"/>
<rect x="1418.25" y="936.40" width="8.71" height="8.60" fill="#ef4444" fill-opacity="0.72"/>
<rect x="1437.03" y="945.00" width="8.71" height="1.00" fill="#22c55e" fill-opacity="0.72"/>
<rect x="1455.81" y="945.00" width="8.71" height="7.95" fill="#22c55e" fill-opacity="0.72"/>
<rect x="1474.59" y="945.00" width="8.71" height="9.84" fill="#22c55e" fill-opacity="0.72"/>
<rect x="1493.37" y="945.00" width="8.71" height="10.83" fill="#22c55e" fill-opacity="0.72"/>
<rect x="1512.14" y="945.00" width="8.71" height="10.16" fill="#22c55e" fill-opacity="0.72"/>
<rect x="1530.92" y="945.00" width="8.71" height="9.75" fill="#22c55e" fill-opacity="0.72"/>
<rect x="1549.70" y="945.00" width="8.71" height="15.64" fill="#22c55e" fill-opacity="0.72"/>
<rect x="1568.48" y="945.00" width="8.71" height="19.00" fill="#22c55e" fill-opacity="0.72"/>
<rect x="1587.25" y="945.00" width="8.71" height="17.46" fill="#22c55e" fill-opacity="0.72"/>
<rect x="1606.03" y="945.00" width="8.71" height="15.21" fill="#22c55e" fill-opacity="0.72"/>
<rect x="1624.81" y="945.00" width="8.71" height="13.10" fill="#22c55e" fill-opacity="0.72"/>
<rect x="1643.59" y="945.00" width="8.71" height="10.65" fill="#22c55e" fill-opacity="0.72"/>
<rect x="1662.37" y="945.00" width="8.71" height="12.46" fill="#22c55e" fill-opacity="0.72"/>
<rect x="1681.14" y="945.00" width="8.71" height="14.75" fill="#22c55e" fill-opacity="0.72"/>
<rect x="1699.92" y="945.00" width="8.71" height="13.35" fill="#22c55e" fill-opacity="0.72"/>
<rect x="1718.70" y="945.00" width="8.71" height="10.45" fill="#22c55e" fill-opacity="0.72"/>
<rect x="1737.48" y="945.00" width="8.71" height="7.50" fill="#22c55e" fill-opacity="0.72"/>
<rect x="1756.25" y="945.00" width="8.71" height="3.64" fill="#22c55e" fill-opacity="0.72"/>
<path d="M89.39,945.00 L108.17,946.12 L126.94,946.99 L145.72,946.20 L164.50,945.09 L183.28,945.66 L202.06,954.92 L220.83,960.46 L239.61,964.94 L258.39,967.74 L277.17,968.08 L295.94,968.08 L314.72,949.70 L333.50,930.59 L352.28,909.70 L371.06,894.21 L389.83,884.90 L408.61,877.97 L427.39,875.39 L446.17,872.56 L464.94,868.28 L483.72,867.24 L502.50,869.88 L521.28,872.81 L540.06,870.31 L558.83,872.09 L577.61,877.52 L596.39,883.03 L615.17,887.57 L633.94,892.58 L652.72,902.87 L671.50,911.74 L690.28,919.39 L709.06,924.87 L727.83,928.27 L746.61,930.33 L765.39,937.23 L784.17,943.85 L802.94,951.14 L821.72,955.18 L840.50,955.33 L859.28,955.82 L878.06,949.99 L896.83,945.52 L915.61,946.67 L934.39,947.54 L953.17,947.88 L971.94,945.87 L990.72,938.51 L1009.50,930.57 L1028.28,925.64 L1047.06,920.88 L1065.83,917.74 L1084.61,915.43 L1103.39,924.54 L1122.17,933.20 L1140.94,938.67 L1159.72,942.55 L1178.50,944.33 L1197.28,944.29 L1216.06,948.44 L1234.83,951.17 L1253.61,954.36 L1272.39,956.27 L1291.17,957.32 L1309.94,958.32 L1328.72,959.43 L1347.50,960.46 L1366.28,957.89 L1385.06,953.96 L1403.83,951.26 L1422.61,948.59 L1441.39,953.35 L1460.17,957.95 L1478.94,960.12 L1497.72,961.97 L1516.50,962.91 L1535.28,963.92 L1554.06,968.83 L1572.83,972.88 L1591.61,974.29 L1610.39,975.06 L1629.17,975.65 L1647.94,975.76 L1666.72,978.22 L1685.50,981.21 L1704.28,982.18 L1723.06,982.03 L1741.83,981.50 L1760.61,980.02" fill="none" stroke="#2563eb" stroke-width="1.8"/>
<path d="M89.39,945.00 L108.17,945.22 L126.94,945.58 L145.72,945.70 L164.50,945.58 L183.28,945.60 L202.06,947.46 L220.83,950.06 L239.61,953.04 L258.39,955.98 L277.17,958.40 L295.94,960.33 L314.72,958.21 L333.50,952.68 L352.28,944.09 L371.06,934.11 L389.83,924.27 L408.61,915.01 L427.39,907.09 L446.17,900.18 L464.94,893.80 L483.72,888.49 L502.50,884.77 L521.28,882.37 L540.06,879.96 L558.83,878.39 L577.61,878.21 L596.39,879.18 L615.17,880.85 L633.94,883.20 L652.72,887.13 L671.50,892.05 L690.28,897.52 L709.06,902.99 L727.83,908.05 L746.61,912.50 L765.39,917.45 L784.17,922.73 L802.94,928.41 L821.72,933.76 L840.50,938.08 L859.28,941.63 L878.06,943.30 L896.83,943.74 L915.61,944.33 L934.39,944.97 L953.17,945.55 L971.94,945.62 L990.72,944.20 L1009.50,941.47 L1028.28,938.31 L1047.06,934.82 L1065.83,931.40 L1084.61,928.21 L1103.39,927.48 L1122.17,928.62 L1140.94,930.63 L1159.72,933.01 L1178.50,935.28 L1197.28,937.08 L1216.06,939.35 L1234.83,941.71 L1253.61,944.24 L1272.39,946.65 L1291.17,948.78 L1309.94,950.69 L1328.72,952.44 L1347.50,954.04 L1366.28,954.81 L1385.06,954.64 L1403.83,953.96 L1422.61,952.89 L1441.39,952.98 L1460.17,953.98 L1478.94,955.21 L1497.72,956.56 L1516.50,957.83 L1535.28,959.05 L1554.06,961.00 L1572.83,963.38 L1591.61,965.56 L1610.39,967.46 L1629.17,969.10 L1647.94,970.43 L1666.72,971.99 L1685.50,973.83 L1704.28,975.50 L1723.06,976.81 L1741.83,977.75 L1760.61,978.20" fill="none" stroke="#f59e0b" stroke-width="1.8"/>
<text x="80" y="842.00" font-size="13" font-family="Segoe UI, Arial, sans-serif" fill="#334155">MACD (12, 26, 9)</text>
<polygon points="119.94,665.19 133.94,665.19 126.94,647.19" fill="#27ae60" stroke="#27ae60" stroke-width="1"/>
<polygon points="533.06,90.82 547.06,90.82 540.06,108.82" fill="#e74c3c" stroke="#e74c3c" stroke-width="1"/>
<polygon points="795.94,508.40 809.94,508.40 802.94,490.40" fill="#27ae60" stroke="#27ae60" stroke-width="1"/>
<polygon points="1058.83,169.22 1072.83,169.22 1065.83,187.22" fill="#e74c3c" stroke="#e74c3c" stroke-width="1"/>
<polygon points="1209.06,474.80 1223.06,474.80 1216.06,456.80" fill="#27ae60" stroke="#27ae60" stroke-width="1"/>
<polygon points="1378.06,295.21 1392.06,295.21 1385.06,313.21" fill="#e74c3c" stroke="#e74c3c" stroke-width="1"/>
<line x1="126.94" y1="655.19" x2="540.06" y2="100.82" stroke="#2874a6" stroke-width="2.2"/>
<line x1="540.06" y1="100.82" x2="802.94" y2="498.40" stroke="#d68910" stroke-width="2.2"/>
<line x1="802.94" y1="498.40" x2="1065.83" y2="179.22" stroke="#2874a6" stroke-width="2.2"/>
<line x1="1065.83" y1="179.22" x2="1216.06" y2="464.80" stroke="#d68910" stroke-width="2.2"/>
<line x1="1216.06" y1="464.80" x2="1385.06" y2="305.21" stroke="#2874a6" stroke-width="2.2"/>
<line x1="1385.06" y1="305.21" x2="1685.50" y2="613.19" stroke="#d68910" stroke-width="1.5" stroke-dasharray="5 5"/>
<line x1="1497.72" y1="442.40" x2="1685.50" y2="613.19" stroke="#d68910" stroke-width="1.5" stroke-dasharray="5 5"/>
<line x1="1610.39" y1="512.40" x2="1741.83" y2="593.59" stroke="#d68910" stroke-width="1.5" stroke-dasharray="5 5"/>
<line x1="89.39" y1="1040.00" x2="89.39" y2="1046.00" stroke="#7b8794" stroke-width="1"/>
<text x="89.39" y="1064.00" text-anchor="middle" font-size="10" font-family="Consolas, monospace" fill="#52606d">04-01 10:30</text>
<line x1="239.61" y1="1040.00" x2="239.61" y2="1046.00" stroke="#7b8794" stroke-width="1"/>
<text x="239.61" y="1064.00" text-anchor="middle" font-size="10" font-family="Consolas, monospace" fill="#52606d">04-02 13:30</text>
<line x1="389.83" y1="1040.00" x2="389.83" y2="1046.00" stroke="#7b8794" stroke-width="1"/>
<text x="389.83" y="1064.00" text-anchor="middle" font-size="10" font-family="Consolas, monospace" fill="#52606d">04-08 15:30</text>
<line x1="540.06" y1="1040.00" x2="540.06" y2="1046.00" stroke="#7b8794" stroke-width="1"/>
<text x="540.06" y="1064.00" text-anchor="middle" font-size="10" font-family="Consolas, monospace" fill="#52606d">04-10 10:30</text>
<line x1="690.28" y1="1040.00" x2="690.28" y2="1046.00" stroke="#7b8794" stroke-width="1"/>
<text x="690.28" y="1064.00" text-anchor="middle" font-size="10" font-family="Consolas, monospace" fill="#52606d">04-13 13:30</text>
<line x1="840.50" y1="1040.00" x2="840.50" y2="1046.00" stroke="#7b8794" stroke-width="1"/>
<text x="840.50" y="1064.00" text-anchor="middle" font-size="10" font-family="Consolas, monospace" fill="#52606d">04-14 15:30</text>
<line x1="990.72" y1="1040.00" x2="990.72" y2="1046.00" stroke="#7b8794" stroke-width="1"/>
<text x="990.72" y="1064.00" text-anchor="middle" font-size="10" font-family="Consolas, monospace" fill="#52606d">04-16 10:30</text>
<line x1="1140.94" y1="1040.00" x2="1140.94" y2="1046.00" stroke="#7b8794" stroke-width="1"/>
<text x="1140.94" y="1064.00" text-anchor="middle" font-size="10" font-family="Consolas, monospace" fill="#52606d">04-17 13:30</text>
<line x1="1291.17" y1="1040.00" x2="1291.17" y2="1046.00" stroke="#7b8794" stroke-width="1"/>
<text x="1291.17" y="1064.00" text-anchor="middle" font-size="10" font-family="Consolas, monospace" fill="#52606d">04-20 15:30</text>
<line x1="1441.39" y1="1040.00" x2="1441.39" y2="1046.00" stroke="#7b8794" stroke-width="1"/>
<text x="1441.39" y="1064.00" text-anchor="middle" font-size="10" font-family="Consolas, monospace" fill="#52606d">04-22 10:30</text>
<line x1="1591.61" y1="1040.00" x2="1591.61" y2="1046.00" stroke="#7b8794" stroke-width="1"/>
<text x="1591.61" y="1064.00" text-anchor="middle" font-size="10" font-family="Consolas, monospace" fill="#52606d">04-23 13:30</text>
<line x1="1741.83" y1="1040.00" x2="1741.83" y2="1046.00" stroke="#7b8794" stroke-width="1"/>
<text x="1741.83" y="1064.00" text-anchor="middle" font-size="10" font-family="Consolas, monospace" fill="#52606d">04-24 15:30</text>
<rect x="1520" y="74" width="240" height="146" rx="8" fill="#ffffff" stroke="#d9e2ec"/>
<rect x="1532" y="88" width="22" height="12" fill="#5dade2" fill-opacity="0.12" stroke="#1f618d" stroke-dasharray="6 4"/>
<text x="1564" y="98" font-size="12" font-family="Segoe UI, Arial, sans-serif" fill="#1f2d3d">Inclusion box</text>
<rect x="1532" y="108" width="22" height="12" fill="#f5b041" fill-opacity="0.18" stroke="#b9770e"/>
<text x="1564" y="118" font-size="12" font-family="Segoe UI, Arial, sans-serif" fill="#1f2d3d">Bi zhongshu</text>
<line x1="1532" y1="136" x2="1554" y2="136" stroke="#2874a6" stroke-width="2.2"/>
<text x="1564" y="140" font-size="12" font-family="Segoe UI, Arial, sans-serif" fill="#1f2d3d">Confirmed bi</text>
<line x1="1532" y1="154" x2="1554" y2="154" stroke="#d68910" stroke-width="1.5" stroke-dasharray="5 5"/>
<text x="1564" y="158" font-size="12" font-family="Segoe UI, Arial, sans-serif" fill="#1f2d3d">Unconfirmed bi</text>
<rect x="1532" y="170" width="22" height="12" fill="#ef4444" fill-opacity="0.72"/>
<text x="1564" y="180" font-size="12" font-family="Segoe UI, Arial, sans-serif" fill="#1f2d3d">MACD histogram+</text>
<rect x="1532" y="188" width="22" height="12" fill="#22c55e" fill-opacity="0.72"/>
<text x="1564" y="198" font-size="12" font-family="Segoe UI, Arial, sans-serif" fill="#1f2d3d">MACD histogram-</text>
<line x1="1532" y1="212" x2="1554" y2="212" stroke="#2563eb" stroke-width="1.8"/>
<text x="1564" y="216" font-size="12" font-family="Segoe UI, Arial, sans-serif" fill="#1f2d3d">DIF / DEA</text>
</svg>